<svg xmlns="http://www.w3.org/2000/svg" width="620" height="731"><defs><style>.a{fill:#5482a0}.b{fill:#56829f}.c{fill:#735564}.d{fill:#5884a1}.e{fill:#5b859b}.f{fill:#d3d5d6}.g{fill:#fbedeb}.h{fill:#e1a2b7}.i{fill:#c6e0e4}.j{fill:#c4dee3}.k{fill:#c5dfe4}.l{fill:#fbdfef}.m{fill:#97cbf2}.o{fill:#f2a4b9}.p{fill:#eeecea}.q{fill:#fafbfc}.r{fill:#fbd7e8}.s{fill:#fdfdfd}.t{fill:#948a7d}.u{fill:#bf1f5c}.v{fill:#f1f2f2}.w{fill:#077fee}.x{fill:#f5f7f9}.y{fill:#f2b9e0}.z{fill:#f0dc64}.aa{fill:#fefefe}.ab{fill:#f8e163}.ad{fill:#164b87}</style></defs><path class="a" d="M282.8 355.4l-22.6 1.5-2.4-9.3-26.2 23.1c.3 1.2 1 2.8 1 4.3-.3 2.8-1.4 5-4.8 5.8a7.8 7.8 0 0 0-4.8 3.5c-3.5 7.6-5.5 8.2-11.5 3-3.4 1.9-6.6 3.5-7.9 8-1 3.8-4.4 6.7-5.2 10.9-.7 3.3-3.2 2.8-5.9 1.7a19.4 19.4 0 0 0-7.3-1.7c-12.2 0-19.6-9.5-17-22.5-12.7-8-14.2-19.5-9.6-33 .5-1.3 2.9-3 4.2-3 6.6.7 14 .5 19.5 3.5 4.5 2.5 10.5 6.9 9 14.5a2 2 0 0 0 .1 1.1 14 14 0 0 0 2 3.9c.3.4 2.1.1 2.8-.4 1.4-1.2 2.4-2.5 1.4-4.8-1.5-3.4-.6-4.4 4.6-6.3a45.4 45.4 0 0 1 2.3-6.8c1-1.9 2.4-3.2 5.1-2.6 1.4.4 3.5-.6 4.5-1.6q10.1-9.8 19.8-20c1.8-1.9 3-4.2 4.4-6.2l-8.1-5.6 1 9.1-.7.3-2.8-6.2c-4.8 3.4-5.6-1.2-6.9-4.1-6.9 2.2-4 9.6-7.8 13.4a17 17 0 0 0-11.8-4.7 20.9 20.9 0 0 1-18.9-11.5 15.4 15.4 0 0 1-1.3-9.3c.7-3.8-.5-6.5-2.7-9.1l-1-1.1c-2.7-3.4-5.2-6.5-3-11.6 3.2-7.2 5.2-15 8-22.4 1.9-4.6 4.2-5.1 8.2-2.5 4.6 3 9.3 6 13.7 9.2a10.3 10.3 0 0 1 3.1 4.5 89.6 89.6 0 0 1 3 10c1.6 6.5 3 7.4 9.4 6.3 1.8-1.1 3.7-3.3 5.5-3.2 2.2 0 4.3 2 6.9 3.4.2-14.9 7.4-26.5 16-37.4 3.1-4 7.4-7 11-10.6a79.4 79.4 0 0 0 18.6-30.5c3.7-11 5.1-22.3 6-33.8a9 9 0 0 0-.6-4 94.8 94.8 0 0 1-4.8-46.5c.7-7 3.4-13.7 5.1-20.6l.6-2.7-.9-.4-2 3.6a323.7 323.7 0 0 0-25.2 82.1 901.6 901.6 0 0 1-8.3 43.8 71.7 71.7 0 0 1-12 26l-1-.8c3-7.5 6.8-14.7 8.6-22.4 3.8-16.2 6.8-32.6 9.8-49 4.3-23.7 10.4-47 20.1-69 3.8-8.6 8-16.8 12.1-25.2l10.6-4.4a13.9 13.9 0 0 1-1.2 3c-13.8 20.2-12.3 41.9-5.8 64l-1.6.3c-.3 10-.5 20.1-1.2 30.3-1.5 21-7.9 40-22.5 55.8l-1.1 1.1a.3.3 0 0 0-.4.4c-14.4 10.9-31.5 40.2-28 49l5.5-3.7c1.6 0 3.7-.5 4.6.3 3.2 2.9 7 2 10.6 2.1 2.4 0 3.1-1 3.7-3.1 2-8.1 3.7-16.4 8.7-23.3l2.4-2.9.4.4-9.7 28c2.9 0 5.3.6 7.3-.1s4.8-3.6 4.5-4c-2-3.4.4-6.2.8-9.2.6-3.5.8-7.2 1.8-10.6 5.4-16.6 10.7-33.3 16.7-49.7 4.5-12.3 8.5-24.6 8.3-38h.7l.7 1.4c-.1 4.1.2 8.3-.6 12.2-1.4 7.8-3.5 15.4-5.3 23.1-2.4 5.9-4.8 11.7-7 17.7-2 5.4-3.5 10.9-5.3 16.3a17.8 17.8 0 0 0-1.2 2.7l-7.8 30-.5 2.7 1.3.6c1.6-2.8 4-5.4 4.5-8.3 2-9.8 6-17.8 16-21.3 4.6-1.6 9.4-2.4 14.3-3.6l2.3-23.6c3.1 8.2 1 16.3 0 24.3l13.2 4.7c2.1-5.1 6.4-2.2 10.7-2.9-.8-4.6-1.1-9.2-2.4-13.5-1.1-3.6.2-5.6 3.2-6.1 2.8-.5 5.8.1 9.8.3-1.5-1-2.4-1.8-3.4-2a72.3 72.3 0 0 1-26.6-13.3c-7.7-5.8-12.8-13.1-13-23.3-.2-5.5-.8-11.1-1.2-16.7l-.7-14.2h1.2c.6 1.7 1.5 3.3 1.7 5 .6 6.8 1.2 13.6 1.4 20.5a33 33 0 0 0 13 26.8c24.7 20 66.5 17.5 88.2 1.5 4.5-3.3 8-7 8.5-12.5 1.4-12.8 2.5-25.6 3.6-38.4.2-2 .9-4.7 0-6.1-1-1.3-3.8-1-5.8-1.5l-1.8-.5c-2.6-.7-3.5-1.7-3.2-5 .7-7 .2-14.1.2-21.2a25.6 25.6 0 0 0-1.4 4.3c-1.4 4-2.8 8.2-4.4 12.3-.5 1.1-1.7 3-2.3-.2l.8-3.6c3.2-9.7 8.4-19 4.3-29.8l1.4-.3 3.6 10.5c0 8.4.4 16.8 0 25.2-.2 5.5-.3 6 5.5 6.1 2.8.6 5.6 2.2 8 0l3.7 2.4a5.6 5.6 0 0 0 .3-1c-2-14.9-3.4-29.7-8.5-44A67.8 67.8 0 0 0 406.5 90a18.8 18.8 0 0 1-1.6-3c6.4 3 9.4 8.3 13.5 12.6-1.1-10-3.4-19.4-10-27.3A42.2 42.2 0 0 0 394 59.6l1.1-1.5 13 9.2 10.3 17.5a5 5 0 0 0 2.6 2c2.1.7 4.4 1 6 1.4l9.7-3.8c.1.3.4.8.3.9L424.8 96c1.7-5.2-.8-6.9-5.6-7.3l3.1 8.5-1.4 8.8 1 .7 4-2.4 5.4 5.9 1-.8c-.3-2.6 1.3-5.8-2.5-7.5 6.6-4.3 10.6-9.9 8.4-18.1 1 1 2.6 1.9 3 3.2 1.7 5.1-.6 9.4-4.3 12.6-3.5 3-1.7 5.4-.8 8.4 3.6-1.8 6.2-6.9 10.6-1.3 3.2-3.6 6.6-6.7 9.3-10.4 2.5-3.4 5.6-6.9 4.6-11.8h.1l2.3.4.9 3.4.7 2.1.8 7.5.5 3.6.6 14.4-1.2 6a22.2 22.2 0 0 0-.8 2.4c-4.5 23-3 45.8 1.9 68.4 3.5 15.7 8.2 31.1 12 46.7a55 55 0 0 0 8.6 20c1.4-3.5 3-6.8 4.2-10.2 5-14 9.7-28.3 15.2-42.2 8-20 14.3-40.3 16.5-62 1-11-2-19.4-11.3-25.2-4.7-3-9.9-5.3-14.9-7.8l6.8-.7 4 2c15.3 8.5 21 18.5 18 34.9l-6.2 33c-2.2 6.3-4.3 12.8-6.8 19-8 20.8-16.3 41.5-24.5 62.3-.1.3.2.8.4 1.3.7.2 1.7.8 2 .6a32.1 32.1 0 0 0 4.3-3.6 88.4 88.4 0 0 0 24.6-44.8l2.1-8.8 1 .2-1 11.2a85.8 85.8 0 0 1-22.5 42.5c-1.4 1.4-2.8 3-4.5 3.9-4 2-4.6 4.6-2.8 8.3l.9 3.2c1.2 2.6 2 5.5 3.8 7.8a81.5 81.5 0 0 1 12.2 24.6c.8 2.8 1.6 5.5 2.1 8.3 2.4 13.5 4.4 26.9-6.5 38.9l12.2 4.6 6.8 3.7a43.3 43.3 0 0 1-22.3-8.4l6.2-7.7a10.2 10.2 0 0 0 2.1-4.3 85.4 85.4 0 0 0-13.7-57.4l-.8-.3v18.2c-.4 14.5-1.6 29-6.3 42.8-3.4 10-6.9 20.5-16.4 27-1.1.8-2.4 1.3-3.6 2l-.1-2c4.4-3.4 9.3-6.4 10.7-12.3.5-.6 1-1.2 1.3-1.8 5.2-8.4 6.6-18 8.1-27.4 2.4-15.4 4.4-30.9 2.5-46.5-.7-5.6-2.2-11.1-3.5-17.4L482 272l-3.9 2.5-.6-1 3.6-4c3.8-4.2 4-5.5 1.5-10.5a37.7 37.7 0 0 0-2-3.6c-7.2-11-14.6-22-21.8-33.2a100.5 100.5 0 0 1-16-64.8l.7-7.5-6.6 2.2-.9-.1a3.8 3.8 0 0 1 .7-.9 69.7 69.7 0 0 0 23-28c2-4.7 3.4-9.3 2.2-14.6-.6-3 .1-6.2.1-9.3a28.5 28.5 0 0 0-.4-3.6l-.3-.5-.4.5-12.7 13-5.2 5.1c3 1.6 4.4 2.9 3.8 6.2-.8 5-4.6 3.8-7.8 4.8a5.7 5.7 0 0 0 2.6 2.3 14 14 0 0 0 3.4 0c2.7.1 4.4 1.3 2.5 4-1.4 2-3.6 3.4-5.4 5.2l-.1 1c-.2 1.8.2 4-.7 5a12.8 12.8 0 0 1-5.5 4.2c-.6.2-2.3-2.5-3.5-3.7a9.6 9.6 0 0 0-2.2-1.2l-.7.6.7 10.5v1.5l1 5.8-5.5.3v2.8c1.1 13.8 2.6 27.7 3.3 41.6.4 8.6 1 17.5-1 25.7a38.6 38.6 0 0 1-28.3 30.1A39.9 39.9 0 0 1 403 236c2.8-5.9 5.3-11.8 7.9-17.8v-.9l-.7.4c-3 2-5.9 4.2-9 5.9a74.7 74.7 0 0 1-9.6 4.1c-3.1 1.2-6.4 2-9.5 3l.4 1.1a4.4 4.4 0 0 1 1.3-.3l7.4.7-.7 5.9-.5 2.2c-.2 5.5-2.8 11.6 3.7 15.5.4.3.5 1.1.6 1.7a4.4 4.4 0 0 0 4.7 3.5c6 .8 11.9 1.3 17.7 2.3 7.1 1.3 13.3 5.1 16.6 11 6.2 11 5.3 22.7-1 33.6-3.7 6.6-8.2 12.7-12 19.2a16.7 16.7 0 0 0-2.2 7.7c-.2 8.6 0 17.1 0 25.7a15.8 15.8 0 0 1-1 4.7c-.1.5-1.2.7-1.9 1l-.5-.3v.9l2.9 12c6.3-9 12.8-17.2 18.1-26.1a74.9 74.9 0 0 0 9.6-41.3c-.4-16.3-4.4-31.8-7.3-47.6-1.4-7.7-2-15.6-2.7-23.4-.1-1.6 1-3.4 1.7-5.2.6 7 .8 13.6 1.8 20 2.6 16.8 6.3 33.4 8.4 50.2 3 22.8-3.5 44-13.9 64-3 5.8-7.2 11-10.9 16.6a7.5 7.5 0 0 0 1.9 0c8.4-2 16.7-4.4 21.2-13a36 36 0 0 1 2.3-2.9c5-7.3 10.8-14.2 14.5-22.1a80 80 0 0 0 6.9-53.5l1.2-.8.9 1.8v2.6l.5.8 1.5 8.2c.9 15.5-1.9 30.6-9 44-6.2 11.2-14.8 21.2-22.8 31.4-1.6 2-5.1 2.8-7.9 3.8s-5.4 1.6-8.1 2.4l-.4 1c3.4 2 6.5 4.5 10 5.9a277 277 0 0 0 23.6 7.5c10 2.8 20.3 5.1 30.4 7.5 1.2.2 2.8-.6 4-1.3 4.2-2.8 7.8-1.6 9 3.4a59.2 59.2 0 0 1 .8 6.6l.7 6.4h12a11.3 11.3 0 0 1 4.6 1.2c4 2 4 4.4.3 6.7a26.7 26.7 0 0 0-2.3 2l-3 2.6c5.5 6.3 5.2 10-1 15.3-1.5 1.4-3 3-4.4 4.6-4.3 4.6-7.3 5-12.9 2l-1.2-.6c-2.6 2.3-5.1 4.3-7.4 6.6a4.3 4.3 0 0 0-.5 3.4c.8 3.7 0 4.6-3.6 5.8a97.6 97.6 0 0 0-11.5 5.4c-3.2 1.6-6.1 2-9.5.3-4.4-2.2-9.2-.4-11.7 3.9a14.5 14.5 0 0 0-.7 1.3l-.3.8h1c6.2-1.2 12.4-2.8 18.7-3.3 9.4-.9 17.9-4.3 26.5-7.7a5.6 5.6 0 0 0 2.3-1.7 22.5 22.5 0 0 1 31.7-4.4c6 4.7 13.1 4.4 20 5.2 4 .5 8.2-.3 12.3 0 2.1.1 5 .8 6.1 2.3s1.2 4.7.4 6.5c-3.8 8-15.7 16.4-25.2 15.2-10.5-1.2-21.1-1.3-31.7-1.9v-1.6c4.5-.3 9-.8 13.4-.8 7 0 14.2 1 21.3.5 8-.6 14.5-5 18.8-12 1.4-2.3.3-4.2-2.4-4.4l-11.5-.7c-5-.4-10-.3-14.8-1.7-4.2-1.2-7.9-4-11.9-6-7.3-3.7-14.1-4-20.6 2-3.3 3-7 6.2-11.2 7.7a188.8 188.8 0 0 1-24.3 6.6 154.4 154.4 0 0 1-18.9 2.7c-3.9.4-4.9 1.9-3.5 5.6 2 5.6 3.6 11.3 5.5 17l-1.5.7-20.5-53.3c-2.4-6-5.3-12-8-18l-.7-1.5-.9-2.4-1.5-4.4a1 1 0 0 0-.3-.6l-1.9-4.7-.6-1.3-.9-2.4-.6-1.4-1.7-4.5-.6-1.5-.8-2.3-.6-1.4-.2-.8-.4-.7-.4-1.4-.4-.9h-.3l-.8-2.2-.7-1.6-3.9-16.7-3.8 1-.7-.3-.8-.4-.6.2c-4.8-1-9.7-2.3-14.2 1.2 0-.5-.5-1.2-.3-1.5 4.8-7.8 2.5-15.3-.7-22.9-1.9-4.5-3.6-9-5.3-13.6a14.6 14.6 0 0 1-.3-3.8c2.7 4.9 4.3 10 6.6 14.7 3.4 7.2 6.8 14.2 4.2 22.7h6.7c8.3.5 8.3.5 11.3-7.2 0-.2.4-.2.8-.4l.4 4.4c6.3-2.7 7.5-5 5.8-11a33 33 0 0 0-1.4-4.7 7 7 0 0 0-2.4-3.2 62 62 0 0 1-25.9-25.8c-3.2-6-5.7-12.5-8.5-18.7-.4-1-.9-2.3-1.7-2.7a33.9 33.9 0 0 0-5.6-1.6l-1 13.6-2.8 31h-1.4l1.6-45.2c-5.3.2-10.4.6-15.5.6-2.4 0-3.6.6-3.8 3.2-1.1 15.7-2.4 31.3-3.6 47l-.2-.1h.2c1.5 6.6 2.7 13.4 6.3 19.3l-.3.6c-4.5-2.8-5.9-7.6-6.6-12.2a152.8 152.8 0 0 1 0-45.9l1.5-11.7c-3 0-5.4.2-7.9 0-2.8-.2-4 .9-5.2 3.5-4.2 9.6-8.5 19.1-13.3 28.4a31 31 0 0 0-3.3 14.4c0 5.3 2 10.6 0 16.2-1.5 3.5 1 5.4 5 4.8l5.8-.6v1.6c-9.3 3.5-10.2 3.3-14.8-3l-37.9 24.7a33 33 0 0 0-3.5 3.1l-.8.8-.8.7-1.5.9-.8.7-.8.7-1.4.9-.8.7-.9.8-1.4.9-1 .7-.6.5-.8.9-1.5 1-1.5.6-.7.8-3.7 3-.8.6v.1l-.7.6-.2.1a1.1 1.1 0 0 0-.5.4 50.7 50.7 0 0 0-4.5 4.5 43.1 43.1 0 0 0-3.1 5c.8.5 1.6 1.2 2.4 1.3 3.6.2 7.3.1 10.9.2 2 1.5 3.7 1.5 6 0 6.7-4.2 13.7-7.7 20.4-11.9 15.3-9.6 30.4-19.4 45.6-29 1.3-1 3.2-1.8 1-3.6l-1.3-1.4.1-2.3.4-.8.1-3 .8-1.7c.2-4.4 1.2-9 .4-13.1a58.5 58.5 0 0 1-.5-25.2 44 44 0 0 1 2-5.3 73.5 73.5 0 0 0 .4 27 34.5 34.5 0 0 1-.9 21c-1 2.9.6 3.8 3 4.1.7.1 1.4-.2 2 0 6 2 11.6.4 17.4-.5l-1.4-4.6 4.8 2.6 4.2-4.5a17.2 17.2 0 0 0 5.9-12l.4-6.4h1.7c.8 8.4-.2 16.3-8 22.6l27.9 2.7-5 2.9-1.8-.1h-2l-.2-.2-1.8-.2c-6-.8-12-2.4-18-2.1-7.8.4-15.5 2.2-23.2 3.6a4.5 4.5 0 0 0-2.7 2.2c-2.1 4-3.6 8.5-6 12.4-7.5 12.8-15.2 25.5-22.8 38.2a7.1 7.1 0 0 0-1.3 4 67.7 67.7 0 0 0 1.8 8l7.8 2-1.5 2.1a38 38 0 0 0-5.8-.4c-.3 0-.4 2-.8 3a8.5 8.5 0 0 1-1.6 2l-.8-3.1-.8-9-.7-1.3v-.1c-.2-6.2-3.5-8.5-12-9.8v-.2l-.8-.5c-4.7-.5-5.3 0-8.3 5.9-4.7 5.5-10.2 10.7-7.5 19.2.4 1.4 0 3 .2 4.5a18 18 0 0 0 .6 3l2.4 9.1.6.5 8.4-5.4 5.5-3.9a18.9 18.9 0 0 0 3.6-1.3c3.3-2 6.4-4 9.6-6.2l3.8.1-6 4.4c-15 9.8-30 19.4-45 29.3-11.7 7.8-23.2 16-34.7 24-1.2 1-2 2.6-2.9 3.9v.5l.2 1.6-1.7 3-2.7 1.3h-2.5l.8-3.6 2-2.3-3.4-2.3 1-1c2.4.4 2.6-.8 1.6-2.6l-.7-3.3-3.4-19.7 1.8-3.5 5 29.3 3.2-2.9 3.5-2.2 16.7-12.1 2.2-1.5 9.9-6.8 1.3-1 4.8-4.1 4.3-2.4 11.2-7.5.6-1.5-2-4.8-1.5-4.9-.2-4c-.2-5.7-2.5-8.8-8-10.5l-4-2.7V458l2.7-.1 8.4 5-.6-4.9-1.5-5.3c-2-8.9-9.6-15.3-17.3-14.9l-5.1-.1-4.1 1.7-1-.9a1.1 1.1 0 0 1 .4-.5l-.7-2a.4.4 0 0 1 0-.4v-5.5l-8-10.7-7.6-.5a23 23 0 0 0-1.8 2l-8.6 13-.9-2.3 1.5-2-10.7-5.4 1-.8 10.7 3.7 5.2-7.2c2.6-3.7 11.2-5.5 14.6-2.4 2.3 2 3.7 5.1 5.5 7.8l1.8 2.7c3.3-3 6.7-5.7 9.6-8.9.7-.7.3-3-.3-4.1-2.3-4.8-.5-10.7 3.9-12.7l.8.8c-4.3 5.8-4.4 8-1 13.3a9 9 0 0 0 5-6.9 20.6 20.6 0 0 1 9.3-14.2l.2 1.4c-2.8 4.3-6.6 8.2-7.6 14 6-4.4 12-8.4 17.4-12.8 1.4-1 1.7-3.5 2.9-6.3l-8 1.2-1-1.4 15-5.6 23.1-8c.8-.4 1.9-1.2 2-1.8a84.5 84.5 0 0 0 .5-11.4c0-1-1.7-2.1-2.6-3.2l-1.1.8.2 4c-4.6-3.5-3.8-8.9-6.6-12.7l2.4 14.4-1.6.8-3.5-7 .7-.5h1.3l-.4-1.5-.9-10.5 2.3-1.4c.8 1 2 1.8 2.4 2.9 1 2.5 1.4 5.3 2.4 7.8a3.6 3.6 0 0 0 2.6 1.8c.5.1 1.8-1.2 1.9-2a32.8 32.8 0 0 0-.4-8c-1.3-6.2-3.1-12.4-4.3-18.7-.6-3-.1-6.2-.1-7.9-4.3-1.8-8.3-2.4-10.8-4.7-4-3.7-4.4-4.1-8 .2l-2.5 2.7-20.9 19.6c-4.9 3.6-1.4 7.9-1.4 12.3l4.7-.8 14.9-.6c0-6.6-.2-12.4 0-18.2.1-1.9 1.1-3.7 1.7-5.5a49.4 49.4 0 0 0 2 21.7m126-20.1l-.8-.8c-.6-2.5-1.6-4.4-4.7-3.1l-3.6.2-18.1-4.4-3.3-1.9-.8-.2.2.8 1 3.5a1 1 0 0 0 .4.6.8.8 0 0 1 .3.1l.7 1.6.8 1.5.7 1.8.1.3.8 1.6c4 6.1 7.6 12.4 12 18.1 2.9 3.7 7 6.5 10.6 9.7l1.4.6 1.5.8c3 3 3.7 3 5 .6l.2-2 1-19.3v-4l-.9-1.6-.4-.8-1.6-1.4-1-.8-.8-.8-.7-.8zM285 99l.1-1.6-.9.9v1.2zM185.5 359c-3.8-4.8-8.2-8.6-15-7.6l-6-.8c-2.8-.3-4.2 1-3.8 3.8-3.5 11.2-.3 21 8.8 26.2l2.9-5 7.1-4.2 8.8-1.5v-4l-2-6.2zM309 340.1l1 3.4 1.4 7a18 18 0 0 0 3.5-5.8c3.9-8.8 7.8-17.7 11.5-26.6.3-.7-.3-1.7-.5-2.6h-2.1l-10.5-.7-5.1.3-.3 4.9.8 19.4zm-118.7-79.6l-3.4-4.6-3.7 9.9c-1.2 2.8-2.2 5.8-3.6 8.5-3.6 6.7-5.5 13.1 1.6 18.9a10.2 10.2 0 0 1 1.5 2.4l6.2-7.8L200 283h7.6l-1-4.2-1.6-5.5c-1-2-1.6-4.4-3.1-5.6-3.7-2.7-7.8-4.8-11.7-7.2zm74.1 186.3c.7 1.6 1 3.4 2 4.6.8 1 2.6 1.1 3.9 1.6l-.4-3.2v-1.4c1.2 0 3.2.5 3.5 0 .6-1.1.4-2.7.3-4a15 15 0 0 0-1-3.1l4.4 3 1-4.5c.9-4 1.3-8.2 5-10.9l.2 2.3-3.2 9 18.6 5.4c9.5-15.7 20.2-31.5 28-49-3.1 2-5.8 4.4-8.8 6.2-15 9.4-29.9 18.6-45 27.6-2.8 1.7-4.5 3.2-4 6.6l-2-2.8a51.3 51.3 0 0 1-4.6 2.6c-2.8 1.3-3.1 2.8-1.3 5.2l3.4 4.8zm229.6-9.1h17a3.8 3.8 0 0 0 2.3-1l6.7-6.2c-4.1-3.2-15.1-2.6-16.5.2-1.5.1-3-.2-3.7.4-2.1 2-4 4.4-5.8 6.6l-.2.5zM368.6 301.9l4.4 2.2c-2.7 1-4.8 2.2-4.6 5.8.2 3.2 3 2.1 4.4 3.7a184.3 184.3 0 0 0 2.3-20 60.5 60.5 0 0 0-.4-11.9c-.1-1-2.4-1.9-3.7-2.9-.6 1.1-1.8 2.2-1.8 3.4 0 3 .5 6.1.7 8.4l-2 7.5-1 1.7c-2.3-1.4-3.1-4-1.6-5.7 3-3.6.5-6.9.6-10.3-4.8 0-9.4-.2-14 0-10.2.6-20.4 1.2-30.5 2.2-7.6.8-15 3-22.6 3.4-15 .8-30.1.8-45.2 1.3-5.2.1-7.9 2.8-7.4 8 .5 5 1.7 9.7 2.7 15.2 5 0 9.8.2 14.5 0 14.5-.6 29-1.7 43.4-2 17.6-.2 35.2.3 52.8.4 1.6 0 4-.6 4.5-1.7 1.5-2.6 2.1-5.7 3-8.6zM343 246.4h-.1a31.9 31.9 0 0 0 .7-5.6c-.1-2-.1-4.7-1.3-5.5-1.7-1.2-4.3-1-6-1.2.5 5.4.7 9.8 1.3 14.2.2 1.7 1.2 3.9 2.4 4.6a90.1 90.1 0 0 0 10.7 4.3c2.3 1 4.3.4 4.3-2.3 0-3-.8-6-1.3-9h-.5l-3 4.3-1.3-.8c.3-3.3 4-7.3-1-9.3zm151.5 193c-4-1-4.5 2.3-6.2 4.6l6 3 .6 5.6c.1 3.7 2.8 5.2 5.5 5.6a9.7 9.7 0 0 0 6.9-1.5c2.8-2.2 5-5.3 7.3-8s1.6-6-2-7.2a29.7 29.7 0 0 0-6.7-1.7c-3.8-.4-7.6-.4-11.4-.5zm-131.1-161l-10.6 1.3v.4h12.3c3.6-1.7 6.6-5.3 11.3-3.4 0 0 .2 0 .3-.2l9-5.2a11.3 11.3 0 0 0 6.2-9.5c.4-3.7-.2-4.9-4-4.7-5.3.2-10.6 1-15.9 1.7-1.5.2-2.8 1.3-4.2 2 2.4 5.1 0 14.5-4.4 17.6zm52.9-66l-.7 2.1c-3.4 7.3-6.7 14.5-10.2 21.7-3.2 6.5-4.6 13.9-3 19.4 4-8.3 7.7-16.8 11.4-25.2a31.4 31.4 0 0 1 1.9-3.3c.1 11-5.2 20.2-10.6 29.5.7 0 1 .2 1.1 0a10.9 10.9 0 0 0 1.2-.8c14-10.7 19.6-25 18.6-42.3l-3-50.7a16.5 16.5 0 0 0-1-3.4l-1 .2c0 8.8.5 17.6-.3 26.4-.7 9-2.9 17.7-4.4 26.5zm-112.3 58l-13.7 15.4 1.2 1.5c1.2-.6 2.8-.8 3.5-1.8 3.4-4.4 6.6-9 9.7-13.7.2-.1-.5-.9-.7-1.3l2.7-1.3c0 .8.6 2 .3 2.6l-7.7 15.2 23.6-4.5c.7-.1 1.8-1 1.8-1.6.4-4.4 3-8.6.6-13.4-1.4-2.8-1.4-6.2-2-9.5-3-1-6.5-2.4-10.1-3.4-18-5.2-33.2 6.9-32 25.5.4 6.5 1.7 7.5 8.6 6.6a20.2 20.2 0 0 1 .6-2.5 23 23 0 0 1 13.6-13.8zm88.5 50.6l-6.3-1.7-.2.8 5.8 2c1.5.2 3 1 4.4.8a591 591 0 0 0 22.6-1.5c1 0 2-1.3 2.6-2.3 2-3 3.5-6.3 5.7-9.1a33.1 33.1 0 0 0 6.6-24.7c-1.2-13.2-12-21-24.7-18l-4.4.9c-9 1.3-16.8 5.3-24.4 10-1.2.7-2.9 2-2.8 3a97.6 97.6 0 0 0 1.5 10.9c10.3-4.6 20.8-7.4 31.7-1.8-1.3 7.5-17.2 11.5-32.1 7.4-4 9.5 2.6 18.6 10.4 19.4l19 1.7c-1.3.6-2.7 1.7-4.2 1.8-3.7.3-7.5.3-11.2.3zm18.3 66.2l-2.6-.8c-.1.6-.5 1.2-.4 1.7.8 4.1 1.3 8.4 2.7 12.3 4 11.4 8.4 22.7 12.9 34 3.2 8.2 6.9 16.2 10.1 23.7 4.1-.8 7.8-1.5 11.4-2.5 2-.5 3.7-1.3 2.3-4.2-2.4-4.9 1.7-13.3 7.1-14.8a11.3 11.3 0 0 1 7 .2c7.2 3.3 7 3.5 11.8-3l1.1-1.7c-4-5.2-4-12.4-.1-16.3 2.6-2.7 5.8-2.2 11.1 1.6l2.3-4.3a16.2 16.2 0 0 0-2.2-.9c-10.1-2.3-20.2-4.4-30.2-6.8a78.2 78.2 0 0 1-30.4-12.3c-2.3-1.8-5-3.2-7-4.5l-1.7-7.3-1.6-.2-2.9 5.3zM228 368.7c6.7-4 52-46.4 55.7-51.8h-34.6a4.5 4.5 0 0 0-2.7 1.6l-27.2 28.8c-2.3 2.3-4.2 4.4-2.1 8 .6 1.2 0 3 0 4.6 9 4.3 9 4.3 11 8.8zm247.3-129.6c-10.5-35.3-21-70.7-15.3-108.4-2 2.2-3.4 4.5-5 6.6s-3.3 4.6-5.4 6.3c-3.5 2.8-4.2 6.5-4.5 10.5a113.7 113.7 0 0 0 30.2 85zm-264 53.2c-4-6.3-6.8-7.7-13-5.9-6.7 2-11.6 6.3-13.8 13.1-3.5 10.4 5.5 23 16.5 22.3 6.4-.3 12.9-2.5 16-8.8a19.1 19.1 0 0 0-1.3-19.6 36.9 36.9 0 0 0-3.6-4.2zM186.6 372l-.4 1c-1 0-2 0-3 .2-7.8 1-13.5 9.2-12.6 17.7a13.5 13.5 0 0 0 15.2 12 30.2 30.2 0 0 0 8.3-2.1 15.8 15.8 0 0 0 9-17.8c-.4-1.8-1.1-4.1-2.4-4.8-4.5-2.4-9.4-4.2-14-6.2zm166.2-92.7c-4.4-6.7-8.7-12-3-19.6-6.6-2-12.6-3.9-18.6-5.6a3 3 0 0 0-2.6 1.4c-1.1 3.7-3 7.5-.7 11.3s1.8 8 .6 12l-.6 3zM488.5 425l-2-2.8a19.6 19.6 0 0 0-3.1-3.2c-3.4-2.5-6-2.5-8.2.1-2.5 3-2.6 8 0 10.3 4.2 3.7 8.7 7.3 13.3 11.1 2.8-2 4.4-5.2 3.1-10.1l3.6 1.6c5.6-6.3 6.5-16.6 1.8-22.2-2.8 2-6.7 3.3-8.3 6-1.4 2.4-.2 6.3-.2 9.2zm-3.7 46l-3-11c-.4-1.4-.4-3-1-4.3a3.2 3.2 0 0 0-3-1.2c-5 1.9-9.9 4.3-15 6-2.5.9-3.2 2.3-3.2 4.6v12c3.2.4 7 2.2 9.8 1.3 5.5-1.8 10.6-5 15.4-7.5zM348.4 236.5a38.4 38.4 0 0 1 3.5 2.8c1.2 1.2 1.9 2.7 3 3.7a10.5 10.5 0 0 1 3.4 12.3 7.9 7.9 0 0 0-.2 2l2.7.2c1.5-3 3.3-5.5 4-8.2 1.6-6.1 7.4-8.3 11-12.3 1.9-2 3-3.1 2.4-5.1h-29zm126.4 216.5c-1.7-1.3-2.3-2.2-3-2.3-4.2-.9-6.2-3.5-7.5-7.5a6.7 6.7 0 0 0-11.5-2.5 21.4 21.4 0 0 1-2 2.2c-3 2.4-2.5 5-.6 7.5 2 2.8 4.3 5.5 6.5 8.2a2.2 2.2 0 0 0 1.9.6l16.1-6.2zM369 251.4l-3.3 3.2c1.4.8 2.7 1.7 4.2 2.4.3.1 1-.2 1.4-.3l7.6-2c2.3-.5 5.4-.1 6.6-1.5s.3-4.4.6-6.6c.5-4.2 1.3-8.3 2-12.7-7.9.5-7.8 7.4-10.6 12.9l-1-6.3c-4.8 1.9-1.4 5.7-2.2 9.2l-2.6-3.7c-4 1.4-4.2 2.2-2.7 5.4zm-128.8 66.8a15.8 15.8 0 0 0 3.2-2.7c3-3.8 1.2-8 1-12.2-.2-2.6-.9-5.5 0-7.9 1-3-.6-4.8-2-6.5-.3-.6-3.1.4-4.6 1.1s-4 1-3 3.8a22.9 22.9 0 0 1-.2 16.8c-1.2 3.1 1.7 7.5 5.6 7.6zm205 169c10.8-9.5 11.7-11.2 11.8-22.3a14.1 14.1 0 0 0-1.6-.6 3.4 3.4 0 0 0-1.5-.1c-5.9 1.2-9.7 5.3-13.3 9.7-.2.4 0 1.3.1 1.8l4.5 11.5zM221.8 379.6a70 70 0 0 0 7.4-3.5c.4-.3.4-2.5-.2-3.1-2.7-2.8-5.2-6.2-8.5-7.7-4.2-1.9-6.3-4-6.1-8.9 0-1.2-2-2.9-3.5-3.8a3.6 3.6 0 0 0-3.3.5c-2.2 2-2 7.6.5 9 7.2 3.8 12 9.2 13.7 17.5zm1.4-94a83.5 83.5 0 0 0 1.4 8.6c1.3 4.7 3.5 9 1 14-1.2 2.7-1.5 5.8-2.3 9 5.9-.5 9-4.5 10-12.8 1-9.2-1.2-15.6-10.1-18.8zm143.5-21.2c-1.2-1.3-2.7-4.3-4.9-5-4.6-1.3-12 2.8-12.6 6-.5 3.8 5.2 12.2 8.5 12.4 3.6.4 8-5.6 9-13.4zm110 187.1c3.4-3 8.8-4.2 8.1-10.2-.5-5-5-5.8-7.8-7.1l-9.4 10.7zM433 115.3c-2.7-.4-3.3-5.8-9-2.5l7.5 5.5-5.2 4.1.4 1.2 5.4.4 2.2 7.4 1-.2 2-9.5c2.4-.5 6.1 1.6 6-2.3 0-5.2-4.5-.5-6.4-2.3l6.6-10.2-.9-.6zm-232.4 247c0 5 3.3 5.6 6 6 2.2.5 3.1 1.6 3.3 3.6.1 1 0 2.3.5 3 3.2 3.6 6 7.3 5 12.9 5.6-2.2 6.3-4.3 4-8.3a12 12 0 0 1-1-2.1c-2.2-6.2-7-10.2-12.2-13.7-1.5-.9-3.5-.9-5.6-1.4zM439 471.2c2.6-2.4 4.7-4.8 7.2-6.6s5.6-2.8 8.7-4.3l-4.1-4.8v1l-8.3 1.7a17 17 0 0 0-3.7.6c-2.4 1-4.5 2.3-2.6 5.6a60.8 60.8 0 0 1 2.8 6.8zm47-7c2-1.7 4-3.1 5.6-4.8a3.9 3.9 0 0 0 1.4-2.4 54.7 54.7 0 0 0-.9-7.4c-.4-2.3-3.5-4.4-4.8-3.2-2.4 2-4.6 4-7.3 6.6 6.4 1.4 3 7.5 6 11.2zm-107.5-170c8.1 4 22.2 2.3 28.2-3a52 52 0 0 0-28.2 3zm-171 77.4l-7.6-2.4-.7 1.4-1.1 1.7c6 4.3 7.2 6.7 8 15.3l6.4-5.8c-4-2.7-6.2-5.8-5-10.2zm221-234.4l.3 1.2 6.1 1.1c-.7 3.7-.4 4.2 2.9 4.8 1.9-6 2-7 .1-9.6l7.3-3.4-.6-1.6a47.8 47.8 0 0 0-6.5 1.9c-1.6.7-2.8 2.2-4.4 3.1s-3.4 1.7-5.1 2.5zm-145 2.7c-3.8 3.7-3.1 17.4 1 25.9-1.2-8.5 2.6-17.3-1-26zm14.3 244.5l-.6-1.2-13.7 5.6c-3.5 1.5-3.5 1.6-1.9 5.5zm134.3-19.7L418.8 381l2 2.9c4.6-6.2 9.5-11.7 11.3-19.1zm-209.4-57.3c.6-2.4 1.4-3.8 1.3-5.3 0-2.3-.8-4.6-1-6.9-.4-4.2-.9-4.6-4.5-4zm73 8.4c2 3 5.7 4.5 7.8 3.1.8-.5 1-2 1.5-3.4h-7.1l-2.2.3zM416 330.6l2.4-6.1-7.3 1zm12.1-196.5c3.5-6.7 3.1-8-1.8-8.1zm-24.7 131.4c-8.4-2.2-8.7-2.6-9.3 2zm-129.6 21h6l-2.4-4.3zM383 318a1.3 1.3 0 0 0-.3-.1l-.1.2a1.3 1.3 0 0 0 .3.1l.1-.2zM462 94l.1-.2h-.1zm-77.2 224.6l-.2.2.2.2.3-.2z"/><path class="b" d="M238 509.7l-2 1.5-.3-8.6.7-5.8c-.4-9.2-7.6-13.3-13.6-18.2l-5.1-4.4-4.5 7.7-6.3 12h-1.8a16 16 0 0 1 .9-3.9c1.5-3.2 3.5-6.3 5-9.5.6-1.6.6-3.4.8-5.1 0-11.7-2.2-15.2-12.7-19l-10.7 5.2c-2 1.6-4.1 3-6.1 4.7s-2.3 6.1-.7 7.2c3 2 6 3.7 9.1 5.6.5 1.5 1.4 3 1.3 4.5-.2 5.6-.7 11.1-1.1 16.7a56.6 56.6 0 0 1-.2 6.4c-.5 4.2 1.5 6.5 5.4 7.5l.7.8 3 2.4 6 6.5a26.9 26.9 0 0 1-4.6-1.9c-3.3-2.1-6.6-4.5-10-6.9-1.1 3.8-.1 5.6 3.2 6.8 2.5.8 4.6 2.7 7 4.2l-1.5 2 7.5 3.3-.9 1.6-10-4c-6-2.5-12-5.7-19-3.8a2.5 2.5 0 0 1-1.4 0c-6.4-2.5-12.7-5-19-7.8-1.2-.5-1.9-2.2-3.2-3.9-3.5-1.2-7.8-2.9-12.2-4.3l-20.4-6.3c-3-1-5.8-2.3-8.7-3.4a3.9 3.9 0 0 0-1.3 0l.8 2c-7.8-.9-14.8-4-21.5-7.3s-13.3-7-20.5-10.8c-.1 16.2-2.3 30.4-12.5 42.5A69.2 69.2 0 0 1 19.8 548c16.6 8.8 32.7 17 48.6 25.6 21.5 11.7 42.8 23.8 64.2 35.6 5.1 2.8 10.6 4.8 15.4 7l19.5-27.1.9 2.5-16.3 23.2c-1.2 1.7-2.6 3.3-3.7 4.6a23.5 23.5 0 0 0-3.5-2.8c-6-3-12.2-5.7-18.2-8.9-14-7.3-28-15-42-22.4l-19.2-10.1c-16.2-8.6-32.4-17.2-48.7-25.6-2-1-4.8-.7-7.2-1L9 550c1.3.9 2.5 1.9 3.8 2.7 3 1.8 6 3.6 9 5.2l48.3 24.7c11.8 6 23.8 11.7 35.6 17.7 9.5 5 18.8 10.3 28.3 15.2a100.4 100.4 0 0 0 12.4 5.2c6.6 2.4 7.4 2 10.8-4.2 3.6-6.3 6.7-13 11-18.7C183 578 198 558.7 212.7 539c.6-.8.5-2.1.7-3.2l1.6-3a46.7 46.7 0 0 0 6-3l77.4-54.5c3.2-2.2 6.7-4.2 10-6.3l.8 1.8a22.4 22.4 0 0 0-3.2 1.6l-29.6 21-53.5 38a6.9 6.9 0 0 0-2.7 3.5 60 60 0 0 0-.9 16.3c.8 16.6 1.1 33.2 1.7 49.8.2 5.7.6 11.4 1 17.3a5.4 5.4 0 0 0 1.2-.6L250 593c18.7-17.2 39.8-31.8 56.3-51.5a9.6 9.6 0 0 0 2.1-5.5c.2-8.3 0-16.5 0-24.7l2.3 4.5c-.1 5.2-.3 10.4-.3 15.7 0 2.2.4 4.5 0 6.6a11.4 11.4 0 0 1-2 5.3c-10 12.4-22.6 22.3-34.5 32.7l-47.7 41.8c-2.4 2.2-4.8 3-8 1.7Q207 615 195.6 611a4.3 4.3 0 0 0-3.5.4 53.6 53.6 0 0 1-36.5 13.2c-2.8-.1-5.7-.2-8.2-1.3-13.9-6.5-27.7-13.2-41.5-19.8L90 595.8c-2.4-1.2-4.5-3-7-4a5 5 0 0 0-4.1.2c-3.4 2.2-6 1.3-8.8-1a5.4 5.4 0 0 0-4-1c-4.7 1-8.8-.3-11.6-3.6-1.1-1.3 0-4.5 0-6.9l1.1-.2-1.8-1.1c-14.7-8-29.3-16.1-44-24-2.8-1.5-5.8-2.4-8.6-3.6l-.5.9-.7-2.2c2.8-3.7 4.8-7 7.4-9.8L48 495c3.7-4 7.6-8 11.1-12.1 1.7-2 2.7-4.7 4.2-7 1-1.5 2.1-3.2 3.7-4 14.2-7.7 28.6-15.2 43-22.9a9.1 9.1 0 0 0 3-3.2c1.2-1.8 1.8-3.9 2.9-5.8 2.6-4.8 6.5-7.8 12.2-7.8 3 0 6.2-2 9.4 1 .7.7 4.6-1.4 6.7-2.8 1.6-1.1 2.6-3.3 4-4.9a9 9 0 0 1 7-3.5c6.2-.2 11.3-3.5 15-8 7.7-9.2 6-9.4 16.9-3 3.8 2.1 7.8 4.3 8.7 9.6.2 1.2 3 2 4.7 2.9l-1 .8-3.8-.7c1 1.9 1.3 4 2.4 4.4a112.5 112.5 0 0 0 10.7 3.7l.8 2.3c-.6 2.7 2.1 5.8 5.3 6l-.4 1.3c-2.3 4.8-4.7 9.5-6.8 14.4-.3.8.3 2.4 1 3.1a66 66 0 0 0 5.4 4.6 44.5 44.5 0 0 0 1 5.5 6 6 0 0 0 2 3.2 19 19 0 0 0 4.3 1.7l7.7 6.2-1.5-16.2c-.2-4.7-.1-9.4 2.4-13.7.3-.4-.1-1.3-.2-2l-8.4-6.4-4.3-1.7 2.2-1 8.4 3.2 3.6 3.8 4.7-7.3 1 .8-6.7 15.8a4.4 4.4 0 0 0-.1 1.8c.4 7.3.6 14.7 1.2 22 .1 1.8 1.2 3.6 2 5.2 1.5 2.8 4.2 5.5 4.5 8.4.6 5.6 0 11.3 0 17zm-111.7-8.3l.3.2-.3-.2L112 494l2.3-2-4.5-12.3-.7-6.3 3-4.6c-1.5-.6-2.8-1.5-4.3-1.7a55.3 55.3 0 0 0-7.1 0l-8.5 1.2-4.5 6.7-.6-6-15.7 8 19.3 7.5-2.8-9.2a33.7 33.7 0 0 1 3.2 3.7c2.9 4.5 4.4 10.1 10.5 11.6l3.7 1.3 6.8 2c3.2 5.4 8.8 6.4 14.2 7.6zm75-69.7c-3-1.9-5-.8-6.7 3.6-3 3.4-7.4 6-4.2 12 1.3 2.4.5 5.8.7 9.2l5-2.2 7.4 1c.8-.4 2.2-.6 2.5-1.2 1.1-2.6 2-5.3 2.8-8l1.5-5.2zm-43.5-6.8c-2.2 0-4.7-.8-6.4 0-1.4.7-2 3.3-2.9 5l-6.2 8.2 5.9 5.5h-3.7l-12.3-10.3c-2.5.5-5.1.8-7.6 1.5a16.8 16.8 0 0 0-3.6 2c-1.9 3.5-3.6 7-5.6 10.4-3.3 5.2 0 9.2 1.4 13.4l7.9-4.8c1.3.6 2.7 1 4 1.8 4 2.3 8.4 4.2 12 7 3.8 3 3.7 3.3 7.1-.3 1.4-1 3.8-2 3.8-3.3.2-2.7-.7-5.5-1.2-8.2 1-3.5 0-6.5-2.2-9.3l3.3.2 3 13c.5-3.4.3-7.1 1.6-10.2 2.3-5.3 5.6-10.2 8.4-15.2l6.8.8c-1-3.1-2-5.6-5.5-6-2.7-.2-5.3-.7-8-1.2zm-33 33.8c-1 .1-2.4-.2-2.7.3a68.3 68.3 0 0 0-3.6 6.4c-5.3 3.7-7.7 10.9-5.5 16.6 1.2 2.9 2.6 5.7 3.4 8.6 1.3 4.5 4.3 6.1 8.5 6.6l7.5 3.7c.6.9 1 2.3 1.8 2.7 3.4 1.4 7 2.4 10.2 3.6 3-2 3.2-4.5 3-7.4-.6-6.5-1-13.1-1.5-19.7.3-4.8-1.2-8.9-5.2-11.8a26 26 0 0 0-16-9.6zM183 412l-5.4-3.6-3.4 6-6.9 8.7c2.8 3.7 5.1 7 7.7 10.2.6.7 1.8 1 2.7 1.5l7.9 5.3c.8-.2 1.8-.1 2.3-.6l6.8-8.4-1.5-9.1c-.5-1.7-.5-4-1.6-5-2.7-2-5.8-3.4-8.7-5zm-22.2 51.4c-3.7-.9-6.9.4-9.6 2.8l-6 2.8c1.2 3.6 2.6 6.4 3 9.5.6 6.1.3 12.4.9 18.6.4 4.5 3.4 7.7 7 10.5l8.4 6.2c-1-3.7-2.8-6.7-4.2-9.9-3.2-7.5-6.2-15-1.2-23a49.4 49.4 0 0 0 2.9-6.4c2.7-2.7 5.3-5.7 10-4.7-3.7-3-6.4-6.5-11.2-6.4zm12-27c-2.5-.5-4.8-3.5-7.3-1-1.7 1.6-2.6 4-3.9 6a16.8 16.8 0 0 0-2.3 19 2.8 2.8 0 0 0 1.5 1.3c2.5.7 5 1.2 7.5 1.7l10 9 1.3-4.6c2.3-2.6 4.4-5.5 7-8 1.8-1.7 2.4-3.2 1.3-5.4v-5.4c-.3-1.5 0-3.8-1-4.3-4.6-3-9.5-5.6-14.3-8.3zm1.7 37.3c-8.2-3.1-8.3-1.9-11.4 6-3.9 5.5-6 11-2.5 17.7a78 78 0 0 1 5.4 12.6c1.3 4.4 4.2 6.2 8.4 6.6l2.4.7c2 1.1 3.8 3.3 6.4 1l1.4 1-2.3 2.8 11.6 2.8a3 3 0 0 0-1.7-1.6l-3.7-1.6c-1.2-.6-2.6-1.5-3.8-2.3l1.6-.2.8.2c.5-.9 1.5-1.8 1.5-2.6-.1-7.1-.4-14.2-.7-21.3l.7-10c-.5-1.9-.5-4.5-1.7-5.2-4-2.6-8.3-4.5-12.5-6.6zM156.3 622a41 41 0 0 0 5 0 57 57 0 0 0 47.3-43.9c2-7 3.1-14.4 4.4-21.6 1-5.1 1.4-10.3 2-15.5l-1-.2c-19.4 26.4-41.2 51.3-57.7 81.2zM13.7 545l.5 1.3A65.9 65.9 0 0 0 53 526.7c9.6-10.1 17.4-35.1 14-42.3zM219 617.3l-2.2-62.4c-6.4 29.5-5.5 28.7-21.2 53.1zM8.7 543.6c3.7.2 45.3-46.8 58.2-65.5a4.4 4.4 0 0 0-3 1.3c-1.6 2.2-2.8 4.8-4.6 6.8-8.7 9.6-17.6 19-26.2 28.6-7.2 8-17 13.9-21 24.5-.6 1.4-2 2.5-3.4 4.3zM110.5 451l-44 24 .3.9a15.2 15.2 0 0 0 3.7-.8l39-18.9c2.7-1.4 3.1-2.8 1-5.2zm2 6.3l-14 6.6 14 2c2.4.3 3.3-1 2.5-3.1-.6-1.8-1.5-3.5-2.4-5.5zm-3 40.2v-.9l-23.7-9.5-.7 1.5 21.4 9.5c.8.2 2-.4 3-.6zm49.1 16.2l-.4 1a49.6 49.6 0 0 0 20.5 7.6l.4-1zm-93.3 69.7a29.6 29.6 0 0 0-4.6-2.1c-.8-.3-2 .3-3 .6.4 1 .5 2.4 1.2 2.8 2.3 1.6 4.6 1.8 6.4-1.3zm4.4 2.1c3 5.2 5.1 5.9 7.8 3zm86.6-73.5c-3.8-3.9-6.6-4.9-10-3.7zm-87-33.3c0 4.6 3 3.8 5.3 4.5l.7-1.1zm15 6.5l-7.7-3c2.7 3.9 5.6 5 7.8 3zm-74.7 61l-1.3-1.7-3.4 3.2 1 1.4z"/><path class="c" d="M428.4 539.8a.2.2 0 0 1-.3.3c-1.7 0-3.5-.3-5 .2-10.2 3-20.5 6-30.7 9.4a118.4 118.4 0 0 1-44 5.7c-14.7-.9-24.8-9.1-24.8-25.5 0-10.5 3-20.4 6.3-30.2.3-.9 1.8-1.3 2.7-2l10.4.7c19.6 1 36.5 9.2 52.3 20 2 1.4 2.3 2.5.6 4.2l-14.6 15.5a26.3 26.3 0 0 0-1.8 2.6 46.4 46.4 0 0 0 18-15c6.5-8.7 12.2-17.9 18.1-26.9 2-3 4.5-3.2 7-.7 6.2 6.5 11.1 14.4 19.4 18.8 1.5.8 2.6 2.2 3.8 3.3-4.8 1.2-9.7 2.3-14.5 3.7-.8.2-1.3 1.5-2 2.3l-1.6.7a2.4 2.4 0 0 0-.7.1l-1.5 2.2c.5 2.4.8 4.8 1.4 7.1a24.5 24.5 0 0 0 1.5 3.5z"/><path class="d" d="M214.8 731a209 209 0 0 1-45.2-27c-3.6-2.8-6-3-9.5-1-2.2 1.3-5.4 1.6-3.6 5.2-2.5-.5-5-.5-7-1.6a9.2 9.2 0 0 1-4-5c-.8-3 .7-5.6 3.9-6.7 27.4-9.7 54.7-19.5 82.2-29 28.6-10 57.2-19.5 85.8-29.1l140.2-47.2c4.7-1.6 9.6-2.3 14.4-3.4-3 1.5-6 3.3-9.2 4.4l-110.3 37.3-99 33.4-2.5 1.1 3.5 4.7a5 5 0 0 0 1-.2c17.8-5.8 35.5-11.8 53.4-17.4l71.1-22.2c18.1-5.6 36.2-11.3 54.2-17.2 11.2-3.7 22.2-7.8 33.3-11.8v1.3a667.3 667.3 0 0 1-84.8 30.2c-28 7.8-55.6 17-83.3 25.7-15.5 4.9-30.8 10.2-46.2 15.4l-5.5 2 8 3.4c7.2 3 14.5 6 21.6 9.3 3.3 1.5 6.3 3.7 9.5 5.6-4.1 2.2-8.1 4.8-12.4 6.7Q245 711.2 215.7 724a4.6 4.6 0 0 1-3.2.1c-3.6-1.3-7.1-2.8-10.7-4.3l-2.4-.8a96.9 96.9 0 0 0 11.7 8.8 3.2 3.2 0 0 0 2.6-.1c16.4-7.7 32.7-15.6 49.2-23 8.8-4 17.9-7.5 26.8-11.3-1.5 1.2-2.8 2.6-4.5 3.4l-59.7 28c-3.7 1.8-7.1 4-10.7 6zm9.8-27c-1.9.8-4 1.3-5.6 2.6a4.5 4.5 0 0 0-1.4 3.7c.2.8 2 1.5 3.3 1.7a42 42 0 0 0 5.8.2c-2.5 3.1-7.9 3.7-10.8 1-2.8-2.4-2-5.3 2.4-10.1-2.7-4.8-1.5-6.5 5.3-7.7-4.5-8.3-11-2-16.8-2.8l5.3-3.4c-2.8-2.8-5.7-3.2-9.6-1.8-9.4 3.5-19 6.5-29.7 10 12 8.3 23.1 16.2 34.4 23.7a8.8 8.8 0 0 0 9.6 0c3.3-1.8 7-3.3 10.4-5l9-4-5.2-2.2c.9-2.5 2.2-2.5 4.5-1.5 1.6.7 3.9-.2 5.9-.3l-1.4-4.3c2-2 6.5-2.4 7.3-6.8-5.8-3.3-9 3.4-14.2 3a37.7 37.7 0 0 0 3.5-4.2 4.8 4.8 0 0 0 .5-3c0-.5-1.6-1.2-2-1a8.3 8.3 0 0 0-2.6 2.2c-.4.3-.3 1-.5 1.5l-8-5.5-1.2-.1.8.6 6.3 7-10 1.5-.2 1a26 26 0 0 1 2.8 1.8 17.3 17.3 0 0 1 2 2zm58.9-13c-10.9-4.5-21-8-30.5-13a20 20 0 0 0-18.9-.7c-6.3 2.7-13 4.5-19.3 6.6 5 4.6 10.6.3 17 .7l-6 3.4 4.6 4c6-4.7 8.6-4 10.5 3a8.1 8.1 0 0 1 2.9-.7c2 .2 4 .8 6 1.3l-1.6 6.1c-.3.7-1.5 1-2 1.8a36 36 0 0 0-1.8 3.7l1.2 1c12-6.8 25.6-9.4 37.9-17.1zm-126.8 10.7c6.1-2.2 11.4-5.6 17.5-7.5 15-4.5 30-9.6 44.8-14.6 8.9-2.9 17.7-6 27.1-9.2-2.9-2.3-4.4-5.2-8.3-3.8L172.5 690c-5.9 2-11.8 4.4-17.7 6.6zm12.1-2.7l-.5 1.6 29.9 19.2-.3-1.9-26-18.2c-.8-.6-2-.5-3-.7zm-14.3 2.7l-4-4.4c-.8 1.3-2.3 2.7-2 3.8.2 1.4 2 2.4 3 3.6zm97-33.6c-2-4-3.9-4.7-7.2-3 4.2 3.8 4.2 3.8 7.3 3z"/><path class="e" d="M467.5 599.6v-1.3c2.7-.8 5.3-1.4 7.9-2.5a3.4 3.4 0 0 0 1.6-2.5c0-3.1-.2-6.2-.4-9.3a27.6 27.6 0 0 1 16.7-8.3c7.9-1.3 15.7-3 23.4-4.5l-3.6-2.3a12.7 12.7 0 0 1-3.3-18.6c3-4 7-6.6 12-6.8 5.2-.2 5-.2 9.1-3.6a27.3 27.3 0 0 1 26.7-5.4c5.7 1.8 5 7.2 5.9 11.4.5 2.2-.4 4.7-.7 7.4l2.7-1.1a55.3 55.3 0 0 1 29.6-6.4 26 26 0 0 1 7 1.4c5.4 2 7.5 6.2 6.4 12h6.1c4.2.2 6.6 3.2 4.7 6.8a31.4 31.4 0 0 1-8.3 10.3 59.3 59.3 0 0 1-29 9.8l-4 .3 4.6 2.7c4.6 2.8 5.2 5 3 9.8a20.7 20.7 0 0 1-26.5 11c-2.4 6-7.3 9-13.3 10.7-5.5 1.7-10-.3-12-5.7-2.3-6-1.2-12 .3-18a8.7 8.7 0 0 0 .4-4.3l-3 3.2a49.8 49.8 0 0 1-21.5 14.6 21.8 21.8 0 0 1-23-6.7c-.6-.6-1.5-1.7-1.9-1.5-4 1-4.9-2-6.2-4.6zm95.4-13.4l-1.6-1.2-9.5-3.4-.3 2 .9 1.4a1.4 1.4 0 0 0 0 .4c-1 1.3-2.4 2.5-2.9 4a102 102 0 0 0-3.7 12.4c-.6 2.7.9 4 3.7 3l2.2-.6c-1.8 1.1-3.6 3-5.4 3-1.2 0-3.1-2.8-3.3-4.5a17.3 17.3 0 0 1 1.5-8c2-4.5 2.9-9 1-13.6l-1-4-6 2.7 4.4 1.3c-2.2 6.3-4.7 12.6-6.4 19-1.4 5.1-1.7 10.5.7 15.5 1.9 4.2 3.8 4.9 8 3 5.6-2.6 10.6-5.9 12.6-11.5 1.8.7 3 1.8 4.2 1.7 8.6-.7 17.6-.8 20.9-11.5.8-2.7.9-5.2-2.1-6.2-5.9-1.9-11.9-3.4-17.8-5zm-12-12.8c.4 3.9 2.2 6 6.4 5.1a12.8 12.8 0 0 1 3.3.2l-3.3 2.2c14.8 4.6 29 3 42.8-2.2 4.2-1.6 8-4.4 12-6.8a4.7 4.7 0 0 0 1.5-2.4c.4-1.2.4-2.6.9-3.8a26.7 26.7 0 0 1 2.4-3.7h-11.4c2.5 4 .7 6.5-2.4 8.4a33 33 0 0 1-5 2.4c-9.9 3.7-20.1 4.8-30.6 4.5-2 0-4.1.9-6.2 1.3l-10.5-5.2 2.7-3.8c-8.5 0-14.8 4.4-21.4 8a18.3 18.3 0 0 0 6-.5c6.7-1.6 6.7-1.6 9.6 4.6l1.1.8.7-7.2c.2-.6.9-1.2 1.3-1.9zm-20.2 6.8c-2.3-.3-4.7-.9-7-.6-8.5 1.1-17 2.6-25.4 3.9 5.7-4 12.2-5.2 19-5 4 .1 9.2-1.3 11-4.2-7.1.4-14 .3-20.7 1.1-6 .8-11.9 2.5-17.8 3.8-2.6.5-3.4 2.3-3.4 4.7-.2 5-.7 9.9 1.5 15 3.2 7.6 9 11.8 17 10a51 51 0 0 0 28-19c2.3-2.8 4.6-5.7 3-10.4zm72.8-16.2l-12.3 1c1.6-1 2.6-1.3 3.2-2 1.3-1.4 2.4-3.1 3.6-4.7-1.8-.7-3.7-2.2-5.4-2.1a91.5 91.5 0 0 0-32 8.4 10.3 10.3 0 0 0-1.5 1l5.8.7-9 6.1v1.2c3.5.5 7 1.3 10.4 1.3 10.4 0 20.7-1 30.5-4.6 2.7-1 5.5-2 6.7-6.3zm-57.4-1.8c1.8-3.4 4-6.9 5.5-10.6 1.9-4.7-.5-7.8-5.6-7.1a55.6 55.6 0 0 0-11.1 2.8c-3 1.1-5.7 3.1-9.3 3-1.4-.2-3.2 1.3-4.2 2.6-2.5 3-2.3 7.6 0 10.8 1.9 2.6 8 4.3 11 3.3 2.5-.8 5-1.4 8-2.2-.1.3 0 0 0-.2l.5-6.2zm2 1.3c2.6-1.2 4.7-1.7 6-2.9a25 25 0 0 0 7-13.3c.7-3.1-1.8-9.4-4.6-10.2-9.2-2.5-18.2-2.5-25.2 5.3a25 25 0 0 0-2.4 4.2l.9 1 4-1.7c3.8-1.4 7.5-3.4 11.5-4 8.3-1 11.8 4.3 8.4 12-1.3 3-3.3 5.7-5.5 9.5zm52.6-2.3c4.8 0 6.5-2.5 5.1-6.7s-5-5.5-8.9-5.6c-5.4-.2-11-.3-16.3.9a41.7 41.7 0 0 0-23.6 11.4c-.8.9-1.2 2.1-2 3.6h1.8l2.2-1.4a75.5 75.5 0 0 1 34.5-10.2c5.6-.3 7.5 2.1 7.2 8zm-73-13.2c-5.7-5.7-17 2.3-17.4 8.5-.3 3.7.2 6.8 3.3 9.4 6.5 5.5 14.1 7 22.4 6 .5-.1 1-.6 1.4-.9v-1.3a28.6 28.6 0 0 0-5.6-.3c-9 1.3-15.1-4.2-14-12.6.7-5.2 2.5-7 10-8.8zM484 580.8c-1.7 1.6-3.2 2.5-4 4-2.3 4-.7 9 4 13z"/><path class="c" d="M452.6 512c-1.9-5.7-3.5-11.4-5.5-17-1.4-3.8-.4-5.3 3.5-5.6a154.4 154.4 0 0 0 18.8-2.6 188.8 188.8 0 0 0 24.3-6.6c4.1-1.5 7.9-4.7 11.2-7.7 6.5-6 13.3-5.7 20.6-2 4 2 7.7 4.8 11.9 6 4.7 1.3 9.8 1.3 14.8 1.7l11.5.7c2.7.2 3.8 2 2.4 4.4a23.8 23.8 0 0 1-18.9 12c-7 .6-14.1-.5-21.2-.5-4.5 0-9 .5-13.4.8l-1.7 2h-.4c-2.8.6-5.8.7-8.2 1.8-8 3.8-15.7 8-23.6 12l-1.4-3.1-5.2-8.4c-2-2-3.5-2-4.6.8l-1.3.6c-1 .4-2.4.5-3 1.2-3.2 4-6.2 8.3-9.2 12.5z"/><path class="f" d="M309 649.4c-17.9 5.7-35.6 11.7-53.4 17.5a5 5 0 0 1-1 .1l-3.5-4.6 2.5-1 99-33.5 110.3-37.3c3.2-1 6.1-2.9 9.2-4.3l4.6-2.3c.1 3.1.4 6.2.4 9.3a3.4 3.4 0 0 1-1.7 2.5c-2.5 1-5.2 1.7-7.8 2.6-11 4-22.1 8-33.3 11.7"/><path class="g" d="M335.6 482.6v-.4c2 .4 4.1.7 6 1.3a215 215 0 0 1 14.1 4.5c2.6 1 3-.2 3.2-2.2l4.6-2.5c1.5 0 3.5-1 3.7 1.7l.7.9a24.4 24.4 0 0 0 3.5-1 36.7 36.7 0 0 1 18.1-3.8c3.9.2 7.7 0 11-2.7 1.6-1.3 3.7-2 6-3 2 3 3.4 6.2 5.8 8.7 4.2 4.5 4 8.6.7 13.5-4.7 7.2-9.1 14.7-13.8 22.4-11.3-14.9-43.8-26-66.7-23.6 0-1.2-.5-2.5-.2-3.5.7-2.4 1.7-4.6 2.6-6.9z"/><path class="h" d="M463 84.8l-2.2-.4-1.6-7.5c1.4-9.5 1.7-19 6.8-27.7 4-6.8 9.2-12.3 16.5-15.6s12.8.7 14.3 9.7c1.7 11-.4 21-7 30a3.9 3.9 0 0 0-.4 2 37.1 37.1 0 0 0 5.2.7c3 0 6-.2 9-.4 9-.6 17.8-.1 26.2 3.3 9 3.7 11.1 12.3 4.6 20-2.7 3.1-6.5 5.3-9.8 8l-2.6.9-18.4 3.6-6.8.7-4.7-1.3c1.4 3 2.7 5.2 3.6 7.6a52.2 52.2 0 0 1 2.1 7.9c1.2 6-1.7 9.9-7.7 10.7l-8.2 1.1a32.7 32.7 0 0 1 0 4.2c-1 7.7-2.2 15.3-8.3 21a11.5 11.5 0 0 1 .5-2.2 53.7 53.7 0 0 0 4.7-22.7c0-1-.3-2.4-1-2.9a39.4 39.4 0 0 1-12.5-13.6l1.3-6c2.6 6.3 6 12 12.3 15.9a130.9 130.9 0 0 0-3.8-19.1c-1.4-5-3.1-10-9.2-11.2l-.4-3.6 17 6.4.8-1.4-15.7-11 4.5-4.3-.8-1-6.6 3.8-.7-2.1c3.7-2 7.3-4.3 11-6.2 3-1.4 6.5-2 7.6-5.7l.7-2c1-.6 2.2-.8 2.8-1.6a34.8 34.8 0 0 0 6.1-32.4c-1.4-4.5-3-5.5-7.4-4.5-1.5.3-2.8 1.5-4 2.4-13.9 9.5-17.6 23.6-18 39.3l-.4 1.7zm37.6-4.8l-15.7 2.2-14.6 8 17.7 15a7.4 7.4 0 0 0 2 1c7 2.7 14.1 1.5 21.2.3 3-.6 6-2 9-3.1l3-1a38.5 38.5 0 0 0 6-2.8c3.4-2.4 6-6 5.6-10.3s-3.8-6.4-7.5-7.8a17.7 17.7 0 0 0-5-1.2c-5.8-.3-11.5-.3-17.2-.4zm-24 27l-.3-.3.3.2c2.5 8 5.6 16 5.3 24.6 0 .8 1 2.2 1.5 2.2 3.1 0 6.8.6 9.2-1 1.5-1 1.2-5 1.5-7.7a6 6 0 0 0-.4-2.2c-2.6-10.2-7.9-15.1-17.1-15.9z"/><path class="i" d="M508.6 308.9c-3-8.7-6.4-17.3-12.3-24.6-1.7-2.3-2.6-5.2-3.8-7.8 10.5 10.1 21.3 20 31.4 30.4 8.2 8.6 13.3 19 11.7 31.2-.9 6.6-4 13-6.1 19.4-.2.8-2 2 .3 2.3l-5.9 5.6-.8-1-6.8-3.7c.7-9.8 2.3-19.4 1-29.3-1.1-7.3-2.7-14.4-6.2-21-.4-.7-1.7-1-2.5-1.5z"/><path class="j" d="M521.5 218.6l1-11.2-1-.2-2.1 8.8a89 89 0 0 1-24.6 44.9 32.1 32.1 0 0 1-4.3 3.5c-.4.3-1.4-.3-2-.6 3-4.9 6.5-9.6 9.2-14.7 11-20.6 14.6-43.7 22.2-65.5.2-.7-.3-1.6-.5-2.4l6.1-33c3-16.4-2.6-26.4-18-34.8l-4-2 18.4-3.7c1.4 5.4 3.1 10.8 4.1 16.3 2.9 15.7 3.1 31.5 1.7 47.4"/><path class="d" d="M459.2 77l1.6 7.4v.1a7.5 7.5 0 0 1-1.2-1.4A47 47 0 0 0 433 59.8c-11.8-5.2-38.1-6.6-42-3.5l4.2 1.8-1.1 1.5-12.2-3.9-1.7 5.5-.9-.2-.6-5.7a77.2 77.2 0 0 0-33.2 1.9c-6.6 1.8-12.8 5-19.2 7.5l-2.8 1 3-4.3.8-.4c15-8.3 31-10.6 47.8-9.1l3.4.3c-2.2-14.6-7.9-27-19.5-36.1s-25.3-10.2-39.7-8.3c8-7 23.1-10.6 36.5-5 9.9 4 17 11.3 21.7 20.7 4.7 9.3 6.7 19 4.5 29.3a13.3 13.3 0 0 0 10.3 1 67 67 0 0 1 32.6.3A51.8 51.8 0 0 1 459.3 77zM325.8 4.7c27-2.1 43.4 10.9 53.2 35-2.3-23-24.6-44.2-53.2-35zm53.7 35.6l-.3.8c0 .2.3.2.4.4z"/><path class="a" d="M454 515c3.1-4.2 6.1-8.4 9.3-12.5.6-.7 2-.8 3-1.2-3.4 5-6.9 10-10.1 15.2-.8 1.2-1.8 3 .9 3.7l.7 2.1c.6.3 1.4 1 1.9.8 5.4-2.3 11.2-4.3 14.7-9.6 1.8-2.8 2.2-5.6 0-8.6-1-1.4-1.6-3.3-2.3-5l5.3 8.3 1.4 3.1c7.8-4 15.6-8.1 23.5-11.9 2.5-1.2 5.5-1.2 8.2-1.8-8.9 4.7-17.9 9.2-26.7 14-4.2 2.3-8.1 5.3-13 8.6l16.6 7a10.4 10.4 0 0 1 3.6 2 27.1 27.1 0 0 1 2.8 4.3l-3.3 2-3.4 2.6 3 3.7-1 .2c-3-1.1-6-3.4-9-.4a34.7 34.7 0 0 1-5 1.3 3.4 3.4 0 0 1-2.7-1l-12.3-14.8-3.2 2.6c1.1 3 2.7 5.6 3.2 8.4 1 5.4 1.2 11 1.8 16.5l.1 1.5c-.5 2.2.4 2.8 2.6 3.1a114.1 114.1 0 0 1 12.6 2.8 49.9 49.9 0 0 1 5.9 2.4l1.4-3.5 6.5-17.1c.6 1.4 2.2 3 1.9 4-2 5.7-4.3 11.2-6.6 16.7-.8 2-2.1 2.4-4.2 1.9-7.5-2-15-3.7-22.5-5.5l-.5-6.4-22.5 1.8 1.7-14.2-9.8-2.4a24.3 24.3 0 0 1-1.4-3.5l-1.5-7.1 2.3 1.5a6 6 0 0 0 0 .7c.2 4.4 3 6.1 6.8 6.8l.8.8c.8.5 1.5 1.3 2.3 1.4 4.1.3 11.6-4.8 13.3-9l.8-.7.8-.9v-1l-2.4-4.8-2.2-1.5a10.2 10.2 0 0 0-3.1-.3l-15.7 4c.6-.8 1.1-2 2-2.3 4.8-1.4 9.7-2.5 14.5-3.7l2.5-.8 4.3-2.9zm-13.3 39l1-.1 11.9-1.5 1.8-.7c1.6-.5 4.4-.2 3.8-2.9-1-5.1-2.5-10.2-4-15.3-.1-.5-1.4-.7-2.1-1l-.6 2-.8 1.5-8 6h-1.3c-.5.2-1.5.3-1.6.6q-1.2 5.2-2.1 10.4c0 .2 1.3.6 2 1zm23.9-26c.2.7.2 1.6.6 2a103.7 103.7 0 0 0 8.2 8.8c.7.7 2.7 0 4.2 0h.2c3.8.3 6.2-2.2 8.7-4.5 3.4-.9 1-2.4 0-2.8-5-2.7-10.3-5.3-15.6-7.6-1.5-.6-3.5 0-5.3-.1L463 525zm-12.3-5.6l.4 1 1.9-1-.6-.9a14.8 14.8 0 0 0-1.7.9z"/><path class="h" d="M326.6 61.4l-3 4.3-5 3c-3 1.5-6.4 2.8-9 4.8-4.9 3.6-9.3 7.8-13.8 11.7l-10.6 4.4c-3.7-.4-6.4 1.5-8.7 4s-4.6 5.5-7 8.2L276 90l-3.5-6.4c1.9-5.6 6.4-8.9 11.5-12.5l-4.4-1-2.5-2.3c-5.3-5-2.9-8.2 3.3-11.1a23 23 0 0 1 16.2-2.4c1 .3 2.3-.3 3.6-.6-2.2-3.2-4.4-5.9-6-8.9a9 9 0 0 1 3.7-12.7c7-3.9 14.5-3.2 21.7-1 4.8 1.4 6.1 6.2 7.8 10.2a21.8 21.8 0 0 1 .8 3.3v8.2l-.7 4.5v.1zM300.3 77c-5.4 2.6-11.2 4.5-15.3 9.2a25 25 0 0 0 15.3-9.1zm9-21L320 64c.7-.2 1.9-.2 2-.7a31.7 31.7 0 0 0 2.9-17.7c-.9-5.8-3.3-11.2-9.5-12.6a21.3 21.3 0 0 0-16.9 2.8c-2.3 1.6-3.9 4.2-2.2 6.4 3 3.8 6.7 7 10.2 10.5zm-29.4 9.7l3 1.5 5.3 1.5c7.2 2.5 19 1.4 30-3l-14-6-6-1.5-7-.2c-4 .8-8.3 1.1-12 2.6-3 1.2-2.5 3.3.7 5.1zm28.4 5.7l-.4-1-10.2 1.4c-3.4.4-7-.6-9.7.8-4 2.1-7.5 5.5-10.9 8.7-.8.8-1 3.5-.3 4.3 1.5 1.6 3.2 1 5.3-.3 5.4-3.6 11-7 16.8-10.2 2.9-1.6 6.2-2.5 9.4-3.7z"/><path class="a" d="M358.9 485.8c-.2 2-.6 3.1-3.1 2.2a215 215 0 0 0-14.1-4.5c-2-.6-4-.9-6.1-1.3l-8.6-5 .4-1.2-2 1.2-.6-2.3-13 8.1-2.4-2.8-.1-9.3-.8-1.8-2.1-2-2.2-3.8 3.6-.1 2.8 3.4 1-4.9a69 69 0 0 1 3.5-17l1.2.3-3.8 23.8 14.7 3c3.1-10.1 6.8-20 9.2-30.4 2-8.3 2.4-17 3.7-25.5a72.6 72.6 0 0 1 2.1-7.8l1.1.3c-1.8 20.7-3.4 41.5-12.5 60.8l-1.2 3.7c1.4 1.8 2.4 4.3 4.3 5.2a131 131 0 0 0 15.3 5.7 54.1 54.1 0 0 0 7.5 1.4 13.7 13.7 0 0 0 .6-1.4l.7-2.9c3.4-11.3.8-22.5-.3-33.7-.8-8.4-1.7-16.9.5-25.3h1.1c1 12.2 1.6 24.3 2.8 36.4a58 58 0 0 1-1.6 24.4zm-47-6.4l10-6-10-2z"/><path class="d" d="M277 67.8l2.5 2.3a76.7 76.7 0 0 0-19.2 28.6l-.4.8-.5 1.4c-1.6 5.2-3.5 10.4-4.8 15.7-5 19.7-4.1 40-6 60.1C247 193 246 209 238.9 224c-5.4 14-14 26.8-14.5 43l5-3 .4.5-6.7 7.8c-.6-1.2-1-1.7-1-2 .3-14.7 5-28.2 12.2-40.7 6.8-12 9-25 10.4-38.4 2.3-22 3.8-44 6-66S261 83.6 277 67.8z"/><path class="a" d="M335 486c-1 2.3-2 4.6-2.7 6.9-.3 1 .2 2.4.3 3.6v1.2c-1 .6-2.4 1.1-2.7 2a94 94 0 0 0-6.4 30.1c0 16.4 10.1 24.6 24.8 25.6a118.4 118.4 0 0 0 44.2-5.7 1260 1260 0 0 1 30.6-9.4c1.6-.5 3.4-.1 5-.2-12 4.3-23.7 9-35.8 12.8a115.2 115.2 0 0 1-42.6 5.4A47.5 47.5 0 0 1 333 554c-3.6-1.7-6-5.7-8.8-8.8-5-5.6-4-12.5-3.4-19a103.1 103.1 0 0 1 10.5-37.2 35.5 35.5 0 0 1 3.5-4.8z"/><path class="d" d="M471.9 299l-.5-1-.1-2.4-.9-1.9-1.2.8c-.3-.8-1-2.2-.7-2.3 2.2-1.7.8-3.3.1-5-3.3-8-6.9-16-9.9-24.2-5.5-15.2-10.8-30.5-16.1-45.8a21.1 21.1 0 0 1-.6-4.3c6.6 17.4 13.5 34.4 20.5 51.4 6.7 16.4 14.7 32.3 16 50.4a108 108 0 0 1-11.7 60l-.4.5.4-.5 1.4-.4.1 2-5.4 2.2c12.8-22.6 14.5-46.6 11.3-71.4z"/><path class="k" d="M286.1 319.2c3.5-4.3 3.9-3.9 8-.2 2.5 2.3 6.4 3 10.7 4.7 0 1.7-.4 4.9.1 7.9 1.2 6.3 3 12.5 4.4 18.8a32.8 32.8 0 0 1 .3 8c0 .7-1.3 2-1.9 2a3.6 3.6 0 0 1-2.6-1.9c-1-2.5-1.4-5.3-2.3-7.8-.5-1.1-1.6-2-2.5-2.9l-.7-.1-.8-4.5v-3.7h-.6v8.2a1.8 1.8 0 0 1-.4 0 27.6 27.6 0 0 1-2.2-3.6c-2.3-5.2-4.5-10.6-6.7-15.9l-2-8z"/><path class="a" d="M520.1 218.2c1.6-15.7 6.2-31 7.6-46.8s1.2-31.7-1.7-47.4c-1-5.5-2.7-10.9-4-16.3l2.6-.9a98.8 98.8 0 0 1 6.6 31.7c1.8 27.5-5.7 58.4-11 85.2"/><path class="j" d="M282.6 328.8c-.6 1.8-1.6 3.6-1.6 5.5-.3 5.8-.1 11.6-.1 18.2l-15 .6-3.2-11.5 20.9-19.7z"/><path class="d" d="M529.9 359.8c-2.5-.4-.6-1.5-.4-2.3 2-6.5 5.2-12.8 6.1-19.4a37.4 37.4 0 0 0-11.7-31.2c-10-10.5-20.9-20.3-31.4-30.5l-.9-3c11.8 10.9 23.9 21.5 35.2 33a41 41 0 0 1 12 30.5 36.6 36.6 0 0 1-9 22.9z"/><path class="f" d="M289.8 693.5c-9 3.7-18 7.2-27 11.2l-49.1 23a3.2 3.2 0 0 1-2.6.2 96.9 96.9 0 0 1-11.7-8.8l2.4.8c3.6 1.5 7.1 3 10.7 4.3a4.6 4.6 0 0 0 3.2-.1q29.4-13 58.7-26.2c4.3-2 8.3-4.5 12.4-6.7z"/><path class="l" d="M490.8 543.9l-6.4 17.1c-2.2-.3-4.5-.5-6.7-1l-15.8-3.8-.1-1.4 20.4 3.5 3.4-8.4c1.1-2.5.9-4.2-2-5.3-1.3-.6-2.4-2-3.6-3 3.1-2.9 6-.6 9 .5l1.8.6v1.2z"/><path class="a" d="M287 320.1l2 8a24.2 24.2 0 0 0 .5 4.9l8.6 26.6v1.5l-.7.5a53.5 53.5 0 0 1-10.3-28.5c-.5-4.2-.1-8.7-.1-13zM310.8 515.7l-2.3-4.5.4-18.8h2.6z"/><path class="d" d="M269.6 391.4l1 1.5-1.8.6c-2.8-1.3-6-2.7-8.5-.4-3 3-5.3 6.7-8 10.1l-.8-.8c.1-4.5 3.2-7.3 6-10 3.4-3.3 8-3.5 12-1z"/><path class="b" d="M311.5 492.4h-2.6l.5-12.2 2.3 2.8v1.2l-.2 5.2z"/><path class="d" d="M235 257l-5.1 7.4-.5-.5 3.7-7 1.2-1z"/><path class="m" d="M471.9 299l2.4 8.1h-1"/><path class="a" d="M311.5 489.4l.2-5.2z"/><path class="f" d="M328.2 53v-8.3V53z"/><path class="d" d="M300.9 368.7l1.5-.7 1.1 3.5-.2.2-1.2.1z"/><path class="b" d="M335 486l-.2-2 .8-1.4zM510.9 497.6l1.7-2v1.6z"/><path class="f" d="M327.4 57.4l.8-4.4zM326.6 61.4l.8-3.8V61z"/><path class="a" d="M235 257l-.7-1 .4-.9.9.9z"/><path class="b" d="M490.9 542.7l-2-.7h1.2z"/><path class="a" d="M490.8 543.9zM302.1 371.8h1.2"/><path class="d" d="M214.8 731h.1z"/><path d="M167.5 589L148 616.2c-4.8-2.2-10.3-4.3-15.4-7-21.4-11.8-42.7-23.9-64.2-35.6-15.9-8.6-32-16.9-48.7-25.6a69.3 69.3 0 0 0 37.9-22.1C67.8 513.8 70 499.5 70 483.4c7.3 3.9 13.9 7.5 20.6 10.8s13.7 6.4 21.5 7.4l-.8-2.2a3.9 3.9 0 0 1 1.3 0c2.9 1.1 5.8 2.4 8.7 3.4l20.4 6.3c4.4 1.4 8.7 3.1 12.2 4.4 1.3 1.7 2 3.3 3.2 3.9 6.2 2.7 12.6 5.2 19 7.8a2.5 2.5 0 0 0 1.4 0c7-2 13 1.2 19 3.7l10 4a1.7 1.7 0 0 0 .6.4l1.5.5-.8 3.6v.3a11.8 11.8 0 0 0-2.3 1.8L175 579.2l-.8 1-.7.8-.6.7-.1.1-.6.6-.1.3-.9 1.2-.6.8h-.1l-.6.7a.7.7 0 0 0-.2.6l-.7 1-.7.7z" fill="#f0e1a0"/><path class="k" d="M478.4 314.7c-1.2-18-9.1-34-15.9-50.4-7-17-13.9-34-20.5-51.4a21.1 21.1 0 0 0 .6 4.3c5.3 15.3 10.6 30.6 16.2 45.8 3 8.2 6.6 16.2 9.8 24.3.7 1.6 2.1 3.2 0 4.9-.3.1.4 1.5.6 2.2a80 80 0 0 1-6.8 53.5c-3.8 8-9.6 14.9-14.6 22.2a36 36 0 0 0-2.3 3c-4.5 8.5-12.7 10.8-21.2 12.9a7.5 7.5 0 0 1-1.8 0c3.7-5.6 7.8-10.8 10.8-16.6 10.5-20 16.9-41.2 14-64-2.2-16.8-5.8-33.4-8.5-50.1-1-6.5-1.2-13-1.8-20.1-.6 1.8-1.8 3.6-1.7 5.2.7 7.8 1.3 15.7 2.7 23.4 3 15.8 7 31.3 7.3 47.6.3 14.7-2 28.7-9.5 41.3-5.4 9-12 17.1-18.2 26l-3-12 .6-.4c.7-.3 1.8-.5 1.9-1a15.8 15.8 0 0 0 1-4.8c0-8.5-.3-17.1 0-25.7a16.7 16.7 0 0 1 2.1-7.7c3.8-6.5 8.3-12.6 12.1-19.2 6.3-10.9 7.2-22.5 1-33.5-3.3-6-9.5-9.8-16.6-11-5.9-1-11.8-1.6-17.7-2.4a4 4 0 0 1 .4-.5c15.5-4.4 25-15 28.4-30.1 1.9-8.2 1.3-17.1.9-25.7-.7-13.9-2.1-27.8-3.3-41.7v-2.8l5.6-.2-1-5.8 4.4-.6-.2-.9H430l-.7-10.5.7-.6a9.6 9.6 0 0 1 2.2 1.2c1.3 1.2 2.9 3.9 3.5 3.6a12.8 12.8 0 0 0 5.6-4c.8-1.2.5-3.3.6-5l.2-1.1c1.8-1.8 4-3.3 5.3-5.3 1.9-2.6.2-3.8-2.5-3.9a14 14 0 0 1-3.3 0 5.7 5.7 0 0 1-2.7-2.3c3.3-1 7 .2 7.9-4.8.5-3.3-.8-4.6-3.8-6.2l5.1-5 12.7-13h.8a28.5 28.5 0 0 1 .4 3.5c0 3.1-.7 6.3-.1 9.3 1.1 5.3-.2 9.9-2.3 14.5a69.7 69.7 0 0 1-23 28 3.8 3.8 0 0 0-.7 1l.1.8.8-.7 6.7-2.2-.7 7.4a100.5 100.5 0 0 0 16 64.9c7.1 11.1 14.5 22 21.8 33.2a37.7 37.7 0 0 1 2 3.6c2.5 5 2.3 6.3-1.6 10.4l-3.5 4.2.6.9 3.8-2.5 5.4-3.1c1.2 6.3 2.8 11.8 3.4 17.4 2 15.6 0 31-2.4 46.5-1.5 9.5-3 19-8.1 27.3l-1.3 1.8a7.2 7.2 0 0 1-.7-2.2c.7-12.9 1.5-25.7 2-38.6.1-2.1-1.1-4.3-1.7-6.5z"/><path class="g" d="M400 147.4c.7 3.1 2 1.3 2.4.2 1.6-4 3-8.2 4.4-12.3a25.6 25.6 0 0 1 1.4-4.3c0 7 .5 14.2-.2 21.3-.3 3.2.6 4.2 3.2 4.9l1.8.5c2 .4 4.9.2 5.7 1.5 1 1.4.4 4 .2 6.1-1.2 12.8-2.3 25.6-3.7 38.4-.5 5.5-4 9.2-8.4 12.5-21.8 16-63.5 18.5-88.3-1.5a33.4 33.4 0 0 1-13-26.8c-.2-6.9-.8-13.7-1.4-20.6-.1-1.6-1-3.2-1.6-4.9l-.7-4.5c1.8 1.3 3.6.8 3.3-1.4a87.8 87.8 0 0 1 2.6-30.3l1.3-.1.3 24.3.5 5.4c5.8-2.1 11.2-4 16.6-6.1 1.2-.5 2.7-1.5 3-2.6.7-2.3.7-4.9 1-7.3a114 114 0 0 1 11.3-39.4l2.3-3.8c-1.5 15-3.2 29.5 3.7 43.5v-6.2l.6-7.5h1.5c2.3 5.4 4.5 10.8 7 16 .3.8 2 1.2 3.1 1.3l24.8 3.4 3.1.3-2.6-3c-4.3-9.7-6-17-4.3-20.3 1.4 3.7 2.3 7.6 4.3 10.8 2.7 4.7 6.2 9 9.4 13.3l2.4 3.2 2.5-5.4zM336.4 173l-11.3 9.7a24.4 24.4 0 0 0-3.8 4.4c-.5.7-.2 1.8-.2 2.8 1-.2 2 0 2.7-.5 6.2-4.8 12.4-9.6 18.4-14.6 3.4-2.8 3-5.4-1.2-6.7-7-2.1-14.2-3.9-21.3-5.4-1.5-.4-3.3.8-5 1.2 1.2 1 2.2 2.5 3.6 3 5.8 2.2 11.7 4 18 6.1zm49.6 1.3l5.5-3.4c4.2-2.5 8.5-4.8 12.5-7.4 1-.7 1.3-2.5 1.9-3.7a23.3 23.3 0 0 0-4.2-1 4.8 4.8 0 0 0-2.3 1.1l-17.7 11.3c-2.6 1.7-2.6 4 0 5.6 5.7 3.4 11.4 6.8 17.2 10 2 1 5 3.5 6.5.8 1.7-3-2-4.4-4.1-5.5-4.8-2.6-9.8-5-15.3-7.8zM353 209.8c1.2 3.7 3.2 6.2 6.3 5.8 2.6-.3 5-2.5 7.4-4 .3-.2-.4-1.9-.6-2.9-.8.3-1.8.3-2.2.8-3.5 4.2-4.1 4.3-8.7 1.2a14.2 14.2 0 0 0-2.2-1zm-4.8-66.6l1.2-1-1.4-.4z"/><path class="l" d="M360.5 482.7c2.6-8 2.5-16.1 1.6-24.4-1.1-12-1.9-24.2-2.8-36.4l-.7-1.2-.4 1.2c-2.2 8.4-1.3 16.8-.5 25.3 1.1 11.2 3.7 22.4.3 33.7l-.7 2.9a13.7 13.7 0 0 1-.6 1.4 54.1 54.1 0 0 1-7.5-1.4 131 131 0 0 1-15.3-5.7c-1.9-.9-3-3.4-4.3-5.2l1.2-3.7c9-19.3 10.7-40.1 12.5-60.8l-1.1-.4a72.6 72.6 0 0 0-2 8c-1.4 8.4-1.8 17.1-3.8 25.4-2.4 10.3-6 20.3-9.2 30.5l-14.7-3.1 3.8-23.8-1.2-.3a69 69 0 0 0-3.5 17l-2.3-.7-7.7-2a67.7 67.7 0 0 1-1.8-8 7.1 7.1 0 0 1 1.2-4c7.6-12.7 15.4-25.3 23-38.1 2.3-4 3.8-8.4 5.9-12.5a4.5 4.5 0 0 1 2.7-2.2c7.7-1.4 15.4-3.2 23.2-3.6 6-.3 12 1.4 18 2.2a34.2 34.2 0 0 0 1 4.3c6.2 17.1 12.3 34.3 18.8 51.3 3.2 8.4 7.3 16.3 11.2 24.8l-4.5 2.6c-1.1-5.2-1.5-10.3-3.3-15-2.4-6.3-6.3-12.1-8.9-18.5-3.8-9.4-7-19.1-10.5-28.7l-2.9-7.8-1 .3.6 4a121 121 0 0 0 16.9 44 32.6 32.6 0 0 1 5 19.3c-.2 4.5-1 5.4-5.5 5.6-3.3.2-6.7-.5-10 .1-3.7.7-7.2 2.3-11.2 3.7l.3-5.4c.4-1.8.7-3.6 1.4-5.4 3.4-9.5 7-19 6.4-29.4a58.2 58.2 0 0 0-1.3-7.1l-1 .1c1.7 12-1.8 23-5.6 34-1 3-1.4 6.3-2 9.4-.1 3-2.8 2.2-4.4 3.1z"/><path class="i" d="M410.2 124.2l-3.5-10.5-1.5.3c4.1 10.8-1 20.2-4.2 29.8l-.3-.2c.3-10.3 1.3-20.7.6-31-.6-8.9-3-17.6-5-26.4-.4-2-2.2-3.7-3.4-5.6 1.9 10.8 4.2 21 5.1 31.3.8 8.5 0 17.2-.2 25.8l-6.4-8.3-8.8-11.5a36.8 36.8 0 0 1-1-18l1.1-5.8.8-5.8a65.3 65.3 0 0 0-6.1 38.5c.8 5.7 3.5 11.2 5.4 16.9l-18.7-3c-2-3.8-4.1-7.6-5.8-11.6-2.5-6-6-11.6-5.7-18.6.1-2.7-.9-5.4-1.4-8.2 1-10.5 5-19.9 11-28.4a65 65 0 0 0 6.6.7c9 0 18.1.3 27.1 0 4.2-.1 8.3-1.4 12.4-2.2a48.6 48.6 0 0 1 10 27.3c-4-4.3-7-9.5-13.5-12.6a18.8 18.8 0 0 0 1.6 3 67.8 67.8 0 0 1 12.8 22.7c5.1 14.4 6.6 29.2 8.5 44a5.6 5.6 0 0 1-.3 1l-3.6-2.3c-2.5 2.2-5.3.6-8 0l-3-26.2c-.3-1.8-1.7-3.4-2.6-5zm8.4-9l-.1-.3-.2.1a2.7 2.7 0 0 0 .2.4z"/><path class="g" d="M367.2 302c-1 2.9-1.6 6-3 8.6-.6 1.1-3 1.7-4.5 1.7-17.6 0-35.2-.6-52.8-.3-14.5.2-29 1.3-43.4 2H249c-1-5.6-2.3-10.4-2.7-15.2-.5-5.3 2.1-8 7.3-8.1 15.1-.5 30.2-.5 45.3-1.3 7.5-.4 15-2.6 22.5-3.4 10.2-1 20.4-1.6 30.6-2.2 4.5-.2 9.1 0 14 0-.1 3.4 2.5 6.7-.7 10.3-1.4 1.7-.6 4.3 1.8 5.7z"/><path class="k" d="M295.8 85.1c4.6-3.9 9-8 13.7-11.7 2.7-2 6-3.2 9-4.8l6.2.4-1-3.3 2.7-1a26 26 0 0 0 14.9 6.9c5.7 1 11.6 1.5 17.5 2.2a73.6 73.6 0 0 0-11.2 27.8h-1l4.2-19.8c-3 4.4-6.3 8.6-9.1 13a83.9 83.9 0 0 0-12.8 47.3c0 3.1-.9 4.5-3.8 5.3-3.4.9-6.6 2.3-9.8 3.5l-.5-5.5c-.3-4.1-1-8.4-.8-12.5.3-5.5 1.4-11 2-16.5.3-2.6.2-5.3.2-8L326.3 87a16.6 16.6 0 0 0-5.2 5.7c-4.4 8.4-8.8 16.7-12.7 25.3a65 65 0 0 0-5.3 34.7c.2 1.7-.8 3.5-1.3 5.3h-.7a54 54 0 0 1-3.1-19.4c-.3-13 2-25.7 4.1-38.4.2-.9-.6-2-.9-3l4.3-11.3.4-.2h-.2a1.1 1.1 0 0 0-.1.3c-1.8 2.3-4.2 4.4-5.3 7a481 481 0 0 0-11.2 31.3c-2.9 9-2 18.2.4 27.3l-.6.5c-6.5-22-8-43.7 5.8-64a13.9 13.9 0 0 0 1.1-3z"/><path class="o" d="M452.5 516.4l-4.3 3c-10-6.4-17-15.5-24-24.7-.2-1.1-.1-2.4-.7-3.4a385 385 0 0 1-35-70.1c-3.3-9.2-6-18.7-9-28l5-3v.2c4.5-3.5 9.3-2.2 14.2-1.2l1.1 3.5c5.3 13 11 26 15.8 39.2 9.3 25.5 17.5 51.5 29.2 76.1 1.2 2.6 2.6 5 4 7.5.7-.8.8-1.2.7-1.5-7.2-18.8-14.5-37.5-21.6-56.3-2-5.3-3.5-10.8-5.2-16.3 2.7 6 5.6 12 8 18 7 17.7 13.7 35.5 20.5 53.3zm-2.4.5h-.3a.8.8 0 0 0 0 .4l.4-.1z"/><path class="p" d="M411.6 386.4l2.9-5.3 1.5.2 1.9 7.3c2 1.2 4.5 2.7 6.9 4.5 9 7 19.6 9.7 30.3 12.2 10 2.5 20.2 4.6 30.2 7a16.2 16.2 0 0 1 2.3.8l-2.3 4.3c-5.3-3.8-8.5-4.3-11.1-1.6-3.8 3.8-3.8 11.1.1 16.3l-1.1 1.7c-4.7 6.4-4.6 6.2-11.7 3a11.3 11.3 0 0 0-7.1-.2c-5.5 1.5-9.5 9.9-7.1 14.8 1.4 2.9-.4 3.7-2.3 4.2-3.6 1-7.3 1.6-11.4 2.5-3.2-7.5-6.9-15.5-10.1-23.7a998.5 998.5 0 0 1-13-34c-1.3-4-1.8-8.2-2.6-12.3-.1-.5.3-1.1.4-1.7l2.6.8 1.7 2 .7-.7zm2.4 2.8l-1 1c1.3 1.4 2.5 3 3.9 4.2l13 11.8c7 6.2 13.4 12.9 13.4 23.2a6 6 0 0 0 1-2.1c1.2-6.3-1.6-11.3-5.7-15.6-4.8-5-10.1-9.5-15.3-14.2l-9.3-8.3z"/><path class="k" d="M301.3 162.4l.8 14.2h-1l-.8-1.4-.8-1.3.2 1.3c.2 13.3-3.9 25.7-8.4 38-6 16.4-11.2 33-16.6 49.6-1.1 3.4-1.3 7.1-1.8 10.7-.4 3-2.8 5.8-.8 9.2.2.4-2.7 3.3-4.6 4s-4.4 0-7.2 0l9.7-28-.5-.3-2.3 2.8c-5 7-6.8 15.2-8.8 23.3-.5 2.2-1.3 3.2-3.6 3.1-3.7 0-7.4.8-10.7-2-.9-.9-3-.3-4.6-.4a61.6 61.6 0 0 1 14.3-34c3-3.6 5.5-7.5 8.3-11.3a.3.3 0 0 1 .3-.3l1.2-1.1a87.8 87.8 0 0 0 22.5-55.8c.7-10.2.8-20.4 1.2-30.3l1.6-.4.6-.5 2.2 3.7c-1-9.4-2.9-18.7-.6-28.1a70 70 0 0 0 4.9 29.8v-.1l1.2 4.5c1.4 2.5 3-2.7 4.1 1.1z"/><path class="p" d="M392.6 321c3.7-.1 7.5 0 11.2-.4 1.5-.1 2.9-1.2 4.2-1.8-6.5-.6-12.8-1-19-1.8-7.8-.8-14.4-9.8-10.5-19.3 15 4 30.8 0 32.2-7.5-11-5.6-21.4-2.7-31.7 1.8a97.6 97.6 0 0 1-1.6-10.7c0-1 1.7-2.4 2.9-3.2a67.6 67.6 0 0 1 24.4-10c1.5-.2 3-.5 4.4-.9 12.7-3 23.5 4.9 24.7 18.1.8 9-.9 17.3-6.7 24.7-2.2 2.8-3.6 6.1-5.6 9.1-.6 1-1.6 2.2-2.6 2.3-7.5.7-15 1.1-22.6 1.5-1.5 0-3-.6-4.4-.9z"/><path class="q" d="M384.4 390.4v-.1l-27.9-2.7c8-6.4 8.9-14.3 8.1-22.7l-.3-5.2 2.7-31c.5-4.6.8-9.3 1.1-13.6a33.9 33.9 0 0 1 5.6 1.7c.8.4 1.2 1.6 1.7 2.6 2.8 6.3 5.3 12.7 8.5 18.7a62 62 0 0 0 25.9 25.8 7 7 0 0 1 2.4 3.3 33 33 0 0 1 1.3 4.6c1.7 6 .6 8.3-5.7 11l-.5-4.4c-.3.2-.7.2-.8.4-3 7.7-3 7.7-11.2 7.2h-6.8c2.6-8.4-.7-15.5-4.1-22.6-2.3-4.8-4-9.9-6.7-14.8a14.6 14.6 0 0 0 .3 3.9c1.7 4.5 3.4 9 5.3 13.5 3.3 7.6 5.6 15 .7 22.9-.1.3.3 1 .4 1.5z"/><path class="j" d="M301 176.7h1c.4 5.6 1 11.1 1.2 16.7.2 10.2 5.3 17.5 13 23.3 8 6 16.8 11 26.7 13.3 1 .2 1.9 1 3.4 2-4-.2-7-.8-9.9-.3-3 .5-4.2 2.5-3.1 6.1 1.2 4.3 1.6 8.9 2.3 13.5-4.3.7-8.5-2.3-10.6 3l-13.3-4.9c1-8 3.2-16 0-24.3l-2.2 23.7c-5 1.2-9.7 2-14.3 3.5-10 3.5-14 11.5-16 21.3-.5 3-3 5.5-4.5 8.3l-1.3-.6.5-2.6 7.8-30a18 18 0 0 1 1.2-2.8c1-1.3 2.5-2.6 3-4.1q4-10.8 7.6-21.8a63.9 63.9 0 0 0 1.6-8c1.8-7.7 3.9-15.4 5.4-23.1.7-4 .4-8.1.5-12.2z"/><path class="q" d="M347.6 385.2l1.4 4.7c-5.8.8-11.5 2.4-17.4.4-.6-.2-1.3.2-2 0-2.4-.3-4.1-1.2-3-4a34.5 34.5 0 0 0 1-21 73.3 73.3 0 0 1-.5-27 44 44 0 0 0-2 5.2c-2.2 8.5-1 16.8.5 25.2.8 4.3-.2 8.8-.4 13.2h-1.6l-6 .7c-3.9.6-6.3-1.3-5-4.8 2.2-5.6.1-10.9.2-16.2a31 31 0 0 1 3.3-14.4c4.7-9.3 9-18.8 13.3-28.4 1.1-2.6 2.3-3.7 5.2-3.5 2.4.3 5 0 7.9 0l-1.7 11.7a152.8 152.8 0 0 0 .2 45.9c.7 4.6 2 9.4 6.5 12.2z"/><path class="j" d="M234.7 255.1l-.4 1-1.2 1a7.4 7.4 0 0 1-.3-2.5c2.1-8.8 4.4-17.6 6.4-26.3.3-1.4-.2-2.8-.3-4.3 7.1-15 8.1-31 9.7-47.2 2-20 1.1-40.4 6-60.1 1.3-5.3 3.2-10.5 4.8-15.7l.5-1.4.5-.9a18 18 0 0 0 2.9-2.5l9.1-12.6 3.6 6.5-6.4 11.6-.2.3.2-.3 7-8c2.4-2.7 5-4.5 8.6-4.1-4 8.4-8.3 16.6-12 25.2a306.1 306.1 0 0 0-20.2 69c-3 16.4-6 32.8-9.8 49-1.8 7.7-5.6 15-8.5 22.3z"/><path class="g" d="M228 368.7c-2-4.5-2-4.5-10.8-8.8 0-1.5.5-3.4-.1-4.6-2-3.6-.2-5.7 2-8l27.3-28.9a4.5 4.5 0 0 1 2.7-1.5h34.6a629 629 0 0 1-55.7 51.8z"/><path class="r" d="M341.6 365.3l3.5-47c.2-2.6 1.4-3 3.8-3.1 5.1 0 10.3-.4 15.6-.7l-1.6 45.2v5.2l-.4 6.4a17.2 17.2 0 0 1-5.9 12.1l-4.2 4.5-4.8-2.6c0-.3.3-.6.3-.7-3.6-5.9-4.8-12.6-6.3-19.3z"/><path class="i" d="M433 59.8A47.1 47.1 0 0 1 459.6 83a7.5 7.5 0 0 0 1.1 1.4c1 4.9-2.1 8.3-4.6 11.8-2.7 3.6-6 6.8-9.3 10.4-4.4-5.6-7-.5-10.6 1.3-1-3-2.7-5.5.8-8.4 3.7-3.2 6-7.5 4.3-12.7-.4-1.2-2-2.1-3-3.2l-1.5.7-9.7 3.8c-1.6-.4-3.8-.7-6-1.4a5 5 0 0 1-2.5-2c-3.5-5.8-7-11.7-10.3-17.6 7.5-1.7 15.1-3.4 22.7-5.3.8-.2 1.3-1.4 2-2.1z"/><path class="s" d="M358.8 73.9c-6-.7-11.8-1.2-17.6-2.3a26 26 0 0 1-14.9-6.9c6.4-2.5 12.7-5.7 19.3-7.5a77.2 77.2 0 0 1 33.1-2l.6 5.8.9.2 1.8-5.5 12.1 3.8a42.4 42.4 0 0 1 14.3 13c-4.2.7-8.3 2-12.4 2-9 .4-18 .2-27 0a64.8 64.8 0 0 1-6.7-.6l4.7-5.7-.7-.8z"/><path class="b" d="M424.2 494.7c7 9.2 14 18.3 24 24.7l-2.5.8c-1.2-1.1-2.3-2.5-3.7-3.3-8.4-4.4-13.3-12.3-19.6-18.8-2.4-2.5-4.8-2.4-6.9.7-5.9 9-11.6 18.2-18 26.8a46.4 46.4 0 0 1-18 15 26.3 26.3 0 0 1 1.7-2.6l14.7-15.4c1.6-1.7 1.3-2.8-.7-4.1-15.8-11-32.6-19.1-52.2-20.1l-10.5-.7v-1.3c23-2.4 55.4 8.8 66.7 23.7 4.7-7.7 9-15.2 13.8-22.4 3.2-5 3.5-9-.7-13.6-2.4-2.4-4-5.7-5.9-8.7-2.2 1-4.3 1.7-5.9 3-3.3 2.7-7.2 3-11 2.7a36.7 36.7 0 0 0-18.1 3.8 24.2 24.2 0 0 1-3.5 1l-.7-.9c-.2-2.7-2.2-1.7-3.7-1.7l-.2-1.2c1.6-.9 4.3-.1 4.4-3.1l2-1.7-.2 5.5c4-1.4 7.5-3 11.2-3.7 3.2-.6 6.7 0 10-.1 4.6-.3 5.3-1.1 5.6-5.6a32.6 32.6 0 0 0-5.1-19.3 121 121 0 0 1-17-44l-.5-4 1-.4 2.9 7.8c3.5 9.6 6.7 19.3 10.5 28.8 2.6 6.3 6.5 12.1 9 18.5 1.7 4.6 2.1 9.8 3.2 15l4.5-2.7c-3.9-8.4-8-16.4-11.2-24.7-6.6-17-12.6-34.2-18.8-51.3a34.2 34.2 0 0 1-1-4.4l1.8.2.3.9 1.2 2.8 6.6 17.1a353 353 0 0 0 25 58.7c4.5 7.8 10.3 14.9 15.4 22.3z"/><path class="j" d="M475.3 239.1a113.8 113.8 0 0 1-30.2-85c.3-4 1-7.7 4.5-10.5 2.1-1.7 3.7-4 5.3-6.3s3.1-4.4 5-6.7c-5.6 37.8 4.9 73.2 15.4 108.5z"/><path class="o" d="M267.3 408.4a33 33 0 0 1 3.6-3.1l37.8-24.8c4.7 6.5 5.6 6.6 14.9 3l.8.1-.1 3-.4.7-.1 2.4-.1 1.4c-4.9 3.6-9.5 7.6-14.7 10.6-15.2 9-30.5 17.3-45.7 26.1-4 2.3-7.5 5.1-11.2 7.7-3.7 0-7.3 0-10.9-.2-.8 0-1.6-.8-2.4-1.3a14.6 14.6 0 0 0 2-1l46.8-33.8 15-10.2 5.3-3.8.3-.3-.3.3-5.4 2.7a40 40 0 0 0-5 2.3c-8.2 5-16.2 10.3-24.3 15.3-1.9 1.2-4 2-5.9 3z"/><path class="p" d="M304.1 270.4a23 23 0 0 0-13.6 13.8 20.2 20.2 0 0 0-.6 2.5c-7 1-8.2 0-8.6-6.6-1.3-18.6 14-30.8 32-25.5 3.6 1 7 2.4 10 3.4.8 3.3.7 6.7 2 9.5 2.5 4.7-.1 9-.5 13.4 0 .6-1 1.5-1.8 1.6-7.8 1.6-15.6 3-23.6 4.5l7.7-15.2c.3-.7-.2-1.8-.3-2.6l-2.7 1.2z"/><path class="t" d="M213.3 535.9c-.2 1 0 2.4-.6 3.2-14.8 19.6-29.8 39-44.4 58.7-4.3 5.8-7.5 12.4-11 18.7-3.5 6-4.2 6.6-10.9 4.2a100.4 100.4 0 0 1-12.4-5.2c-9.5-5-18.8-10.3-28.3-15.2-11.7-6-23.7-11.8-35.5-17.7Q46 570.3 22 557.8a164 164 0 0 1-9-5.2c-1.4-.7-2.6-1.7-3.8-2.6l.4-1.4c2.5.3 5.2-.1 7.2 1 16.4 8.3 32.5 17 48.8 25.6l19.2 10 42 22.5c6 3.2 12.1 5.9 18.2 8.9a23.5 23.5 0 0 1 3.5 2.8c1-1.3 2.5-2.9 3.7-4.7l16.3-23.2a6.6 6.6 0 0 0 1.1-1l38.6-50.7 2.2-2.4z"/><path class="g" d="M211.3 292.3l.8-3a36.9 36.9 0 0 1 3.6 4.1c4 6.3 4.7 13 1.4 19.6-3.2 6.3-9.7 8.5-16 8.8-11 .7-20-11.8-16.6-22.3 2.2-6.8 7.1-11 13.8-13 6.2-2 9-.6 13 5.8z"/><path class="l" d="M268.8 437c-.6-3.4 1.2-4.9 4-6.6 15-9 30-18.2 45-27.5 3-2 5.6-4.4 8.8-6.3-7.9 17.5-18.5 33.2-28.1 49l-18.5-5.4 3.2-9 5.9-5-.8-1-5.4 3.7c-3.6 2.8-4 7-5 11l-1 4.4-4.4-3z"/><path class="g" d="M186.6 372c4.7 2 9.6 3.8 14 6.2 1.4.7 2 3 2.5 4.8a15.8 15.8 0 0 1-9 17.8 30.2 30.2 0 0 1-8.3 2.2 13.5 13.5 0 0 1-15.2-12.1c-1-8.5 4.8-16.6 12.6-17.7l3-.3z"/><path class="j" d="M416.4 212.5c1.5-8.8 3.7-17.6 4.4-26.5.8-8.7.2-17.5.2-26.3l1.2-.3a16.5 16.5 0 0 1 1 3.4l3 50.8c.9 17.2-4.7 31.6-18.7 42.2a10.9 10.9 0 0 1-1.2 1l-1-.1c5.3-9.3 10.6-18.5 10.5-29.5a30.7 30.7 0 0 0 .9-5l-.3-9.7z"/><path class="o" d="M383.4 322.2l18.1 4.5 14.4 13.8-1 19.2c-6.5-2.2-11-7.1-14.8-12.5-5.8-8.1-11.2-16.6-16.7-25z"/><path class="u" d="M352.8 279.4l-24.9 2.4.6-3c1.1-4 1.8-8-.6-12s-.5-7.6.7-11.3a3 3 0 0 1 2.6-1.4c6 1.7 12 3.7 18.5 5.6-5.6 7.6-1.3 13 3.1 19.7z"/><path class="m" d="M238 509.7c0-5.7.6-11.4-.1-17-.4-3-3-5.5-4.5-8.4-.8-1.6-2-3.4-2-5.2-.6-7.3-.9-14.7-1.3-22a4.4 4.4 0 0 1 0-1.8l6.8-15.8 4.2-1.7c-2.3.6-2.5 2.3-2.3 4.3.4 3.7-.5 8 4 10.2-1 2.8-2.4 5.5-2.8 8.4-1 6.3-3.2 12.6-.3 19-.2 1.2-.7 2.4-.5 3.5 1.5 7.2 4 14 8.8 19.7z"/><path class="v" d="M488.5 425c0-3-1.1-6.8.3-9.2 1.5-2.7 5.4-4 8.2-6 4.7 5.6 3.8 16-1.8 22.2l-3.5-1.6c1.2 4.9-.4 8-3.2 10.1-4.6-3.8-9-7.3-13.3-11.1-2.6-2.3-2.4-7.3 0-10.3 2.2-2.6 4.8-2.6 8.2 0a19.6 19.6 0 0 1 3.1 3.1l2 2.8zM484.8 471c-4.8 2.4-9.9 5.7-15.5 7.5-2.8.9-6.5-.9-9.7-1.4v-12c0-2.2.6-3.7 3.2-4.6 5-1.7 10-4.1 15-6a3.2 3.2 0 0 1 2.9 1.2c.7 1.3.6 3 1 4.4l3.1 10.8z"/><path class="k" d="M399 261a4.4 4.4 0 0 1-4.6-3.4c-.2-.6-.2-1.5-.7-1.7-6.5-4-3.8-10-3.6-15.6 0-.7.4-1.4.5-2.2l.7-6-7.4-.6a4.4 4.4 0 0 0-1.4.3l-.4-1 9.6-3a74.7 74.7 0 0 0 9.6-4.2c3.1-1.7 6-3.9 9-5.9l.6.6c-2.6 5.9-5 11.8-7.8 17.7a39.9 39.9 0 0 0-3.6 24.6 4 4 0 0 0-.4.4z"/><path class="u" d="M363.5 278.4c4.4-3.1 6.9-12.4 4.4-17.5 1.4-.7 2.8-1.9 4.3-2 5.2-.8 10.5-1.5 15.9-1.7 3.8-.2 4.3 1 4 4.7a11.3 11.3 0 0 1-6.3 9.5l-9 5.2c-.1.1-.2.3-.3.2-4.7-1.9-7.7 1.7-11.2 3.4z"/><path class="w" d="M236.3 496.8l-.7 5.8a5 5 0 0 1-.6-.4c-3-2.3-5.8-2.1-9-.4-3 1.7-.4 3.8-1 5.7a13 13 0 0 0 0 3.6c-5.3-.2-5.7.1-5.7 5.2l-.2 7-3.5 2.2c-.3-3.8-.2-7.7-1-11.5-2-8.3-.4-16 3.3-23.4l3.5-1.3c2 .2 4.3 0 6.1.6 3.7 1.3 7 3.2 8.8 6.9z"/><path class="g" d="M422.6 441.4c1.7 5.5 3.2 11 5.2 16.4 7 18.7 14.4 37.4 21.6 56.2 0 .3 0 .7-.7 1.5-1.4-2.5-2.8-5-4-7.5-11.7-24.6-20-50.5-29.3-76-4.8-13.3-10.4-26.2-15.7-39.3-.5-1.1-.8-2.3-1.2-3.5l.6-.2.9.4.7.3 7.7 15.7.6 1.6.8 2.3h.3l.4.8.4 1.5.4.7.2.7.6 1.4.9 2.4.6 1.4 1.6 4.6.6 1.4 1 2.3.5 1.4 2 4.7.3.6 1.5 4.4.8 2.4.7 1.5z"/><path class="t" d="M306.3 467l2.1 2.2c-3.3 2-6.8 4-10 6.2l-77.5 54.4a46.7 46.7 0 0 1-6 3l-.1-1.5h1.6v-.5h-1.6c1-1.4 1.7-3 2.9-3.9 11.5-8 23-16.2 34.7-24 14.9-9.9 30-19.5 45-29.3l6-4.4z"/><path class="g" d="M348.4 236.6l.8-4.6h29c.6 2-.5 3.1-2.3 5.1-3.7 4-9.5 6.2-11 12.3-.7 2.7-2.6 5.2-4.1 8.2l-2.6-.2a7.9 7.9 0 0 1 .2-2A10.5 10.5 0 0 0 355 243c-1.2-1-1.9-2.5-3-3.6a38.4 38.4 0 0 0-3.6-2.8z"/><path class="v" d="M494.6 439.3c3.8.2 7.6.1 11.4.5a29.7 29.7 0 0 1 6.8 1.7c3.5 1.2 4.3 4.3 2 7.1s-4.5 5.9-7.4 8a9.7 9.7 0 0 1-6.8 1.6c-2.7-.4-5.4-2-5.6-5.6 0-1.8-.4-3.7-.6-5.5z"/><path class="r" d="M252 435.6c3.8-2.6 7.4-5.5 11.3-7.8 15.1-8.7 30.5-17.1 45.6-26 5.2-3 9.9-7 14.8-10.6l1.4-.1c2.1 1.8.3 2.7-1 3.5-15.2 9.7-30.4 19.5-45.7 29-6.6 4.2-13.6 7.8-20.3 12-2.3 1.4-4 1.4-6 0z"/><path class="q" d="M433 59.8c-.7.7-1.2 2-2 2.1-7.6 1.9-15.2 3.6-22.8 5.3l-13-9.1-4.2-1.8c3.9-3.1 30.2-1.8 42 3.5z"/><path class="v" d="M474.7 453.1l-16 6.2a2.2 2.2 0 0 1-2-.7l-6.5-8c-1.9-2.7-2.4-5.3.5-7.6a21.4 21.4 0 0 0 2-2.2 6.7 6.7 0 0 1 11.6 2.6c1.3 3.9 3.3 6.5 7.5 7.4.7.1 1.3 1 3 2.3z"/><path class="w" d="M239.6 479.7c-2.8-6.4-.7-12.8.4-19 .4-2.9 1.8-5.6 2.8-8.4l2.7-1.3a23 23 0 0 1 18 1.9l1.5 5.3-3-1.5c-2-1-3.7-1-4.8 1.3l-2.7.1c-1.2.6-3 1-3.6 2-3.9 6.4-7.5 13-11.3 19.6z"/><path class="m" d="M280.9 480.6l-8.4 5.3a2.4 2.4 0 0 0-.6-.4l-2.4-9.2a18 18 0 0 1-.6-3c-.1-1.4.2-3-.2-4.4-2.7-8.5 2.8-13.7 7.5-19.3l3.8 7.3-1.6 6.8c-.5 1.9-1.5 4-1.1 5.7.8 3.8 2.3 7.4 3.6 11.2z"/><path class="x" d="M519.3 181.2c.2.8.7 1.7.5 2.4-7.6 21.8-11.1 45-22.2 65.5-2.7 5.1-6.1 9.8-9.2 14.7-.2-.4-.6-1-.4-1.3l24.5-62.2c2.5-6.3 4.6-12.7 6.8-19z"/><path class="v" d="M424.2 494.7c-5.2-7.4-11-14.5-15.5-22.3a354.2 354.2 0 0 1-25-58.7l-6.6-17.1.6-3.5h1.8c3 9.4 5.6 18.9 9 28.1 9 24.6 21 47.9 35 70.2.5.9.4 2.2.7 3.3z"/><path class="w" d="M280.9 480.6c-1.3-3.8-2.8-7.4-3.6-11.2-.4-1.7.6-3.8 1-5.7l1.7-6.7c2.8.9 3.8-1.3 5.3-2.9l12 .1v.1l.7 1.4.8 9c-2.6-1-5.2-2-8-2.8-1.7-.5-3 .2-3.2 2.4l-1.3 12.4z"/><path class="q" d="M508.6 308.9c.8.5 2 .8 2.5 1.6 3.4 6.5 5 13.6 6 21 1.5 9.8-.1 19.5-.8 29.2l-12.2-4.6c11-12 9-25.4 6.6-38.8-.5-2.9-1.4-5.6-2.1-8.4z"/><path class="x" d="M369 251.4c-1.5-3.2-1.2-4 2.7-5.5l2.6 3.7c.7-3.4-2.6-7.3 2.1-9.2l1 6.3c2.9-5.4 2.8-12.3 10.7-12.9-.8 4.5-1.5 8.6-2 12.7-.3 2.3.6 5.3-.6 6.6s-4.4 1-6.6 1.6l-7.6 2c-.5 0-1 .4-1.4.2-1.5-.7-2.8-1.5-4.2-2.3zM343.1 246.4l4.8-6.3c5.1 2 1.4 6 1 9.3l1.4.8 3-4.4.5.1c.4 3 1.2 6 1.2 9 0 2.7-2 3.2-4.2 2.3a90.1 90.1 0 0 1-10.7-4.4c-1.3-.7-2.2-2.8-2.4-4.5-.6-4.4-.8-8.8-1.2-14.2 1.5.2 4.2 0 5.9 1.2 1.2.8 1.2 3.6 1.3 5.5a32 32 0 0 1-.7 5.5l-.3.4z"/><path class="v" d="M240.2 318.2c-4-.1-6.8-4.5-5.6-7.6a22.9 22.9 0 0 0 .3-16.8c-1-2.8 1.4-3.1 2.9-3.8s4.3-1.7 4.7-1.1c1.3 1.7 3 3.5 1.9 6.5-.9 2.4-.3 5.3 0 8 .2 4 2 8.3-1 12.2a15.8 15.8 0 0 1-3.2 2.6z"/><path class="m" d="M218 490.6a34.1 34.1 0 0 0-3.4 23.4c.9 3.8.8 7.7 1.1 11.5l-3.2 3-5-29.4-.1-1.4-.5-3.8 6.3-12c-.3 4 1.2 6.9 4.8 8.7z"/><path class="y" d="M436.8 84.3l1.5-.6c2.2 8.3-1.8 13.8-8.4 18.2 3.8 1.7 2.2 4.8 2.4 7.4l-1 .9-5.3-6-4 2.5-1-.7 1.4-8.8-3.1-8.5c4.8.4 7.3 2 5.6 7.3l12.3-10.8-.4-.8z"/><path class="v" d="M445.2 487.2l-4.4-11.5c-.2-.6-.4-1.4-.1-1.8 3.5-4.4 7.4-8.5 13.2-9.7a3.4 3.4 0 0 1 1.5 0 14.1 14.1 0 0 1 1.7.7c-.1 11-1 12.8-11.9 22.3z"/><path class="m" d="M188.8 287.8l-6.2 7.8a10.2 10.2 0 0 0-1.5-2.4c-7.1-5.8-5.2-12.2-1.6-19 1.4-2.6 2.4-5.6 3.6-8.4l5.5 6.6c-.5 2.2-.9 4.6-1.6 6.8a8 8 0 0 0 1.8 8.6z"/><path class="g" d="M302.6 389c-5 3.4-10.1 6.7-15 10.2-15.7 11.2-31.3 22.6-46.9 33.9a14.6 14.6 0 0 1-2 1 43.2 43.2 0 0 1 3.1-5.1 50.6 50.6 0 0 1 4.6-4.4.4.4 0 0 0 .4-.4l.2-.2.6-.6h.2l.7-.7 3.8-3 .7-.7 1.5-.7 1.4-1 .9-.9.6-.4 1-.8 1.4-.9.8-.7.8-.8 1.5-.8.8-.8.8-.7 1.5-.8.8-.8.8-.7c2-1 4-1.8 5.8-3l24.3-15.3a39.6 39.6 0 0 1 5-2.2z"/><path class="m" d="M172.4 375.5l-3 5c-9-5.1-12.2-15-8.6-26.1l7.7 8.2 3.6-2.9c-.3 4.3-.7 8.6-.8 12.9 0 1 .7 2 1 3z"/><path class="w" d="M266.7 476.7l1.4 5a71.3 71.3 0 0 0-8 .1c-1 .1-2.5 1.5-2.5 2.3 0 3.7.4 7.5.7 11.3l-4.2 2.4a18 18 0 0 1-1.8-22.2l5.2-1.2z"/><path class="y" d="M219.2 523.4l.2-7.1c0-5 .4-5.4 5.7-5.2a13 13 0 0 1 0-3.6c.6-1.9-2-4 1-5.7 3.1-1.7 6-2 9 .4a5 5 0 0 0 .6.4l.3 8.6z"/><path class="w" d="M188.8 287.8a8 8 0 0 1-1.9-8.6c.8-2.2 1.2-4.6 1.7-6.8l3.7-1.3 12.7 2.2 1.5 5.5-2.5-.3c-4.8-.6-5.3-.1-4 4.6z"/><path class="v" d="M221.8 379.6a24.6 24.6 0 0 0-13.7-17.5c-2.5-1.3-2.7-7-.5-9a3.6 3.6 0 0 1 3.3-.5c1.5 1 3.5 2.6 3.5 3.8-.2 4.8 1.9 7 6.1 8.9 3.3 1.4 5.8 4.9 8.5 7.6.5.7.6 2.9.2 3.2a70 70 0 0 1-7.4 3.5z"/><path class="p" d="M223.2 285.6c8.9 3.2 11.1 9.6 10.1 18.8-1 8.3-4.1 12.3-10 12.9.8-3.2 1-6.4 2.4-9 2.4-5 .3-9.5-1-14a83.5 83.5 0 0 1-1.5-8.7z"/><path class="o" d="M313.2 314.8l10.5.7-14.5 24.2a5.5 5.5 0 0 1-.6-.3l-.8-19.4c2.5-1 5-2 5.4-5.2z"/><path class="m" d="M252.3 475.6a18 18 0 0 0 1.8 22.2l-4.8 4.1c-2.6-6-5.2-12-7.7-18.2a5.5 5.5 0 0 1 .2-4.2c2.3-3.8 4.9-7.5 7.3-11.2z"/><path class="z" d="M366.6 264.4c-.9 7.7-5.2 13.7-8.9 13.5-3.3-.3-9-8.7-8.5-12.4.5-3.3 8-7.4 12.6-6 2.2.6 3.7 3.7 4.8 5zm-8.4-3.6c-1.5 2-2.8 3-3 4.1a43.5 43.5 0 0 0 .4 8c0 .5 1 1.2 1.5 1.1a2.1 2.1 0 0 0 1.4-1.3 43.5 43.5 0 0 0 1.5-7.4c0-1-.9-2.3-1.8-4.4z"/><path class="x" d="M262 240c-2.7 3.8-5.2 7.7-8.2 11.2a61.5 61.5 0 0 0-14.3 34.1L234 289c-3.5-8.6 13.6-38 28-48.9z"/><path class="p" d="M367.9 298l2-7.4c-.2-2.3-.7-5.4-.6-8.5 0-1 1.1-2.2 1.7-3.3 1.3 1 3.6 1.8 3.8 3a60.5 60.5 0 0 1 .4 11.8 184.3 184.3 0 0 1-2.3 20c-1.4-1.6-4.3-.5-4.5-3.7-.2-3.6 1.9-4.8 4.7-5.9l-4.5-2.1z"/><path class="w" d="M172.4 375.5c-.4-1-1.2-2-1.1-2.9.1-4.3.5-8.6.8-12.9a1.4 1.4 0 0 0 .3-.5c2-2.5 4.4-2.7 7.2-1.6a52.5 52.5 0 0 0 6 1.4l.8.7 2 6.3-6.8-1.9-2 7.3z"/><path class="v" d="M416.4 212.5l.3 9.7a30.7 30.7 0 0 1-1 5 31.5 31.5 0 0 0-1.8 3.3c-3.7 8.4-7.3 16.8-11.3 25.1-1.7-5.5-.3-12.9 3-19.4 3.4-7.1 6.7-14.4 10-21.6.4-.7.5-1.4.8-2z"/><path class="x" d="M478.4 314.7c.7 2.2 1.9 4.3 1.8 6.5-.5 12.8-1.3 25.7-2 38.5a7.2 7.2 0 0 0 .7 2.3c-1.4 6-6.4 9-10.8 12.3l-1.3.4c10.3-18.8 12.9-39 11.6-60z"/><path class="v" d="M476.7 451.6l-9-6.7 9.4-10.7c2.8 1.4 7.2 2.1 7.8 7.2.6 6-4.8 7.2-8.2 10.2z"/><path class="y" d="M433 115.4l9.6-9.2.9.7-6.6 10.2c1.8 1.7 6.4-3 6.4 2.3 0 3.9-3.7 1.8-6.1 2.2l-2 9.5-1 .2-2.1-7.3-5.5-.4-.4-1.2 5.2-4-7.5-5.6c5.8-3.3 6.4 2.1 9 2.6z"/><path class="m" d="M263.5 452.8a23 23 0 0 0-18-1.8l.7-13c7.7-.5 15.2 6 17.3 14.8zM215 440c-3.2-.2-6-3.3-5.3-6 2.9-4.4 5.7-8.7 8.7-13a23.1 23.1 0 0 1 1.7-2c.8 4 .2 8.6 4.5 11.3l-5.3 8.7-2.2 1z"/><path class="v" d="M493.8 437.7c2-2.2 3.8-4.6 5.9-6.6.6-.6 2.1-.3 3.7-.4 1.3-2.8 12.3-3.4 16.5-.2l-6.8 6.2a3.8 3.8 0 0 1-2.2 1h-17z"/><path class="p" d="M252.4 403.2c2.6-3.4 4.9-7.2 8-10 2.4-2.4 5.6-1 8.4.3l-.7.8-.8.7-1.5.5a20.6 20.6 0 0 0-9.5 14.1 9 9 0 0 1-5 6.9c-3.4-5.3-3.2-7.5 1.1-13.3z"/><path class="g" d="M383.4 322.2c5.5 8.4 10.8 16.9 16.6 25a31.3 31.3 0 0 0 15 12.5l-.3 2.1-5-.6-1.4-.8-1.5-.8a26.4 26.4 0 0 0-1.8-2.7c-4.9-5.7-9.9-11.4-14.7-17.2-2.2-2.5-4-5.2-6-7.8l-.8-1.7-.1-.2-.8-1.8-.7-1.5-.7-1.6a.8.8 0 0 0-.4-.1l-.3-.6-1-3.5.5-.6z"/><path class="p" d="M200.6 362.3c2.1.5 4 .5 5.5 1.5a29 29 0 0 1 12.3 13.6 12 12 0 0 0 .8 2c2.5 4 1.7 6.2-4 8.4 1.2-5.6-1.7-9.3-4.9-13-.5-.6-.3-1.9-.4-2.8-.2-2.1-1.1-3.2-3.4-3.6-2.6-.5-5.8-1-6-6z"/><path class="y" d="M286.4 476.6c.4-4 .9-8.2 1.2-12.4.2-2.2 1.5-2.8 3.3-2.3 2.7.7 5.3 1.8 8 2.7l.8 3-.1 1.6c-3.2 2-6.3 4.2-9.6 6.1a18.9 18.9 0 0 1-3.6 1.3z"/><path class="p" d="M268.8 393.4l1.8-.6 8-1.1c-1.2 2.7-1.5 5.2-3 6.3-5.4 4.4-11.2 8.4-17.3 12.8 1-5.9 4.8-9.7 7.7-14l1.4-1.9.7-.8.8-.7z"/><path class="v" d="M439 471.2a60.8 60.8 0 0 0-2.8-6.7c-1.9-3.3.2-4.6 2.6-5.6a17 17 0 0 1 3.6-.7l8.3-1.6v-1l4.2 4.7c-3 1.5-6.1 2.6-8.7 4.4s-4.6 4-7.2 6.5z"/><path class="p" d="M486 464.2c-3-3.7.4-9.7-6-11.2 2.7-2.5 5-4.7 7.3-6.6 1.4-1.2 4.4.8 4.8 3.2a54.7 54.7 0 0 1 .9 7.4 3.9 3.9 0 0 1-1.4 2.4c-1.7 1.7-3.6 3-5.6 4.8z"/><path class="y" d="M258.3 495.4c-.3-3.8-.7-7.6-.8-11.4 0-.7 1.6-2 2.5-2.2a71.3 71.3 0 0 1 8-.2l2.1 4.8-.5 1.5z"/><path class="v" d="M268.8 437l3.7 4.3a15 15 0 0 1 1 3c.2 1.4.3 3-.3 4-.2.5-2.3 0-3.5 0l-5.4-1.5-3.4-4.8c-1.9-2.4-1.5-3.9 1.3-5.2a51.3 51.3 0 0 0 4.5-2.6z"/><path class="b" d="M249 468.3c-2.4 3.7-5 7.3-7.2 11.2a5.5 5.5 0 0 0-.2 4.2c2.4 6.1 5.1 12.2 7.7 18.2l-1.3 1a43.3 43.3 0 0 1-8.8-19.7c-.2-1.1.3-2.4.4-3.6 3.8-6.5 7.4-13.1 11.3-19.6.6-1 2.4-1.3 3.7-2v1.4c-.7.4-1.7.6-2 1.2-1.3 2.5-2.4 5.1-3.5 7.7z"/><path class="r" d="M378.5 294.3c9.6-3 18.5-5.4 28.2-3.2-6 5.3-20 7-28.2 3.2z"/><path class="y" d="M206 523.9l-6.2-6.5 2.7-2.3c.6-4.3-4.2-9.8 3-12.6l.2.1 3.4 19.8.6 3.3c-1.8 2.4-1.9-1.3-3.1-1l-.8-.8z"/><path class="x" d="M410.2 124.2c.9 1.7 2.3 3.3 2.5 5.1 1.2 8.7 2 17.5 3 26.2-5.8-.1-5.7-.5-5.5-6 .4-8.5 0-16.9 0-25.3zM249 468.3c1.2-2.6 2.3-5.2 3.6-7.6.3-.6 1.3-.8 2-1.2l3.9 2.7-1 12.2-5.1 1.3zM482.6 76.3c-1.1 3.8-4.7 4.3-7.6 5.8-3.8 1.9-7.4 4.1-11 6.2l-1-3.4-.6-5.7z"/><path class="w" d="M219.3 439l5.3-8.7a1.8 1.8 0 0 0 .7-.2l10.5.1v5.5c-5.9-2.1-7.8-.6-8.1 6.5z"/><path class="o" d="M325.8 315.5c.2.9.8 2 .5 2.6-3.7 9-7.6 17.8-11.5 26.6a18 18 0 0 1-3.5 5.7l-1.4-6.9c1.5-2.2 3-4.3 4.3-6.5 4-7.1 7.8-14.3 11.6-21.5z"/><path class="j" d="M464.7 90.4l6.6-3.8.8 1-4.5 4.3 15.7 11-.8 1.5-17-6.5z"/><path class="m" d="M257.6 474.4l.9-12.2c5.5 1.8 7.8 4.8 8 10.5l.2 4z"/><path class="q" d="M246.2 438l-.7 13-2.7 1.3c-4.5-2.2-3.6-6.5-4-10.3-.2-2 0-3.6 2.3-4.2zM285.3 454.1c-1.5 1.6-2.5 3.7-5.3 2.8l-3.8-7.3c3-5.9 3.6-6.4 8.3-5.9l.8.5V454.1z"/><path class="p" d="M207.4 371.6c-1 4.4 1.2 7.5 5 10.2l-6.3 5.8c-.9-8.6-2.2-11-8.1-15.3l1.1-1.7.8-1.4z"/><path class="m" d="M285.3 454.1v-9.7c8.6 1.4 11.8 3.6 12 9.8z"/><path class="q" d="M172.4 359.2a1.4 1.4 0 0 1-.3.5l-3.6 3-7.7-8.3c-.4-2.8.9-4 3.7-3.8l6 .8z"/><path class="m" d="M205 273.3l-12.7-2.2-2-10.6c3.8 2.4 8 4.5 11.6 7.2 1.5 1.2 2.1 3.7 3.1 5.6z"/><path class="x" d="M298.1 359.6l-8.6-26.6a24.2 24.2 0 0 1-.6-4.8l6.6 16a27.6 27.6 0 0 0 2.2 3.5l.3 1.5.9 10.5z"/><path class="y" d="M428.6 137.2c1.7-.8 3.5-1.5 5.1-2.5s2.8-2.4 4.4-3.1a47.8 47.8 0 0 1 6.5-2l.6 1.7-7.3 3.4c1.8 2.5 1.8 3.5-.1 9.6-3.3-.6-3.6-1-2.9-4.8l-6-1.1z"/><path class="x" d="M190.2 260.5l2.1 10.6-3.7 1.3-5.4-6.6 3.6-9.8z"/><path class="g" d="M325.8 315.5L314.2 337c-1.2 2.3-2.8 4.3-4.3 6.5l-1-3.4a.7.7 0 0 0 .3-.4l14.5-24.2z"/><path class="p" d="M283.4 139.9c3.7 8.6-.1 17.4 1.2 25.9-4.3-8.5-4.9-22.2-1.2-26z"/><path class="v" d="M295 212a63.9 63.9 0 0 1-1.5 8q-3.5 11-7.6 21.8c-.6 1.6-2 2.8-3 4.2 1.7-5.5 3.3-11 5.3-16.4 2.1-6 4.6-11.7 6.9-17.6z"/><path class="x" d="M225.3 430.1a1.8 1.8 0 0 1-.7.2c-4.2-2.7-3.6-7.3-4.4-11.3l7.5.6c-.8 3.5 1.6 7.7-2.4 10.5z"/><path class="w" d="M206.6 524.7c1.2-.3 1.3 3.4 3.2 1 1 1.8.8 3-1.7 2.6l-2.5-1.3-4.2-1c-2.3-1.4-4.5-3.3-7-4.2-3.3-1.1-4.3-2.9-3.2-6.7l10 6.9a26.9 26.9 0 0 0 4.7 1.9z"/><path class="m" d="M172.4 359.2l-1.8-7.8c6.8-1 11.1 2.8 15 7.6a52.5 52.5 0 0 1-6-1.4c-2.8-1-5.3-.9-7.2 1.6z"/><path class="y" d="M227.6 442.2c.4-7.1 2.3-8.6 8.1-6.5a.4.4 0 0 0 0 .5l.8 2a1.1 1.1 0 0 0-.5.5l-4.7 7.3z"/><path class="r" d="M304 270.4c.3.5 1 1.2.8 1.4-3.2 4.6-6.3 9.2-9.7 13.7-.7 1-2.4 1.2-3.6 1.7l-1-1.4 13.6-15.4z"/><path class="h" d="M384.3 332c2 2.5 3.9 5.2 6 7.7l14.8 17.3a26.4 26.4 0 0 1 1.8 2.6c-3.6-3.2-7.7-5.9-10.6-9.6-4.4-5.6-8-12-12-18z"/><path class="m" d="M225.3 430.1c4-2.8 1.7-7 2.4-10.5l8.2 10.6z"/><path class="p" d="M297.8 384.4l-16.2 9.9c-1.6-3.9-1.6-4 2-5.5l13.6-5.6z"/><path class="v" d="M432 364.7c-1.7 7.4-6.6 12.9-11.3 19l-2-2.8z"/><path class="g" d="M416 340.5l-14.5-13.9 3.6-.1 4.8 3 .8.8.7.8.8.8 1 .8 1.6 1.4.4.8.9 1.5z"/><path class="p" d="M222.7 307.4l-4.2-16.3c3.6-.6 4-.2 4.5 4 .2 2.4 1 4.7 1 7 0 1.4-.7 2.9-1.3 5.3z"/><path class="t" d="M208.8 431.7a112.5 112.5 0 0 1-10.7-3.7c-1-.5-1.4-2.5-2.4-4.4l4 .7 10.6 5.5z"/><path class="x" d="M262.7 341.6l3.3 11.6-4.7.7c0-4.4-3.5-8.7 1.4-12.3z"/><path class="y" d="M179.5 371.3l2-7.2 6.9 1.8v4z"/><path class="h" d="M408.4 405.4l-7.7-15.6 3.8-1z"/><path class="y" d="M200 283c-1.3-4.6-.8-5.1 4-4.5l2.6.3 1 4.3z"/><path class="p" d="M494.6 439.3l-.2 7.8-6-3.1c1.7-2.3 2.3-5.6 6.2-4.7z"/><path class="y" d="M257.2 458c1.1-2.4 2.9-2.4 4.9-1.3l3 1.4.5 4.9z"/><path class="b" d="M299.6 469.2l.1-1.5a8.5 8.5 0 0 0 1.6-1.9c.4-1 .5-3 .8-3a38 38 0 0 1 5.7.4l-3.6.2 2.2 3.7-3 2.2z"/><path class="p" d="M295.7 315.8l2.2-.3h7c-.5 1.4-.6 2.9-1.4 3.4-2.1 1.4-5.7 0-7.8-3.1z"/><path class="t" d="M201.3 526l4.2 1 1.7 2.3 3.4 2.2-2 2.4-1.5-.6.3-1.9-7.5-3.3z"/><path class="b" d="M264.3 446.8l5.4 1.6.1 1.5.4 3.1c-1.3-.5-3-.6-3.9-1.6-1-1.2-1.4-3-2-4.6z"/><path class="f" d="M416.1 330.6l-5-5.2 7.4-1z"/><path class="j" d="M428.2 134l-1.8-8c5 0 5.3 1.4 1.8 8z"/><path class="r" d="M313.2 314.8c-.4 3.2-2.9 4.2-5.4 5.2l.3-5z"/><path class="f" d="M403.5 265.5l-9.3 2c.6-4.6 1-4.2 9.3-2z"/><path class="d" d="M301.3 162.4c-1-3.8-2.6 1.4-4.1-1l-1.3-4.5 3.2 2.5 2-1.4h.8l.7 4.5z"/><path class="p" d="M273.8 286.5l3.7-4.3 2.3 4.3z"/><path class="f" d="M363.5 278.4l1.7 1.7H353v-.3z"/><path class="b" d="M282.8 428.9l5.5-3.8.7 1-5.9 5zM362.9 365v-5.3h1.4l.3 5.3zM309.3 461l2.3.7-1 5-2.8-3.5z"/><path class="o" d="M410 329.6l-4.9-3.2c3.1-1.2 4.2.7 4.8 3.2z"/><path class="b" d="M452.5 516.4l-1.4-3.7 1.5-.8 1.5 3.1z"/><path class="f" d="M392.6 321l-.7 1-5.8-1.9.2-.8z"/><path class="h" d="M409.8 361.2l4.9.6c-1.3 2.4-1.9 2.3-5-.6z"/><path class="j" d="M430 152.7h4.3l.3 1-4.6.5v-1.5z"/><path class="b" d="M205.7 502.6l-.2-.1-.3-4.8h2.2l.1 1.4zM207.2 529.2l-1.6-2.2 2.5 1.3z"/><path class="d" d="M367.9 298l.7 4h-1.4l-.2-2.2z"/><path class="o" d="M377.7 393l-.6 3.6-1.2-2.8-.1-.7z"/><path class="b" d="M324.4 383.6h-.8V382h1.6zM210.3 537.4l-2.2 2.4-.2-2-.1-.3z"/><path class="i" d="M400 147.4l-.5-1.4 1.2-2.4.3.2z"/><path class="d" d="M298 349.2l-.3-1.5a1.8 1.8 0 0 0 .4 0h1.5l.7.1zM298.1 359.6l.8.1.5 1.6-1.3-.1z"/><path class="j" d="M299.7 175.3l-.2-1.3.8 1.3h-.3z"/><path class="b" d="M325 391l-1.3.2v-1.5zM214.8 530.8h1.7v.5h-1.7v-.5z"/><path class="o" d="M421.9 440l-.8-2.4z"/><path class="b" d="M269.6 488l.6-1.6z"/><path class="m" d="M471.3 295.6v2.5zM470.4 293.7l1 1.8z"/><path class="j" d="M436.8 152.1l-.8.8v-.9z"/><path class="h" d="M409.8 409.2l-.8-2.3z"/><path class="d" d="M267.3 395l-1.4 1.7-.2-1.3z"/><path class="aa" d="M284.2 98.4l1-1-.2 1.7z"/><path class="v" d="M375.8 393v.8l-.2-1z"/><path class="b" d="M412 414.4l-.5-1.4zM236.5 438.1l-.7-2z"/><path class="o" d="M265.8 409.9l-1.5.8zM259.8 414.3l-1.5 1z"/><path class="b" d="M413.6 418.2l-.6-1.5z"/><path class="o" d="M256 417.3l-1.5 1z"/><path class="f" d="M383.1 318v.2a1.3 1.3 0 0 1-.4 0l.1-.3a1.3 1.3 0 0 1 .3.1z"/><path class="o" d="M422.6 441.4l-.7-1.5z"/><path class="h" d="M408.3 360.4l1.5.9zM406.8 359.6l1.5.8z"/><path class="b" d="M415.8 424.1l-.6-1.4z"/><path class="h" d="M409 407l-.6-1.6z"/><path class="o" d="M262.8 412l-1.5 1zM416 336.4l-.9-1.5z"/><path class="h" d="M383.6 330.3l.7 1.6z"/><path class="b" d="M298 455.7l-.6-1.4z"/><path class="h" d="M382.7 328.3l.8 1.7zM382 326.7l.7 1.6z"/><path class="b" d="M417.3 427.9l-.6-1.4z"/><path class="h" d="M381.3 325.2l.7 1.6z"/><path class="j" d="M442 136.2v1.1z"/><path class="aa" d="M285 99.1l-.9.5.1-1.2z"/><path class="b" d="M410.5 410l-.4-.8zM400 389.4l-.8-.4z"/><path class="j" d="M461.6 95.7h-.8l.4-.6zM462 94l-.1-.3h.1v.3z"/><path class="b" d="M323.9 387.4l.4-.8z"/><path class="j" d="M430 141.6l-.7.6z"/><path class="b" d="M271.9 485.4a2.4 2.4 0 0 1 .6.5z"/><path class="aa" d="M451.4 487h-.9l.3-.8z"/><path class="v" d="M493.8 437.7l-.2.5.2-.5z"/><path class="o" d="M258.3 415.2l-1 .8z"/><path class="b" d="M253 419l-.7.7z"/><path class="o" d="M260.6 413.6l-.9.8z"/><path class="b" d="M248.6 422.7l-.8.6z"/><path class="k" d="M414.7 366.7v-.8l.6.3z"/><path class="q" d="M341.6 365.3h-.2z"/><path class="b" d="M411.3 412.3l-.3-.8zM247.7 423.4l-.6.6zM246.8 424.2a.4.4 0 0 1-.4.4 1.1 1.1 0 0 1 .4-.4zM285.3 444.2l-.8-.5z"/><path class="m" d="M186.3 359.7l-.8-.8z"/><path class="o" d="M263.6 411.4l-.9.7z"/><path class="b" d="M309.2 339.7a.7.7 0 0 1-.3.4l-.3-.7a5.6 5.6 0 0 0 .6.3z"/><path class="o" d="M256.8 416.4l-.9 1zM264.3 410.7l-.8.7zM261.3 413l-.8.7zM415.1 335l-.4-.9zM413 332.7l-1-.8zM412.1 331.9l-.7-.8zM411.4 331.1l-.8-.7zM266.5 409.1l-.7.8zM267.3 408.4l-.8.8z"/><path class="f" d="M384.7 318.6l.2.2-.2.2-.2-.2z"/><path class="o" d="M410.7 330.4l-.8-.8z"/><path class="b" d="M419.6 433.2l-.4-.6a1 1 0 0 1 .3.6z"/><path class="x" d="M263.6 238.5l-1.2 1.2z"/><path class="k" d="M410.3 217.7l.6-.4v1z"/><path class="b" d="M380.6 324.4l.3.7a1 1 0 0 1-.3-.7z"/><path class="g" d="M379.5 321l-.2-.9.8.3z"/><path class="ab" d="M309.4 480.2l-.5 12.2-.4 18.8c0 8.2.2 16.5 0 24.7a9.6 9.6 0 0 1-2.1 5.5c-16.5 19.7-37.6 34.3-56.3 51.5l-27 25a5.4 5.4 0 0 1-1.2.5l-.9-17.3c-.6-16.6-.9-33.2-1.7-49.7-.3-5.6-.4-11 .9-16.4a6.9 6.9 0 0 1 2.7-3.5l53.5-38 29.6-21a22.4 22.4 0 0 1 3.2-1.6zM248.6 542a26.4 26.4 0 0 1 1.5 3.7l6.1 25a61.6 61.6 0 0 0 2.2 6l12.8-13.8c1.4-1.5 3.5-3 3.8-4.9a433 433 0 0 0 3.5-25.1c.2-1.3-.8-2.7-1.2-3.6l9.5-10.8c.4 4.3 2 7.9 1 10.6-3 8.2-7 16-10.5 24a10 10 0 0 0-.5 2.2l1 .7a19.4 19.4 0 0 0 1-1.8c3.3-7 6.2-14.1 9.8-21 3.2-6 1.5-11.5-.3-17.2-.8-2.4-2.1-2.8-4.3-1.7-3.1 1.5-6.5 2.7-9.5 4.5-1.5.9-2.6 2.7-4 4.3l-6.3-9.5c-3.5 4.9-6.8 9.7-10.4 14.3-3.3 4.2-6.2 8.4-5.2 14.2-3.9-1.7-5.9-6.5-10.6-6.7-4 12-3.6 22.4 7.5 30.1 1.7 1.2 3.2 2.7 4.9 4a14 14 0 0 0 2.8 1.1L241.7 546l6.6-.5zM156.3 622c16.5-29.9 38.3-54.8 57.8-81.3l1 .3c-.7 5.1-1.2 10.3-2.1 15.5-1.3 7.2-2.5 14.5-4.4 21.6a57 57 0 0 1-47.4 43.9 41 41 0 0 1-4.9 0zM13.7 545l53.4-60.6c3.3 7.1-4.5 32.2-14 42.3a65.8 65.8 0 0 1-38.8 19.6z"/><path class="w" d="M205.2 497.7l.3 4.8c-7.2 2.8-2.4 8.3-3 12.6l-2.7 2.3-3-2.4-.7-.8-5.2-14c.4-5.5 1-11 1.2-16.6 0-1.5-.9-3-1.3-4.5l3-7 5.2-2.3c1.7 0 3.8-.4 5.2.4 2.8 1.3 5.1 3.4 7.7 5.1-.3 1.8-.2 3.6-1 5.1-1.4 3.3-3.4 6.3-5 9.6a16 16 0 0 0-.7 3.9v3.8z"/><path d="M219 617.3l-23.4-9.2c15.8-24.4 14.8-23.6 21.2-53.1z" fill="#f8c807"/><path class="w" d="M132.3 500.9l-7.6-3.7c-.9-6-4-11.6-1.7-17.9 1.2-3 1.8-6.2 2.7-9.3l1.7-2.1 13.1.4c4 3 5.6 7 5.2 11.8l-2.8-1c-3-1.1-5-.9-5.8 3-1.1 5.2-3 10.3 0 15.3zM188.5 485.3l-.6 10c-5-2.2-5.6-1.8-5.3 3.5.1 3.4.6 6.8.8 9.4-2 .7-4.1.8-4.6 1.8-1.1 2.2-1.5 4.8-2.1 7.2l-2.4-.8c-3-9.3-7.7-18.5-2.2-28.5l3.6-4c4.3.6 8.7-1 12.8 1.4zM148.2 443.6c2.2 2.8 3.3 5.8 2.2 9.3l-6.2 1a27.8 27.8 0 0 0 .9 4.9 53.8 53.8 0 0 0 2.7 5.6c-3.4 3.6-3.2 3.2-7 .3-3.7-2.8-8-4.8-12-7-1.3-.7-2.7-1.2-4-1.8l3.6-7.8 3.3-2c4.4-.1 9.2 1.7 12.8-2.5h3.7z"/><path class="y" d="M132.3 500.9l4.9-3.4c-3.2-5-1.2-10.1 0-15.4.8-3.9 2.7-4.1 5.8-3l2.8 1c.5 6.6.9 13.2 1.5 19.7.2 3 0 5.5-3 7.4-3.2-1.1-6.8-2.2-10.2-3.6-.8-.4-1.2-1.8-1.8-2.7z"/><path class="w" d="M187.8 449v5.3c-2-.8-4.5-1.5-5.1 1.4-.8 3.5-2.1 5.8-7.6 5l4.5 7-1.3 4.6-10-9 1-13.1 4.4-4.1c2.5-1.7 4.6-.5 6.3 1a7.4 7.4 0 0 0 7.8 1.9z"/><path class="m" d="M172 488c-5.4 10-.7 19.1 2.3 28.5-4.2-.4-7-2.2-8.4-6.6a78 78 0 0 0-5.4-12.6c-3.4-6.6-1.3-12.2 2.5-17.7a30.8 30.8 0 0 0 3.4 4.3 62 62 0 0 0 5.7 4zM125.7 470c-.9 3.2-1.5 6.3-2.6 9.4-2.4 6.2.7 11.9 1.7 17.8-4.2-.5-7.2-2.1-8.4-6.5-.9-3-2.3-5.8-3.5-8.7-2.2-5.7.2-12.9 5.5-16.6z"/><path class="w" d="M221.4 473.8a19 19 0 0 1-4.4-1.8 6 6 0 0 1-2-3.1 44.5 44.5 0 0 1-1-5.5l3-12.9 4.5-3 8.3.6c0 .7.4 1.5.1 2a24 24 0 0 0-2.3 13.7l-4-.6z"/><path class="t" d="M8.7 543.6c1.4-1.8 2.8-2.9 3.3-4.3 4.2-10.6 14-16.4 21-24.5 8.7-9.6 17.7-19 26.3-28.6 1.9-2 3-4.6 4.6-6.8a4.4 4.4 0 0 1 3-1.3C54 496.8 12.4 543.8 8.7 543.6z"/><path class="w" d="M185.5 440l-7.9-5.3c-1.3-4.5 0-8.6 2.1-12.6l3.6-1 9.8.8 1.5 9c-2.4.2-5.3-2.4-6.8 1.3-1 2.5-1.5 5.2-2.3 7.8zM161.9 474.4a50.2 50.2 0 0 1-2.9 6.4c-5 8-2 15.5 1.2 23 1.4 3.2 3.2 6.2 4.2 10l-8.4-6.4-2.8-8.4c-2.8-8.3-3.6-16.4 2.4-23.9l3.7-.7z"/><path class="m" d="M128.4 448l-3.7 7.8-7.9 4.9c-1.4-4.2-4.7-8.3-1.4-13.5 2-3.3 3.8-6.9 5.6-10.3 1.4 2.4 2.7 5 4.2 7.4a36 36 0 0 0 3.2 3.8z"/><path class="y" d="M176.7 517.3c.6-2.5 1-5 2.1-7.3.5-1 2.6-1 4.6-1.8-.2-2.6-.7-6-.8-9.3-.3-5.4.3-5.7 5.3-3.5l.6 21.3c0 .8-1 1.7-1.5 2.5l-.8-.1-1.6.2c-.5-.4-1.4-1.2-1.5-1-2.5 2.1-4.4 0-6.4-1z"/><path class="m" d="M169.2 450.1l-1 13.2c-2.5-.5-5-1-7.5-1.7a2.8 2.8 0 0 1-1.5-1.3 16.8 16.8 0 0 1 2.3-19zM155.6 475.1c-6 7.5-5.2 15.6-2.4 23.9l2.8 8.5c-3.5-2.8-6.6-6-7-10.5-.6-6.2-.4-12.5-1-18.7-.3-3-1.7-5.8-2.9-9.4l6-2.8z"/><path class="a" d="M207.9 537.7l.2 2.1-38.6 50.8a6.6 6.6 0 0 1-1.1 1l-.9-2.5.9-1.4.6-.8.7-1a.7.7 0 0 1 .3-.5l.5-.7h.1l.7-.8.8-1.2.2-.3.5-.6.1-.1.7-.7.7-.8.7-1 30.6-39.7a11.8 11.8 0 0 1 2.3-1.8z"/><path class="w" d="M105.3 491.8l-3.7-1.2c-1-3.2-2.2-6.3-3-9.4a35.3 35.3 0 0 1-.7-5.1l3.6-4 7.6 1.2.7 6.3-4 .8 3.1 6.9z"/><path class="q" d="M172 488a62 62 0 0 1-5.6-4.1 30.8 30.8 0 0 1-3.4-4.3c3.1-7.9 3.2-9.2 11.4-6l.8 4 .5 6.4z"/><path class="m" d="M211.9 475.4c-2.6-1.8-5-3.8-7.7-5.2-1.4-.7-3.4-.3-5.2-.4l.1-13.4c10.5 3.8 12.8 7.3 12.8 19z"/><path class="t" d="M110.5 451.1c2.1 2.4 1.7 3.8-1 5.2-13 6.2-26 12.6-39 19a15.2 15.2 0 0 1-3.7.7l-.3-1z"/><path class="z" d="M87.8 475.2l3 9.3-19.4-7.5 15.8-8a2584.4 2584.4 0 0 0 .6 6.2z"/><path class="w" d="M164.6 431.3c-2.9 5-6.2 10-8.5 15.2-1.3 3-1 6.8-1.5 10.2l-3-13 1.9-10.4 5-2.4z"/><path class="m" d="M193.8 472.2l-3 6.9-9.2-5.6c-1.6-1-1.1-5.6.7-7.1l6.2-4.8z"/><path class="q" d="M169.2 450.1l-7.7-8.7c1.3-2.1 2.2-4.5 3.9-6.2 2.5-2.4 4.8.6 7.2 1.1l1 9.7z"/><path class="w" d="M210.2 440.9l-1.4 5.2c-4.5-.6-5.2-.1-5.6 4a33.3 33.3 0 0 0 .2 5.2l-7.4-1c-1.9-4.4.2-8 2.4-11.7l3.7-2.7z"/><path class="m" d="M87.8 475.2v-.3l4.4-6.7 5.6 7.9a35.3 35.3 0 0 0 .7 5l3.1 9.5c-6.1-1.6-7.7-7.2-10.5-11.7a33.7 33.7 0 0 0-3.3-3.7z"/><path class="q" d="M193.8 472.2l-5.3-10.6 10.6-5.2-.1 13.4z"/><path class="m" d="M179.7 422c-2 4-3.4 8.2-2 12.7-1-.5-2.2-.8-2.8-1.5l-7.6-10.2 6.8-8.7a18 18 0 0 0 1.7 3.6 47.7 47.7 0 0 0 3.9 4.2zM198.3 442.6c-2.2 3.6-4.2 7.3-2.3 11.7l-5 2.2c-.2-3.5.6-6.9-.7-9.2-3.2-6 1.2-8.6 4.2-12z"/><path class="q" d="M128.4 448a36 36 0 0 1-3.1-3.7c-1.6-2.4-2.9-5-4.3-7.4a16.7 16.7 0 0 1 3.6-2c2.5-.7 5-1 7.6-1.6l-.6 12.7zM218 490.6c-3.6-1.8-5-4.8-4.8-8.7l4.5-7.7 5 4.4-1.2 10.7z"/><path class="m" d="M173.7 446l-1-9.7c4.8 2.7 9.7 5.3 14.3 8.3.8.6.6 2.9.9 4.4a7.4 7.4 0 0 1-7.8-1.8c-1.8-1.6-4-2.8-6.4-1.1zM217 450.5l-3 13a65.5 65.5 0 0 1-5.3-4.7c-.7-.7-1.3-2.3-1-3 2.1-5 4.5-9.7 6.8-14.6zM221.5 489.3l1.3-10.7c6 4.9 13.2 9 13.6 18.2-1.9-3.7-5.2-5.6-8.8-6.9-1.9-.7-4-.5-6.1-.6zM131.6 446l.6-12.7 12.3 10.2c-3.6 4.2-8.4 2.4-12.9 2.5zM175.7 484c-.2-2.2-.2-4.3-.5-6.5-.1-1.3-.5-2.6-.8-4 4.1 2.2 8.5 4 12.4 6.6 1.2.8 1.2 3.4 1.7 5.2-4-2.4-8.5-.8-12.8-1.3z"/><path class="q" d="M155.6 475.1l-4.5-9c2.8-2.5 6-3.7 9.7-2.8l-1.5 11z"/><path class="x" d="M179.7 422a47.7 47.7 0 0 1-4-4 18 18 0 0 1-1.6-3.8l3.4-5.9 5.4 3.5.4 9.3z"/><path class="m" d="M153.5 433.4l-2 10.4-3.3-.2-5.9-5.6 6.2-8z"/><path class="y" d="M221.4 473.8l2.1-10.6 4 .6 1.6 16.1z"/><path class="z" d="M112.6 457.4c1 2 1.8 3.7 2.4 5.5.8 2.1 0 3.4-2.4 3-4.6-.5-9.2-1.2-14-2z"/><path class="m" d="M140.6 468.3l-13.2-.4-2.7-9.2c6.3 1.5 12 4.2 15.9 9.6z"/><path class="y" d="M147.9 464.4a53.8 53.8 0 0 1-2.8-5.6 27.8 27.8 0 0 1-.9-4.8l6.2-1c.5 2.7 1.5 5.5 1.3 8.2 0 1.1-2.5 2.1-3.8 3.2zM179.6 467.7l-4.5-7c5.5.8 6.8-1.6 7.6-5 .6-3 3-2.2 5.1-1.4 1.1 2.2.5 3.7-1.3 5.4-2.5 2.5-4.6 5.4-7 8zM105.3 491.8l3.6-4.5-3-7 4-.7 4.4 12.3-2.3 2z"/><path class="x" d="M153.5 433.4l-5-3.4c.9-1.8 1.4-4.3 2.9-5 1.7-.8 4.2 0 6.4 0l.7 6z"/><path class="m" d="M159.3 474.4l1.5-11c4.8-.2 7.6 3.4 11 6.4-4.7-1-7.2 2-10 4.7z"/><path class="q" d="M124.7 458.7l2.7 9.2-1.7 2.2-7.3-4.7a68.1 68.1 0 0 1 3.6-6.4c.3-.4 1.8-.2 2.7-.3z"/><path class="x" d="M198.3 442.6l-3.8-7.3c1.8-4.4 3.8-5.5 6.7-3.6l.8 8.2z"/><path class="m" d="M183.3 421.2l-.3-9.3c2.8 1.6 6 3 8.5 5 1.1 1 1.1 3.3 1.6 5zM158.5 430.9l-.7-6c2.7.5 5.3 1 8 1.3 3.5.4 4.5 2.8 5.6 6l-6.8-.9z"/><path class="t" d="M109.6 497.6c-1 .2-2.3.9-3 .5-7.2-3-14.3-6.2-21.4-9.4l.6-1.5 23.8 9.5z"/><path class="x" d="M217 450.5l-2.5-9.3.5-1.3h2l4.4 1.8.1 5.7z"/><path class="m" d="M109 473.3l-7.5-1.2-.8-5a55.3 55.3 0 0 1 7.1 0c1.5.1 2.9 1 4.3 1.7z"/><path class="q" d="M100.7 467l.8 5-3.7 4-5.6-7.8z"/><path class="t" d="M158.7 513.8l20.4 7.6-.4 1a49.6 49.6 0 0 1-20.5-7.5z"/><path class="y" d="M185.5 440c.8-2.6 1.3-5.3 2.3-7.8 1.5-3.7 4.4-1.1 6.8-1.2l-6.8 8.4c-.5.5-1.5.4-2.3.6zM203.4 455.3a33.3 33.3 0 0 1-.2-5.1c.4-4.2 1.1-4.7 5.6-4-1 2.6-1.8 5.3-3 7.8-.2.7-1.5.9-2.4 1.3z"/><path class="m" d="M191 500.3l5 13.9c-3.8-1-5.8-3.3-5.2-7.5a56.6 56.6 0 0 0 .1-6.4zM202 440l-.7-8.3 9 9.2z"/><path class="h" d="M65.3 583.5c-1.8 3-4.2 3-6.4 1.3-.7-.4-.8-1.9-1.1-2.8 1-.3 2-.9 3-.6a29.6 29.6 0 0 1 4.5 2.1z"/><path class="t" d="M112 494l14.3 7.4c-5.4-1.2-11-2.2-14.2-7.5z"/><path class="m" d="M221.6 447.4l-.2-5.7 8.4 6.5z"/><path class="t" d="M184.6 519.3c1.2.7 2.5 1.6 3.8 2.2l3.7 1.6a3 3 0 0 1 1.7 1.7l-11.6-2.8zM69.8 585.6l7.7 3c-2.7 2.8-4.8 2.2-7.7-3zM156.3 512l-10-3.6c3.4-1.2 6.2-.2 10 3.7zM69.3 478.8l6 3.4-.6 1c-2.3-.6-5.4.2-5.4-4.4zM84.4 485.3c-2.2 2-5 .9-7.8-3zM9.6 546.2l-3.7 3-1-1.4 3.4-3.2z"/><path class="a" d="M205.2 497.7v-3.8h1.7l.5 3.8zM207.4 531.4l-.2 2a1.6 1.6 0 0 1-.6-.4z"/><path class="t" d="M126.3 501.4l.3.2-.3-.2z"/><path class="m" d="M196 514.2l.8.8z"/><path class="t" d="M186.2 519l.8.2z"/><path class="ad" d="M429.3 526.2c5.2-1.4 10.5-2.8 15.7-4a10.2 10.2 0 0 1 3 .2l-20.2 8.3-2.2-1.5 1.5-2.2.7-.1 1.6-.7z"/><path class="a" d="M429.3 526.2l-1.5.7zM427.8 526.9h-.7a2.4 2.4 0 0 1 .7 0z"/><path class="f" d="M231 710l5.2 2.1-9 4.2c-3.4 1.6-7 3-10.4 5a8.8 8.8 0 0 1-9.6-.1c-11.2-7.6-22.3-15.4-34.3-23.7 10.6-3.5 20.2-6.5 29.7-10 3.8-1.4 6.8-1 9.6 1.8l-5.4 3.3c5.9.9 12.3-5.4 16.9 2.9-6.8 1.1-8 2.9-5.4 7.7-4.5 4.8-5.1 7.7-2.4 10.1a8 8 0 0 0 10.9-1zM283.5 691c-12.3 7.8-26 10.5-37.9 17.2l-1.2-1a36 36 0 0 1 2-3.8c.4-.7 1.5-1 1.8-1.7.7-2 1.1-4 1.7-6.1l-6.1-1.4a8.1 8.1 0 0 0-2.8.7c-2-6.9-4.6-7.6-10.5-2.9l-4.6-4 5.9-3.4c-6.4-.4-11.9 3.9-17-.7 6.4-2.1 13-4 19.3-6.6a20 20 0 0 1 19 .8c9.3 5 19.6 8.5 30.4 13zM156.7 701.7l-1.9-5.1 17.7-6.6c21.8-7.8 43.6-15.5 65.3-23.4 4-1.4 5.4 1.5 8.3 3.8l-27 9.2c-15 5-29.9 10-45 14.6-6 1.9-11.3 5.2-17.4 7.5z"/><path class="x" d="M231 710l-4.2 2.3a42 42 0 0 1-6-.2c-1.1-.3-3-1-3.2-1.8a4.5 4.5 0 0 1 1.5-3.7c1.5-1.3 3.6-1.8 5.5-2.7a.8.8 0 0 0 0 .3h.3l-.3-.3a17.3 17.3 0 0 0-2-2 26 26 0 0 0-2.9-1.7l.2-1.1 10-1.6-6.3-6.9.5-.5 8 5.5c.1-.5 0-1.2.4-1.5a8.3 8.3 0 0 1 2.6-2.2c.5-.2 2 .5 2 1a4.8 4.8 0 0 1-.5 3 37.7 37.7 0 0 1-3.4 4.2c5 .4 8.4-6.4 14.1-3-.7 4.4-5.3 4.8-7.3 6.8l1.4 4.3c-2 .1-4.2 1-5.8.3-2.4-1-3.7-1-4.5 1.5z"/><path class="f" d="M168.8 699c1 .2 2.3.1 3.1.7l26 18.2c.2.1.1.4.3 1.9l-29.9-19.2zM154.5 701.7l-3 3c-1-1.2-2.8-2.2-3-3.5-.3-1.1 1.2-2.6 2-3.9zM251.6 668c-3.1 1-3.1 1-7.3-3 3.3-1.7 5.2-1 7.3 3z"/><path class="x" d="M223.6 690.6l-.8-.6 1.3.1z"/><path class="z" d="M530.7 580.2l5.2-.7c1.6 4.6-.8 7.5-3.1 10.3a50.6 50.6 0 0 1-28 19c-7.9 1.9-13.7-2.3-17-9.9-2.1-5.2-1.7-10-1.5-15.1 0-2.3.9-4.1 3.4-4.7 6-1.3 11.8-3 17.8-3.7 6.8-.9 13.6-.8 20.8-1.1-1.8 2.8-7 4.3-11.1 4.1a31 31 0 0 0-19 5l-4.3 2c-3.1 1.6-1.5 4-1.2 6.2 1 5.3 12.2 9.1 17.4 6.7a63.4 63.4 0 0 0 19.6-14c.7-.8.6-2.3.9-3.5a6.3 6.3 0 0 1 .1-.6zM562.8 586.1c6 1.7 12 3.2 17.9 5 3 1 2.9 3.5 2 6.2-3.2 10.7-12.2 10.8-20.8 11.5-1.2 0-2.4-1-4.2-1.7-2 5.7-7 9-12.7 11.5-4 1.9-6 1.3-8-3-2.3-5-2-10.3-.7-15.4 1.8-6.5 4.3-12.7 6.5-19.1h2.5c2 4.7 1.1 9-.9 13.6a17.3 17.3 0 0 0-1.5 8c.2 1.7 2.1 4.5 3.3 4.5 1.8 0 3.6-1.9 5.4-3h-.1c5.5.3 10-2.2 14-5.7 4.7-4 4.3-6.5-1.1-9.3l-2.7-1.4z"/><path class="q" d="M603.5 564c-1.2 4.4-4 5.3-6.6 6.2a87.1 87.1 0 0 1-30.6 4.7c-3.5 0-7-.9-10.4-1.3v-1.2l9-6.1-5.7-.7a10.3 10.3 0 0 1 1.4-1 91.5 91.5 0 0 1 32-8.5c1.7 0 3.6 1.4 5.4 2.2-1.2 1.6-2.2 3.2-3.5 4.7-.6.7-1.7 1-3.3 2zM546 562.2l-5-3.8-.6 6.2c0 .3-.1.5 0 .1l-8 2.3c-3 1-9-.8-11-3.3-2.3-3.2-2.5-7.9 0-10.9 1-1.2 2.8-2.7 4.2-2.6 3.6.2 6.3-1.8 9.3-2.9a55.6 55.6 0 0 1 11.1-2.9c5.1-.6 7.4 2.5 5.6 7.2-1.5 3.7-3.7 7.2-5.6 10.6z"/><path class="z" d="M561.3 578.6c2-.5 4.1-1.3 6.2-1.3 10.5.3 20.7-.8 30.6-4.5a33 33 0 0 0 5-2.4c3.1-1.9 4.8-4.3 2.4-8.4h11.3a26.7 26.7 0 0 0-2.4 3.7c-.4 1.2-.4 2.6-.9 3.8a4.7 4.7 0 0 1-1.5 2.4c-3.9 2.4-7.7 5.2-12 6.8a63.5 63.5 0 0 1-42.7 2.2l3.2-2.2a2 2 0 0 0 .8-.1z"/><path class="q" d="M530.7 580.2a6.3 6.3 0 0 0 0 .7l-4.8 3.6c-5.5 3.7-10.6 8.2-16.5 10.7-7.2 3-15.6-.2-15.4-9.7l4.3-2 25.4-3.9c2.3-.3 4.6.4 7 .6z"/><path class="z" d="M548.2 563.4c2.3-3.8 4.2-6.5 5.6-9.5 3.4-7.7-.1-13-8.5-12-3.9.5-7.6 2.6-11.5 4l-4 1.7-.9-1a25 25 0 0 1 2.4-4.2c7-7.8 16-7.8 25.1-5.3 2.9.8 5.4 7 4.7 10.2a25 25 0 0 1-7.1 13.3c-1.3 1.2-3.3 1.7-5.8 2.8zM600.7 561.2c.3-5.9-1.6-8.3-7.2-8a75.5 75.5 0 0 0-34.5 10.2l-2.2 1.5H555c.7-1.5 1-2.8 1.9-3.7 6.3-7 14.9-9.6 23.5-11.4 5.3-1.1 11-1 16.4-1 3.8.2 7.5 1.5 9 5.7s-.5 6.7-5.2 6.7zM527.7 548c-7.3 1.8-9.3 3.5-10 8.8-1 8.5 5.1 14 14 12.6a28.6 28.6 0 0 1 5.6.3l.1 1.3c-.5.3-.9.8-1.4.9-8.3 1-15.8-.5-22.4-6-3-2.6-3.6-5.7-3.3-9.4.4-6.3 11.7-14.2 17.4-8.5z"/><path class="q" d="M551.6 604.2l-2.1.6c-3 1-4.4-.4-3.8-3a102 102 0 0 1 3.8-12.4c.5-1.5 1.9-2.7 2.8-4l6 4 7 4-.1 1.3-10.2 5.9a4.6 4.6 0 0 1-1.7.6c-2 .2-2 1.5-1.8 3z"/><path class="h" d="M550.8 573.4c-.4.7-1.1 1.3-1.3 2-.3 2.2-.4 4.5-.6 7.1-.9-.5-1.2-.6-1.2-.8-3-6.2-3-6.2-9.6-4.6a18.3 18.3 0 0 1-6 .5c6.6-3.5 13-8 21.4-8l-2.7 3.8z"/><path class="z" d="M484 580.8v16.9c-4.7-4-6.3-8.8-4-13 .7-1.4 2.3-2.3 4-3.9z"/><path class="t" d="M562.8 586.1l-1 1.7-9.5-2.4a1.4 1.4 0 0 1 0-.4l-.8-1.4.3-2 9.4 3.4 1.6 1.2z"/><path class="h" d="M561.3 578.6a2 2 0 0 1-.7.1 12.8 12.8 0 0 0-3.3-.2c-4.2.8-6-1.2-6.5-5z"/><path class="t" d="M545.4 581.1h-2.6l-4.3-1.3 5.9-2.6z"/><path class="z" d="M562.8 586.2l-1.5-1.2z"/><path class="q" d="M551.5 583.6l.9 1.4z"/><path class="ad" d="M472 500c.8 1.6 1.3 3.5 2.3 5 2.2 3 1.9 5.7 0 8.5-3.5 5.4-9.2 7.3-14.7 9.7-.4.1-1.2-.6-1.9-.9l10.9-17.4-1.1-.7a58.8 58.8 0 0 0-10.4 16c-2.7-.6-1.8-2.4-1-3.7l10.2-15.1 1.2-.6 4.6-.8z"/><path class="a" d="M472 500l-4.5.7c1.1-2.7 2.7-2.8 4.6-.7z"/><path class="b" d="M478.7 511.4l-1.4-3.1z"/><path class="d" d="M363.3 482l.2 1.3-4.6 2.5 1.6-3.1zM367.2 485l.7.9z"/><path class="i" d="M520.1 103.4c-3 1-5.9 2.5-9 3-7 1.2-14.1 2.5-21.1-.3a7.4 7.4 0 0 1-2-1l-17.7-14.9 14.7-8c7.8 2.5 15.7 4.9 23.6 7.2.7.2 1.7-.4 2.6-.6z"/><path class="q" d="M511.1 88.8c-.8.3-1.8.8-2.6.6-7.9-2.3-15.7-4.7-23.6-7.2l15.7-2.2z"/><path class="a" d="M511.1 88.8L500.6 80l4.4-.1a47 47 0 0 1 18 22.5l-2.9 1z"/><path class="d" d="M462.7 77.5l17.2-3a30.1 30.1 0 0 1 3.4-.2l-.7 2-20.3 3z"/><path class="s" d="M476.6 107l-.3-.3.3.2z"/><path class="j" d="M325.8 4.8c28.6-9.2 50.9 12 53.2 35-9.8-24.1-26.1-37.1-53.2-35zM379.5 40.4l.1 1.2-.4-.4.3-.8z"/><path class="o" d="M480 541.6c1.2 1 2.3 2.4 3.7 3 2.8 1.1 3 2.8 2 5.2-1.3 2.7-2.3 5.5-3.5 8.5l-20.4-3.6c-.6-5.5-.9-11-1.8-16.5-.5-2.8-2-5.4-3.3-8.4l3.2-2.6c4.2 5 8.2 10 12.4 14.8a3.4 3.4 0 0 0 2.6 1 34.7 34.7 0 0 0 5-1.4zm-.2 9.2l-6-4.1c-.8 1.3-2.7 3.4-2.4 3.9a9.8 9.8 0 0 0 4.6 3.2c.7.2 2-1.5 3.8-3z"/><path class="ad" d="M450.3 524l2.2 4.7-.7 1.3-17.2 8.2c-3.8-.7-6.6-2.4-6.8-6.8zM453.6 552.4l-12 1.5 2.2-12 8-6zM463 525l2.6-1.2a51 51 0 0 1 20.9 10.4c-2.5 2.4-4.9 4.8-8.7 4.7-.6-1.8-.8-4.2-2-5.1-4-3.2-8.5-5.9-12.7-8.8zM452.6 534.4l.5-2c.8.4 2 .6 2.2 1.1 1.4 5.1 3 10.2 4 15.3.5 2.7-2.2 2.4-3.9 2.9.2-6 .3-11.9-2.8-17.3z"/><path class="i" d="M450.3 524l-22.5 7.4a6 6 0 0 1 0-.7l20.2-8.3z"/><path class="o" d="M461.9 556.2l15.8 3.8c2.2.5 4.5.7 6.7 1l-1.5 3.4a49.9 49.9 0 0 0-5.8-2.3 114.1 114.1 0 0 0-12.6-2.8c-2.2-.3-3.2-.9-2.6-3.1z"/><path class="i" d="M486.5 534.3a51 51 0 0 0-21-10.5c1.8 0 3.9-.5 5.4.1 5.3 2.3 10.5 4.9 15.7 7.5.8.5 3.3 2-.1 2.9zM457 520.2a58.8 58.8 0 0 1 10.5-16l1 .6-10.8 17.5zM463 525c4.3 2.9 8.8 5.6 12.8 8.8 1.2 1 1.4 3.3 2 5h-.3l-13-10.8zM452.6 534.4c3.1 5.4 3 11.3 2.8 17.3l-1.8.7-1.8-16.4z"/><path class="ad" d="M451 531.4c-1.7 4.2-9.1 9.3-13.2 9-.9-.1-1.6-1-2.4-1.4zM464.6 528l13 10.8c-1.5 0-3.5.7-4.3 0a103.7 103.7 0 0 1-8.1-8.7c-.5-.5-.4-1.4-.6-2z"/><path class="m" d="M451 531.4l-15.6 7.6-.8-.8 17.2-8.3v.8l-.8.7z"/><path class="i" d="M443.8 542l-2.1 11.9h-1l1.8-12z"/><path class="ad" d="M442.5 542l-1.8 12c-.7-.3-2-.7-2-1q1-5.2 2.2-10.3c0-.4 1-.5 1.6-.7z"/><path class="b" d="M452.3 522.4a14.8 14.8 0 0 1 1.7-.9l.6.8-2 1z"/><path class="m" d="M451.8 530l.7-1.3v1a2 2 0 0 1-.7.2z"/><path class="ad" d="M451.8 530a2 2 0 0 0 .7-.2l-.7.9zM451 531.4l.8-.7z"/><path class="j" d="M308.3 71.3c-3.1 1.3-6.5 2.2-9.4 3.8-5.8 3.1-11.4 6.5-16.8 10.2-2 1.3-3.8 1.9-5.3.3-.7-.8-.5-3.5.3-4.3 3.4-3.2 6.8-6.7 10.9-8.7 2.7-1.4 6.5-.5 9.7-.9l10.2-1.3z"/><path class="i" d="M304.1 59.7l14 6a47.7 47.7 0 0 1-29.9 2.9z"/><path class="x" d="M272.4 83.6L263.3 96a18 18 0 0 1-3 2.6A76.7 76.7 0 0 1 279.6 70l4.5 1c-5.1 3.6-9.7 6.9-11.6 12.5zM304.1 59.7l-15.9 9L283 67l15.2-9z"/><path class="d" d="M298 58.1l-15 9-3-1.4 11.2-7.8z"/><path class="a" d="M306.5 52.8a48.5 48.5 0 0 1 6.2.2c5.4.9 7.4 3.8 7.1 9.6-2.3-4-4.8-7.8-10.5-6.6z"/><path class="x" d="M291.1 57.9L280 65.6c-3.2-1.8-3.7-4-.7-5.1 3.7-1.5 8-1.8 12-2.6z"/><path class="m" d="M300.3 77A25 25 0 0 1 285 86c4.1-4.7 10-6.6 15.3-9.2z"/><path class="j" d="M309.3 56c5.6-1.2 8.1 2.6 10.5 6.6l.2 1.5z"/><path class="d" d="M323.6 65.7l1 3.3-6-.4z"/><path class="m" d="M300.3 77z"/><path class="g" d="M312 479.4v-8l9.9 2z"/><path class="b" d="M330.8 469.2l-1.3 3.7zM358.2 422l.4-1.3.7 1.3z"/><path class="q" d="M238.9 224c.1 1.4.6 2.9.3 4.2-2 8.8-4.3 17.6-6.4 26.3a7.4 7.4 0 0 0 .3 2.5l-3.7 7-5 3c.6-16.3 9.2-29 14.5-43z"/><path class="x" d="M260 99.5l-.6 1.4zM466.8 374.7l-.4.5.4-.5z"/><path class="a" d="M299.6 347.7H298v-4.5h.7z"/><path class="d" d="M298.8 343.2h-.6v-3.7h.6z"/><path class="b" d="M172.1 582.7l-.8 1.2zM175 579.2l-.7 1zM174.3 580.1l-.7.8zM173.6 581l-.7.7zM172.8 581.8l-.5.6zM171.3 583.9l-.7.8zM170.6 584.7l-.6.7zM169.7 586l-.7 1zM169 586.9l-.6.8z"/><path class="d" d="M315.3 151c3.2-1.2 6.4-2.6 9.8-3.6 2.9-.8 3.8-2 3.7-5.2-.6-17 4-32.8 12.9-47.3 2.7-4.5 6-8.7 9-13l-4 19.7a85.6 85.6 0 0 0 0 32.4h1v6.1c-7-14-5.2-28.5-3.7-43.4-.7 1.2-1.6 2.4-2.3 3.8a114.4 114.4 0 0 0-11.3 39.3c-.3 2.5-.3 5-1 7.3-.3 1.1-1.8 2.1-3 2.6-5.4 2.1-10.8 4-16.6 6.1l-.5-5.4h1.3l.5 2.5z"/><path class="a" d="M347.6 134h-1l1-32.3a73.6 73.6 0 0 1 11.1-27.8l7.6-6.5.7.8-4.8 5.7a58 58 0 0 0-11 28.4 56 56 0 0 0 4.6 33.2c2.6 6 1.2 5.5 8.3 5.3l18.7 2.9 2.4.7 2.7 3-3.2-.3-24.8-3.4c-1.1-.1-2.8-.5-3.1-1.3-2.5-5.2-4.7-10.6-7-16l-.7-3.8-.8.1v3.7zM336.3 173c-6.4-2.2-12.3-4-18.1-6.2-1.4-.5-2.4-2-3.6-3 1.7-.4 3.5-1.5 5-1.2a285 285 0 0 1 21.3 5.4c4.2 1.3 4.7 4 1.3 6.8-6 5-12.3 9.7-18.5 14.5-.7.5-1.8.3-2.7.5 0-1-.3-2.1.2-2.8a24.4 24.4 0 0 1 3.8-4.4l11.3-9.7zM310.6 150.4h-1.3l-.2-24.3-.3-1.7h-.6l-.5 2a88 88 0 0 0-2.5 30.2c.2 2.2-1.5 2.7-3.4 1.4.4-1.8 1.5-3.6 1.3-5.3a65 65 0 0 1 5.3-34.7c3.9-8.5 8.3-16.9 12.7-25.3a16.6 16.6 0 0 1 5.2-5.7l-10 21.5c-.4 1-.8 1.9-1 2.8a111.7 111.7 0 0 0-4.7 39.1zM385.9 174.2c5.6 2.8 10.5 5.2 15.3 7.8 2.1 1.2 5.7 2.6 4.1 5.5-1.5 2.7-4.5.3-6.6-.8-5.7-3.2-11.4-6.6-17-10-2.7-1.7-2.7-4 0-5.6l17.6-11.2a4.8 4.8 0 0 1 2.3-1.1 23.3 23.3 0 0 1 4.2 1c-.6 1.2-.9 3-1.9 3.6-4 2.6-8.3 5-12.5 7.4l-5.5 3.4z"/><path class="d" d="M385.2 144.4l-2.4-.7c-1.8-5.6-4.6-11.1-5.4-16.9a65.3 65.3 0 0 1 6.2-38.5l-.8 5.8-1.1 5.9a36.8 36.8 0 0 0 1 18c1 9 4.6 17 9.7 24.4 1.2 1.7 3 2.9 4.7 4.2l-2.5 1.7c-3.2-4.5-6.7-8.7-9.5-13.4-1.9-3.2-2.8-7-4.2-10.8-1.7 3.2 0 10.7 4.3 20.3z"/><path class="a" d="M394.6 148.3l2.5-1.7.7-8.9c.1-8.6 1-17.2.3-25.7-1-10.4-3.3-20.6-5.1-31.3 1.2 1.9 3 3.6 3.4 5.6 1.9 8.7 4.3 17.5 5 26.3.6 10.3-.4 20.7-.7 31l-1.1 2.4-2.6 5.4z"/><path class="d" d="M353 209.8a14.2 14.2 0 0 1 2.2.9c4.6 3.2 5.2 3 8.7-1.1.4-.5 1.4-.6 2.2-.8.2 1 .9 2.6.6 2.8-2.3 1.6-4.8 3.7-7.4 4-3 .4-5.2-2-6.3-5.8zM348.3 126.4v-3.6l.8-.2.7 3.9zM307.8 126.3l.4-1.9h.7l.2 1.7zM348.2 143.2l-.2-1.3 1.4.4zM369.8 477.3l-2.1 1.6c.6-3.1 1-6.3 2-9.3 3.8-11 7.3-22.1 5.6-34l1-.2a58.2 58.2 0 0 1 1.3 7.1c.6 10.4-3 20-6.4 29.4-.7 1.8-1 3.6-1.4 5.4z"/><path class="h" d="M473.6 163.2l-.2.2.2-.2z"/><path class="x" d="M397.8 137.7l-.7 9c-1.6-1.4-3.5-2.6-4.7-4.3a52.7 52.7 0 0 1-9.8-24.5l8.8 11.5 6.4 8.3zM364.1 140.8c-7.1.2-5.7.8-8.3-5.3a56.1 56.1 0 0 1-4.6-33.2c.5 2.8 1.6 5.5 1.4 8.3-.2 6.9 3.2 12.6 5.7 18.6 1.7 4 3.9 7.7 5.8 11.6z"/><path class="a" d="M418.6 115.1v.3a2.6 2.6 0 0 1-.3-.4l.2-.1zM296 157c-4.3-9.5-5-19.6-4.9-29.8-2.3 9.4-.3 18.6.6 28.1l-2.2-3.7c-2.4-9-3.3-18.3-.4-27.3 3.2-10.6 7.2-21 11.2-31.2 1-2.7 3.5-4.8 5.3-7.1v-.1l-4.4 11.3-.7 1.7a95.7 95.7 0 0 0-4.2 53.4c.3 1.5-.2 3.1-.3 4.7z"/><path class="x" d="M296 157c0-1.6.6-3.2.2-4.7a95.6 95.6 0 0 1 4.2-53.4l.8-1.7c.3 1 1 2 1 3-2.2 12.7-4.5 25.4-4.2 38.4 0 6.7.6 13.1 3 19.4l-2 1.3-3-2.4zM310.6 150.4c-.3-13.2.3-26.4 4.6-39l1-2.9c0 2.7 0 5.3-.2 8-.6 5.5-1.7 11-2 16.5-.2 4.1.5 8.3.8 12.5l.5 5.5-4.2 1.9z"/><path class="p" d="M347.6 101.7l-1 32.2a83.8 83.8 0 0 1 0-32.3z"/><path class="a" d="M305.6 86a1.1 1.1 0 0 1 .1-.3h.2l-.4.2z"/><path class="g" d="M450 517l.2.2h-.4a.8.8 0 0 1 0-.2h.3z"/><path class="b" d="M414 389.2l9.3 8.3c5.2 4.7 10.5 9.2 15.3 14.3 4 4.2 7 9.2 5.7 15.5a6 6 0 0 1-1 2.2c0-10.4-6.3-17-13.3-23.3-4.4-3.9-8.8-7.8-13-11.8-1.5-1.3-2.7-2.8-4-4.2z"/><path class="a" d="M411.6 386.4l1.7 2.1-.7.7-1.8-2z"/><path class="h" d="M269.6 101.7l-.2.3.2-.3z"/><path class="r" d="M302.6 389l-.1-1 5.3-2.8zM307.8 385.2l.3-.3-.3.3z"/><path class="a" d="M343.1 246.4l-.4.4.3-.5z"/><path class="e" d="M358.3 260.9c.8 2 1.8 3.3 1.7 4.5a43.5 43.5 0 0 1-1.4 7.3 2.1 2.1 0 0 1-1.5 1.4c-.5 0-1.5-.7-1.5-1.1a43.5 43.5 0 0 1-.3-8c0-1.1 1.4-2.1 3-4.1z"/><path class="d" d="M268.1 394.2l-.8.8zM268.8 393.4l-.8.8z"/><path class="b" d="M206.6 524.7l-.8-.8z"/><path class="q" d="M248.6 542c-1-5.8 1.9-10 5.2-14.2 3.6-4.6 6.9-9.4 10.4-14.3l6.3 9.5c1.5-1.6 2.5-3.4 4-4.3 3-1.8 6.4-3 9.5-4.5 2.2-1.1 3.5-.7 4.3 1.6 1.9 5.8 3.5 11.4.3 17.4-3.6 6.8-6.5 14-9.8 21a19.4 19.4 0 0 1-1 1.7l-1-.7a10 10 0 0 1 .5-2.3c3.5-8 7.5-15.7 10.5-23.9 1-2.7-.6-6.3-1-10.6l-9.5 10.8c.3.9 1.4 2.3 1.2 3.6-1 8.4-2 16.8-3.5 25.1-.3 1.8-2.4 3.4-3.8 5l-12.8 13.6a61.6 61.6 0 0 1-2.2-5.9c-2.1-8.3-4-16.7-6.2-25a26.4 26.4 0 0 0-1.5-3.7zm19.2-12.3c-3.8 4.1-7.2 7.8-6.7 13.9.2 3.4-.9 6.9-1 10.4-.2 5.3 0 10.7 0 16.2 2.6-2.5 5.1-4.7 7.4-7.1 1.8-2 4.2-4 4.8-6.5 1.7-7.1 2.7-14.4 3.9-21.3z"/><path class="q" d="M248.6 542l-.3 3.4-6.6.5 11.5 24.6a14 14 0 0 1-2.8-1c-1.7-1.4-3.2-2.9-5-4-11-7.8-11.4-18.3-7.4-30.2 4.7.2 6.8 5 10.6 6.7z"/><path class="d" d="M224.6 704l.3.2h-.2a.8.8 0 0 1-.1-.3z"/><path class="e" d="M494 585.5c-.2 9.5 8.2 12.7 15.3 9.7 6-2.5 11.1-7 16.6-10.7l4.7-3.6c-.3 1.2-.2 2.7-1 3.4a63.4 63.4 0 0 1-19.5 14c-5.1 2.5-16.4-1.4-17.3-6.7-.4-2-2-4.5 1.1-6zM552.3 585.4l9.4 2.4 2.7 1.4c5.4 2.8 5.8 5.3 1.1 9.4-4 3.4-8.4 6-14 5.6-.2-1.4-.2-2.7 1.8-3a4.6 4.6 0 0 0 1.7-.6l10.2-5.8.1-1.4-7-4-6-4z"/><path class="q" d="M479.8 550.8c-1.8 1.5-3.1 3.2-3.7 3a9.8 9.8 0 0 1-4.6-3.2c-.3-.5 1.5-2.6 2.4-4z"/><path class="ab" d="M267.8 529.7l8.4 5.5c-1.2 7-2.2 14.3-4 21.4-.5 2.4-3 4.5-4.7 6.5-2.3 2.4-4.8 4.6-7.5 7.1v-16.3c.2-3.4 1.4-7 1-10.3-.4-6 3-9.8 6.8-13.9z"/></svg>