<svg xmlns="http://www.w3.org/2000/svg" width="340" height="422.9"><defs><style>.a{fill:#ceeff1}.b{fill:#6972b0}.c{fill:#676eac}.d{fill:#fbfbfb}.f{fill:#7983b8}.g{fill:#8c9ec7}.h{fill:#fbede4}.i{fill:#fefefe}.j{fill:#febbe1}.k{fill:#fdfdfe}.l{fill:#fef7f8}.m{fill:#fdfdfd}.s{fill:#fcfcfd}.y{fill:#fe5257}.z{fill:#4f99dc}.ab{fill:#fdbbe1}.ac{fill:#fcbde1}.ad{fill:#4f9adc}.ae{fill:#509adc}.af{fill:#faf6f8}.ag{fill:#fcbce1}.ah{fill:#f9f5f7}.ai{fill:#f8f4f7}.ak{fill:#f8f5f7}.aq{fill:#745564}.as{fill:#f8bce0}.bd{fill:#5c370e}.bg{fill:#a6cbeb}.bm{fill:#21496d}</style></defs><path d="M52.5 261.3c.5 1.4.3 1.7-1 1.8s-3 0-4.5 0c.1-.6.6-.4 1-.4h3.3c-4.6.2-9.2.1-13.8.5-2.1.1-4.2 0-6.3.2-1.7.2-2.1-.3-2.4-2-.3-1.4-.3-2.9-.4-4.3A63.6 63.6 0 0 1 39 214.7c4.1-6 8.6-11.9 12.9-17.8a101.4 101.4 0 0 0 15.8-33l3.2-12a66.1 66.1 0 0 0 1.2-8.9 47.4 47.4 0 0 0 .3-8.6c-.2-3.4-.8-6.7-1-10.1a183.2 183.2 0 0 1-1.1-23 120 120 0 0 1 6.5-39.6 95.4 95.4 0 0 1 11.4-22.4 79.9 79.9 0 0 1 9.1-11A78.8 78.8 0 0 1 112.8 16a69.6 69.6 0 0 1 23-9 87.3 87.3 0 0 1 21-1.5 105.8 105.8 0 0 1 18.3 3 65.7 65.7 0 0 1 15 5.5 79.4 79.4 0 0 1 20.3 14.3A65 65 0 0 1 224 48.8a86.6 86.6 0 0 1 3.6 10.5 30.5 30.5 0 0 1 .8 6.1 63.8 63.8 0 0 1-1 17.4 69.3 69.3 0 0 1-7.2 19.8 38 38 0 0 1-7.6 9.4 1.6 1.6 0 0 1-2 0l-7-2.9c-4.6-2-9.3-3.7-14-5.5-1.5-.6-1.6-.9-1-2.3a75.3 75.3 0 0 0 7.3-25.7 99 99 0 0 0 .7-15.2 54.2 54.2 0 0 0-3.6-18.2 52.6 52.6 0 0 1 3.3 15.8 57.1 57.1 0 0 1-3.4 25.4 46.8 46.8 0 0 1-11.7 17.3 1.6 1.6 0 0 1-1.5.5l-24-9.4c-1-.4-1.2-.7-.6-1.8a37.5 37.5 0 0 0 2.6-4.8 89.4 89.4 0 0 0 8.2-20.4 70.2 70.2 0 0 0 2.5-17.4v-8a13.2 13.2 0 0 1-.3-2.2c0-.2-.2 0 0 0a68.3 68.3 0 0 1-.5 18.2 48.2 48.2 0 0 1-4 12 57.8 57.8 0 0 1-10 15 45.9 45.9 0 0 1-6 5.3 2.2 2.2 0 0 1-2.5.3c-6.2-2.8-12.5-5.5-18.9-7.9l-9.7-3.7c-.6-.8.2-1 .5-1.3l4.3-3.6a99.8 99.8 0 0 0 14.5-16l.8-1a77.6 77.6 0 0 0 10.6-22.3l.3-1.5c0-.1.2-.2 0-.4 0-.2 0 0 0 0a73.3 73.3 0 0 1-10.3 23.2l-.5.8a81.8 81.8 0 0 1-8 9.8 146.3 146.3 0 0 1-12.2 11.4c-.4.3-1 .5-.2 1 1.8.6 3.6 1.3 5.3 2.1 1 .4 1.2.8.4 1.5a48.5 48.5 0 0 0-11.5 24.4c-.8 3.3-1.2 6.6-1.7 9.9 0 .4 0 .9-.5 1.2a1.6 1.6 0 0 1-.7-1.5 88.6 88.6 0 0 1 0-9 14.7 14.7 0 0 0 .3-2 4.3 4.3 0 0 1 0-.6 51.1 51.1 0 0 1 2.1-9.1 60.9 60.9 0 0 0-1.9 8 65.5 65.5 0 0 0-.5 14.8c.2 3.4 1.2 6.6 1.7 10a43.7 43.7 0 0 0 2.7 9.3c.2.4.5.9 0 1.1s-.7-.2-1-.5a41.7 41.7 0 0 1-7.6-9.8 2.4 2.4 0 0 0-.5-.8s-.2.2 0 0a68.2 68.2 0 0 0 4 6.2c1 1.2.5 2.6.5 3.9 0 3.5 0 7 .2 10.5a85.2 85.2 0 0 0 2.3 15.5 33 33 0 0 0 6.9 13.6c1.1 1.3 2 2.9 3.1 4.2l1 1.4c2 3.8 4 7.6 4.6 12a6.5 6.5 0 0 0 .1 1 29.5 29.5 0 0 1 .1 4c0 1.2-.4 1.5-1.6 1.3a35 35 0 0 1-8.2-2.1c-2.2-.8-4.4-1.8-6.5-2.8-.7-.3-1.3-.7-1-1.6 2.1-5.5 1-10.7-1.1-16-1.6-4-3.8-7.8-5.4-11.9s-3-8.2-4.3-12.3a55 55 0 0 1-2.7-11.2l-1-9.8c-.4-6.1-.4-12.3-.4-18.5a180 180 0 0 1 1.2-19 96.8 96.8 0 0 1 4.5-20.4c1-3.2 2.4-6.3 3.7-9.4.5-1.3.8-1.3 1.7-.3a4.7 4.7 0 0 0 7.7-.7 8.3 8.3 0 0 0 1-3.3 1.5 1.5 0 0 1 1.1-1.5c4-1.3 4.2-5.9 1.5-8.9-.4-.4-1.4-.5-1-1.4a2.9 2.9 0 0 1 2.7-1.3 6 6 0 0 0 3.4.3 4.8 4.8 0 0 0 3.7-4.2 10.1 10.1 0 0 0-.6-5.5 1.6 1.6 0 0 1 .4-2.2c.7-.5.8-1.5 1.6-1.8s1.3.8 2 1.2c2 1 4.3-.1 5.6-1.5a4.6 4.6 0 0 0 .7-5.7c-.7-1.2-.9-1.9 0-3a5.7 5.7 0 0 0-.6-7c-3.3-3.1-7.6-3.8-11-1.4a6 6 0 0 0-2.3 3.4c-.3 1-.7 1-1.5.6a13.2 13.2 0 0 0-1.4-.7c-3.4-1.5-6.5.4-6.9 4.1a7 7 0 0 0 .2 2.8 1.7 1.7 0 0 1-.7 2 3.8 3.8 0 0 0-1.5 3.3c0 1.3-.3 1.6-1.6 1.5a4.6 4.6 0 0 0-5 3.1c-1 2.5-.5 5.3 1.5 6.9a2.4 2.4 0 0 1 .8 1c.4 1.2 0 1.7-1.1 1.8a4.2 4.2 0 0 0-2.2.5c-1.4 1-2.4 2-2.1 3.9 0 .8-.1 1.4-.9 1.5-4.1 1-4.7 6.6-.8 9.4a6.1 6.1 0 0 0 5 1.4c1-.2 1.1 0 .7 1l-2.6 6.7a86.2 86.2 0 0 0-5.2 19.3 168.7 168.7 0 0 0-1.5 16.9c-.4 6.2-.3 12.5-.2 18.7a118.5 118.5 0 0 0 2 21 100.7 100.7 0 0 0 4.4 14 115.2 115.2 0 0 0 6.4 14 12.8 12.8 0 0 1 .9 2.4c.3 1 0 1.2-1 1.1a29.5 29.5 0 0 0-8.8.6 18.5 18.5 0 0 0-14 16.2 28.8 28.8 0 0 0 1.2 12 60.7 60.7 0 0 1 1.6 7.4 18.6 18.6 0 0 0 4.1 9.3 3 3 0 0 1 .8 2.8 41 41 0 0 0 1.3 23c.2.6.9 1.4.1 1.8s-1-.7-1.3-1.2a59.5 59.5 0 0 1-9.9-25.3c-1.8-11.5-1-23 1.3-34.3.5-2.8 1.1-5.5 1.8-8.2a139.7 139.7 0 0 0-3.7 21.3 85.5 85.5 0 0 0-.4 11.4c.4 10.2 2.4 20 7.1 29.1a52.7 52.7 0 0 0 8 11.2c.2.3.7.6.5 1s-.8.3-1.2.3l-18.6-.5a2.9 2.9 0 0 1-2.4-1.5 70.8 70.8 0 0 1-8-16A73.3 73.3 0 0 1 62 222a38.5 38.5 0 0 1 3.4-22.3c4.5-9 9-18.2 13-27.6a83.8 83.8 0 0 0 5-16 49.7 49.7 0 0 0 .7-10.5 52 52 0 0 1-4.5 23c-2.6 6.7-5.7 13.2-8.7 19.6-4.6 9.6-9.5 19-13.3 29a103 103 0 0 0-5.7 19.4 65.8 65.8 0 0 0-.6 16.5l.8 6.6c0 .6 0 1.1.4 1.5z" class="a"/><path d="M116.3 76.3a10.2 10.2 0 0 1 2.8.9c8.9 3.3 17.7 6.6 26.3 10.6a1.8 1.8 0 0 0 2-.3 49 49 0 0 0 14-16.6 48.5 48.5 0 0 0 6.4-19.6 74.3 74.3 0 0 0 .3-13 13 13 0 0 1 0-2 79 79 0 0 1-10.1 49c-.3 0-.4-.1-.5-.3a9.9 9.9 0 0 1 1.4-3.4 116.5 116.5 0 0 0 5.5-14.4 12.7 12.7 0 0 0 .7-1.8 46.7 46.7 0 0 1-6 11.5A46.5 46.5 0 0 1 148.5 88a3.5 3.5 0 0 1-4 .4c-6.5-2.9-13.2-5.5-19.8-8.1a2.2 2.2 0 0 0-2.6.6 32.7 32.7 0 0 0-7.3 12.2c-2.9 7.3-4.3 15-5.4 22.6-.8 5.3.6 10.2 2 15.2a39 39 0 0 0 2.6 6.9c.2.4.6.9.1 1.2s-.8-.1-1.2-.4a56.8 56.8 0 0 1-4.6-4.4 10.4 10.4 0 0 0 2.8 4.4 93.1 93.1 0 0 0 14 11.7 78.3 78.3 0 0 0 6.6 4.2 30.7 30.7 0 0 0 12.9 3.6 61.3 61.3 0 0 0 25.2-3.3 27.6 27.6 0 0 0 13.4-10.5 46.7 46.7 0 0 0 5.8-11.7 125.6 125.6 0 0 1 5.8-14.4 23.2 23.2 0 0 1 6.6-8.1 2.4 2.4 0 0 0 .8-.8 20.4 20.4 0 0 0-2.5-1.2q-5.5-2.3-11.1-4.4c-1.5-.5-1.7-.8-1-2.3a67.8 67.8 0 0 0 6.3-18.3l.7-3a39.4 39.4 0 0 1-6 12.9 44.2 44.2 0 0 1-5.8 6.9 2.5 2.5 0 0 1-1.6 1c-.2 0-.4-.2-.3-.5a64.7 64.7 0 0 0 7-8.4 49.8 49.8 0 0 0 8-23.6 68.7 68.7 0 0 0-1.5-21.4l-1.7-5.7a37.3 37.3 0 0 1 3 9c1.5 7.4 1.4 14.7.8 22a86.4 86.4 0 0 1-4.3 21.6 58.5 58.5 0 0 1-3.4 7.7c-.4.8-.4 1.1.5 1.5a370 370 0 0 1 18.7 7.4l3 1.3a1.2 1.2 0 0 0 1.7-.3c8.3-8 12-18.3 14.4-29.2a57.8 57.8 0 0 0 .6-20.9 52.1 52.1 0 0 0-4.3-13.1 63.9 63.9 0 0 0-13.2-19.6 77.4 77.4 0 0 0-28-17.8 89.6 89.6 0 0 0-20.7-4.7 68.7 68.7 0 0 0-12.8-.5c-11.1.7-21.9 2.9-31.9 8.3a80 80 0 0 0-17.3 12.4 91.9 91.9 0 0 0-25.8 46.6 123.8 123.8 0 0 0-3.1 22.2 167.5 167.5 0 0 0 .1 18.8c.4 6.3 1 12.5 1.8 18.7a48 48 0 0 1-.1 10.4 127.9 127.9 0 0 1-8.7 33c-3.4 9-8.7 17-14.4 24.6-4.5 6-9 12-12.8 18.5a59.5 59.5 0 0 0-7.9 24.7c-.4 4.2-.2 8.5-.2 12.8.1.3.3.7-.2.8-.4-.2 0-.7-.3-1v-.5c-.3-1.2.1-2.4-.2-3.6v-.9a7.1 7.1 0 0 1 0-3v-1.2c.3-1 0-2.2.2-3.3v-.4c.3-.7 0-1.4.3-2a.2.2 0 0 0 0-.3c.2-.5 0-1 .2-1.5a.2.2 0 0 0 0-.2c.3-.4 0-1 .2-1.3a49.6 49.6 0 0 1 2.7-10 78 78 0 0 1 10.4-18.5c4.6-6.5 9.6-12.8 13.9-19.5 5.6-8.7 9.3-18.3 12-28.3a119.3 119.3 0 0 0 3.4-13.4 77 77 0 0 0 1-13c0-3-.7-6-1-8.9-2-18.1-2.4-36.2 1.8-54.1a97.2 97.2 0 0 1 13-31c.6-.8.4-1-.5-1.2a11.7 11.7 0 0 1-6.5-3.8c-.5-.6-.9-.6-1.5-.2a40.8 40.8 0 0 0-10.7 9.3 76.5 76.5 0 0 0-15 32 143.3 143.3 0 0 0-3.2 24c-1 14.7-.5 29.3-.5 44 0 8.5 0 17-.5 25.7-1 13-3.1 26-8.3 38.1a68.2 68.2 0 0 1-11.8 19 1.8 1.8 0 0 0-.2.2 3.7 3.7 0 0 1-.8 1 23.6 23.6 0 0 1-3.1 2.8c-.4.1-.7.3-.8-.3a77.2 77.2 0 0 0 5.3-12.9l1.7-6.3c.3-.4 0-.9.3-1.3a.2.2 0 0 0 0-.2c0-.2.4-.7-.4-.5a32 32 0 0 1-3.9 5.3 26.5 26.5 0 0 1-12.5 7.1l-3 .9c-.4.2-1 0-1.3.2h-.2c-.4.2-1 0-1.3.2H7c-.5.3-1.1 0-1.6.2H5c-.8.3-1.6 0-2.3.2h-.2a4.3 4.3 0 0 1-1.8.2c-.7 0-.6-.4-.5-.9l5.3-5.3c.7-.9 1.6-1.5 2.3-2.4l2.2-2.3a11.8 11.8 0 0 0 .8-1 93.4 93.4 0 0 0 12.7-17.4 92.6 92.6 0 0 0 7.8-18.2 110.7 110.7 0 0 0 3.5-14.8 1.8 1.8 0 0 1 .2-.5c.3-.4 0-.9.3-1.3a.2.2 0 0 0 0-.2c.2-.4 0-.9.2-1.3a.2.2 0 0 0 0-.2c.2-.4 0-.9.2-1.3a.2.2 0 0 0 0-.2c.3-.5 0-1 .3-1.5a.2.2 0 0 0 0-.2c.2-.5-.1-1 .2-1.6a.2.2 0 0 0 0-.2c.3-.5-.1-1.2.2-1.8a.2.2 0 0 0 0-.2c.3-.5 0-1.2.3-1.8a.2.2 0 0 0 0-.2c.3-.6-.1-1.4.2-2a.2.2 0 0 0 0-.2c.3-.8-.1-1.6.2-2.3a.1.1 0 0 0 0-.2c.4-.8 0-1.8.3-2.6a.1.1 0 0 0 0-.2c.3-.8-.1-1.7.2-2.5v-.5c.3-1 0-2 .3-3v-.4c.3-1.2-.2-2.5.2-3.6v-.4c.3-1.3-.1-2.6.2-3.9v-.4c.4-1.5 0-3 .3-4.6v-.6a25.6 25.6 0 0 0 .1-3.6c0-.4-.1-.9.1-1.3v-.6a30.2 30.2 0 0 0 .1-3.8c0-.5 0-1 .2-1.3v-.7a25.6 25.6 0 0 0 0-3.5c0-.5 0-.9.2-1.3v-.7c.3-1.4-.1-2.9.2-4.3v-.5c.4-1.3 0-2.7.3-4V97c.3-1-.1-2.2.2-3.3v-.4c.4-1 0-2 .3-3v-.5c.3-.8-.1-1.7.2-2.6V87c.3-.8 0-1.6.2-2.3V84c.3-.7 0-1.5.3-2.3a.1.1 0 0 0 0-.2c.3-.6-.1-1.4.2-2a.2.2 0 0 0 0-.2c.3-.6 0-1.3.2-1.8V77c.3-.5 0-1 .3-1.5a.2.2 0 0 0 0-.2c.3-.6-.1-1.3.2-1.8a.1.1 0 0 0 0-.2c.3-.5 0-1.1.3-1.6a.1.1 0 0 0 0-.2c.2-.4 0-.9.2-1.3a.2.2 0 0 0 0-.2c.2-.4 0-.9.2-1.3a.2.2 0 0 0 0-.2c.3-.4 0-.9.2-1.3a.2.2 0 0 0 0-.2c.3-.4 0-.9.3-1.3a76.3 76.3 0 0 1 1.9-9 81.5 81.5 0 0 1 4.7-14A55.8 55.8 0 0 1 63 23.5a42.1 42.1 0 0 1 22-10.5 7.3 7.3 0 0 0 .8-.3c.4-.3 1 0 1.5-.2a.1.1 0 0 0 .2 0c.4-.4 1 0 1.5-.3C90.3 6.6 92.8 2 99 .3a11.2 11.2 0 0 1 4.2.1 17.8 17.8 0 0 1 7.3 3.7 5.7 5.7 0 0 1 1.5 1.5 17.8 17.8 0 0 1 3.8 7.1c.1.9.6.6 1 .4 1.8-.8 3.6-1.8 5.4-2.5a65.6 65.6 0 0 1 11.4-3.5 4.4 4.4 0 0 0 .7-.3c.3-.3.8 0 1.2-.2a2.9 2.9 0 0 0 1.5-.3c.4-.3 1 0 1.3-.2h.5c.4-.3 1 0 1.5-.2a.2.2 0 0 0 .2 0c.4-.3 1 0 1.3-.3h.7c.4-.2.9 0 1.3-.2A8.5 8.5 0 0 0 146 5c.7-.3 1.4 0 2-.2h.5a19.2 19.2 0 0 1 5 0h.4c1.1.3 2.3-.1 3.4.2h.4c.6.3 1.4 0 2 .2h.5c.5.3 1 0 1.5.2a23.5 23.5 0 0 0 5 .8c.4.3.9 0 1.3.3a.2.2 0 0 0 .2 0c1 .2 2 0 2.8.6l10 2.5c4 1.1 7.8 3.2 11.6 5.1l4.1 2.3a94 94 0 0 1 11 8 5.8 5.8 0 0 0-.3-2c-.6-4.5 0-8.5 3.9-11.3 3-2.2 6.4-2.5 10-1.9a14.4 14.4 0 0 1 8.3 4.7c3.8 4.3 6.2 9.2 5.8 15a4.7 4.7 0 0 0 1.8 4.3 70.3 70.3 0 0 1 19 28.7 58 58 0 0 1 2.5 17.1c.3 14-.1 28-.8 42-.6 12.4-1 24.9-.5 37.3a302.7 302.7 0 0 0 3.4 38.1c1.3 8.5 3 17 6.7 24.8a47.8 47.8 0 0 0 10.3 14.2c3.2 3 7.2 4.1 11.3 5.3-.2.6-.7.7-1.1.8a28.7 28.7 0 0 1-28.1-3.3 20 20 0 0 1-7.4-12.2 46.5 46.5 0 0 1-1.2-10.3c-.2-9.5.6-19 .8-28.4 0-3 0-6.1-.2-9.1-.3-5.8-.2-11.6-.3-17.4a758 758 0 0 0-1.1-33.7c-.9-14-2.3-27.7-5.7-41.3a72.6 72.6 0 0 0-10-22.6c-.5-.8-1-1.3-2-1a7 7 0 0 1-3 .4c-.7 0-1 0-1 .9a64.9 64.9 0 0 1-6 34.2 42.4 42.4 0 0 1-8 12c-.8.8-1.4 1.7-2.3 2-2.8 1.1-3.4 4-4.8 6a35.2 35.2 0 0 0-3.5 7.2 60 60 0 0 0-3.3 27.5c1 10.6 4.6 20.4 9.2 29.9 3.2 6.6 7 13 10.3 19.5a82 82 0 0 1 6.4 15.8 38 38 0 0 1-.2 21 3.8 3.8 0 0 0 0 2.4c3.1 9 4 18.3 4.1 27.8l.3 12c-.6 0-.5-.4-.7-.8a6 6 0 0 0-.7-1.8v-8.2a104.1 104.1 0 0 0-1-16 74 74 0 0 0-1.9-8 202.8 202.8 0 0 0-8-23.9l-2.8-6.5c-.4-1-1-1.3-1.9-.8a3.7 3.7 0 0 1-1 .3c-1 .2-1.6.4-1.6 1.7s-1.1 2.1-2 3a10.8 10.8 0 0 1-5.5 2.6 26.2 26.2 0 0 0-3 .6 3 3 0 0 1-2.6-.6c-.3-.2-.5-.6-1-.6-.2.4.1.8.2 1.1 3.4 8.7 7 17.2 11.3 25.5.4.9 1 1.7.7 2.8-1.6.9-3.2.6-5 .3-.2-.7.4-.6.7-.7a9.6 9.6 0 0 1 2.2 0 65.2 65.2 0 0 1-9.1-1c-1-.1-1.3-.5-1.3-1.4a32.6 32.6 0 0 0-.7-7 5 5 0 0 1-.2-1.5 35 35 0 0 1-3.4 12c-.6 1.1-1.3 2.2-.8 3.6a.8.8 0 0 1-.2.8c-.6.3-.8 0-1-.5 0-.3.2-.7-.2-.9a.6.6 0 0 1-.2-.3 3.2 3.2 0 0 0-.4-1.7 108 108 0 0 0-8.5-17.8 152.2 152.2 0 0 0-12.2-17.1l1 8.7c.3 2.8.5 5.9.6 8.8.1 4 .5 8.2.3 12.2a13.6 13.6 0 0 1-.5 4c-.6.2-.6-.3-.7-.5a4.7 4.7 0 0 1-.2-1.6c0-3.3-.2-6.5-.3-9.8-.3-10.5-1-21-3.5-31.3a2 2 0 0 1 0-.6c.3-.8.7-.5 1-.1a29.6 29.6 0 0 1 1.3 5l.4 1.4c0 1.4 1 2.2 1.8 3.1a123.4 123.4 0 0 1 17 25.8 66.1 66.1 0 0 1 3.7 9.2 28.7 28.7 0 0 0 1.5-3.6l.5-1.7a41.1 41.1 0 0 0 1.8-16c-.2-.8-.1-1.5-.3-2.2a8.5 8.5 0 0 0-2.3-5.4 135.8 135.8 0 0 0-10.5-11.3l-6-5.6a.7.7 0 0 1 .4-.8 2.3 2.3 0 0 1 1.4.8c5.5 5 11 10 15.3 16a2.7 2.7 0 0 1 .6 1 7 7 0 0 0-2.5-4 5.5 5.5 0 0 1-1.7-2.1 2.5 2.5 0 0 0-1.2-1.2 2.7 2.7 0 0 1-1.7-2.7 1.7 1.7 0 0 0-.6-1.5 9 9 0 0 1-3.3-7.6 53.7 53.7 0 0 0-1-12.8c-.1-.8-.4-1.5-.6-2.2 0-.3-.1-.7.3-.9s.7.2.8.5a12.5 12.5 0 0 1 1.1 3.5 55.2 55.2 0 0 1 .8 11.8 9 9 0 0 0 1.1 4.7 8.6 8.6 0 0 0 6 3.8c.1-.3-.2-.5-.4-.8-2.5-3.6-3-7.8-2.5-12 0-.7 0-1.5.8-1.7s1.3.5 1.6 1.1a20.3 20.3 0 0 1 2.6 9 17.6 17.6 0 0 1 0 3.4c-.2.8.2 1 1 1a8.8 8.8 0 0 0 2.4-.7 48.7 48.7 0 0 1 5.7-2.2 9.9 9.9 0 0 0 5.7-4.2 2.7 2.7 0 0 1 .4-.3c0-.3 0-.7.2-1 1.4-3.7.4-7-1-10.4-.2-.4-.6-.8-.5-1.3a25.9 25.9 0 0 0-.9 8 6.3 6.3 0 0 0 1.4 3c.3.5.8 1 .8 1.6-.9.5-1.4-.2-1.8-.7a7.6 7.6 0 0 1-2-6c.2-2.4.8-4.7 1.2-7 0-.5.2-1 .7-1s.7.4.9.7a15.7 15.7 0 0 1 3 10c0 .4-.3 1.1.2 1.4s1.2-.4 1.5-.8a7.7 7.7 0 0 0 1-7.5c-.8-2.7-2.6-4.8-4.4-7s-3.8-4.2-5.8-6.3a4.5 4.5 0 0 0-1.6-1.2 4.6 4.6 0 0 1-1.8-1.8 12.4 12.4 0 0 0-8.3-5.3 16.2 16.2 0 0 0-4.6 0c-3 .4-5.8 1-8.8 1.2a2.1 2.1 0 0 0-1.7.9c-.8-.5-1-.8-.4-2 1.8-.3 3.7-.3 5.5-.6h.5c2-.4 2-.4 1.8-2.3a34.3 34.3 0 0 1 2-16.6 2.2 2.2 0 0 1 .7-1c.4-.1.5.2.6.4a5 5 0 0 1-.4 2 39.3 39.3 0 0 0-1.7 13.6v.2c.2 2.8.2 2.8 2.9 2.7a15 15 0 0 1 12.4 4.9c3.9 3.9 7.7 7.8 11.3 12a20.9 20.9 0 0 1 2.7 4 9.8 9.8 0 0 1-.1 9.8c-.6 1 0 1.8 0 2.7-.1 1.2.6 1.5 1.5 1.8a10.6 10.6 0 0 1 3 1.6 1.5 1.5 0 0 1 .7 2 7.5 7.5 0 0 1-1.7 2.8 1.4 1.4 0 0 0-.3 1.8 148.3 148.3 0 0 1 7.4 18.5 19.7 19.7 0 0 1 1.3 3.7 20.7 20.7 0 0 0 1.1-5.4 42.3 42.3 0 0 0-2-16.8c-2.7-7.7-6.7-14.8-10.5-22-5-9.1-9.7-18.3-12.3-28.4a78 78 0 0 1-2.3-13.6 63.9 63.9 0 0 1 1.5-20 55.6 55.6 0 0 1 8-17.6c1-1.4 1-1.5-.6-2.1l-3-1.2a2.2 2.2 0 0 0-2.5.3c-3.8 2.7-6 6.5-8 10.5-2.6 5.6-4.2 11.5-6.7 17.1a32 32 0 0 1-22 19.2 58.6 58.6 0 0 1-10.7 1.7c-1.4.1-1.6.3-1.6 1.7v1c.1 2.2.3 2.2 2.1 1.2a2.7 2.7 0 0 1 3.2.6 12.6 12.6 0 0 1 3 4.9l1 2.4c-.8 1.2-1.4 2.5-3 2.9-.2-.8.4-1.1.8-1.5a1.8 1.8 0 0 0 .4-2 15.4 15.4 0 0 0-2.6-5.2c-1-1.2-1.8-1.2-3-.1a22.4 22.4 0 0 0-4.1 4.4c-1.3 2.2-2.1 4.5-1.4 7.1a9 9 0 0 1 .3 3.8c-.5.4-.9-.5-1.4 0-.2-1 0-2-.2-3a7.2 7.2 0 0 0-3.7-5.5 69.2 69.2 0 0 0-19-7.1 30.7 30.7 0 0 0-7-.3c-.7 0-1.1.4-1.2 1.1a12.4 12.4 0 0 0 2.4 10.2 21 21 0 0 0 2.3 2.9c.3.6 0 .8-.6.6a3.1 3.1 0 0 1-1.6-1.1l-2.1-2.6a.5.5 0 0 0-.7-.3c.5 1.4 1.9 2.3 2 4a4 4 0 0 1-.7-.5 46.2 46.2 0 0 1-9-15.2A84.6 84.6 0 0 1 108 152a92 92 0 0 1-.8-13.5 26 26 0 0 1 0-3.7 5.7 5.7 0 0 0-1.4-4.7 14 14 0 0 1-3-5.3c2.8 4 5.5 8.2 9.5 11.7l-1-2.4a77.8 77.8 0 0 1-3.8-17.4 59.9 59.9 0 0 1 .3-14.9 3.6 3.6 0 0 1 .2-.7c.7.3.4.8.3 1.3v.5c-.3.6 0 1.3-.2 2a71.4 71.4 0 0 0 .2 10.2c2.3-13 4.4-26 14-36.2-1.8-1-4.1-1.5-6-2.8z" class="b"/><path d="M52.5 261.3v.4c-.3.2-.2-.1-.2-.2a51.2 51.2 0 0 1-1.3-7.6 78 78 0 0 1 6.3-36.8c3.1-8.2 7-16.1 10.8-24 4.2-8.6 8.4-17.2 11.8-26.1a54.6 54.6 0 0 0 4.1-22.8 4 4 0 0 1 0-.9 50.2 50.2 0 0 1-2 20.2 173.8 173.8 0 0 1-8 19.2l-8 16.6a37 37 0 0 0-3.7 20.9A75.8 75.8 0 0 0 74 253.6a2.7 2.7 0 0 0 2.6 1.4l13.6.4a53.9 53.9 0 0 0 5.8.1l-2.5-2.6A54.5 54.5 0 0 1 81.8 228a76.6 76.6 0 0 1-1.7-19.6 116 116 0 0 1 4.3-27 1.4 1.4 0 0 1 .4-.7l-1.6 8a106.2 106.2 0 0 0-2.4 25.9 63.6 63.6 0 0 0 10.8 34.5 3.3 3.3 0 0 0 1.2 1.3l-1.4-4.5a40.9 40.9 0 0 1-.5-20.4 1.8 1.8 0 0 0-.2-1.9 20.7 20.7 0 0 1-5-12.2c-.4-2.8-1.5-5.4-2-8.1-1.2-6-.9-11.7 2.2-17s7.7-8 13.5-9.1a22 22 0 0 1 7.1-.1c1 .1.7-.3.5-.8a72.2 72.2 0 0 0-3.2-7 129.7 129.7 0 0 1-7.5-19.9c-1.6-5.1-2-10.5-2.5-15.8a200.7 200.7 0 0 1-.5-25.1c.4-11.8 1.6-23.5 5.5-34.7 1.3-3.8 2.8-7.5 4.3-11.4a5.5 5.5 0 0 1-5-.6 7.1 7.1 0 0 1-3.4-4.1 5 5 0 0 1 3.3-6.4c.7-.3.9-.5.8-1.2a4.4 4.4 0 0 1 4.3-5c.4 0 1.2.4 1.3-.2a1.8 1.8 0 0 0-.8-1.8 6.4 6.4 0 0 1-.3-9.5 5 5 0 0 1 4.1-1.1c.8 0 1-.2 1-1a4.2 4.2 0 0 1 2-4c.6-.3.4-.7.3-1.1a7.5 7.5 0 0 1 0-4.3c1-3.4 3.8-4.7 7-3.3L120 20l.9-2.1A7.1 7.1 0 0 1 128 14a9.3 9.3 0 0 1 5.8 2.7 6 6 0 0 1 .4 8.5c-.4.4-.3.6 0 1 3.1 4 0 8.2-3.6 8.9-1.6.2-2.6-.1-4.4-1.8a8.2 8.2 0 0 1-2 2.5c-.3.3 0 .6.1.8a10.8 10.8 0 0 1 1 5.5c-.2 3.6-3.1 6-6.6 5-1.7-.4-2.6.2-3.5 1.2 2.7 2 3.7 5.1 2.5 7.7a4.7 4.7 0 0 1-3 2.6c-.7.1-1 .4-1 1.1-.1 3.4-2.3 5.9-5.2 6a4.6 4.6 0 0 1-4.5-2.5c-.5 0-.4.4-.5.6a93.7 93.7 0 0 0-7 22 151.6 151.6 0 0 0-2 15.8 216.1 216.1 0 0 0-.4 21.9c.3 8 .5 16 2.5 23.7a130.6 130.6 0 0 0 9 24.8 39.7 39.7 0 0 1 4.3 12.3 15.3 15.3 0 0 1-1 8c-.4.8-.2 1 .5 1.4 4.2 1.7 8.3 3.7 12.8 4.6a12 12 0 0 0 1.3.2c2 .2 2 .2 2-1.8v-3.2c.3-.2.5 0 .6.2a1 1 0 0 1 .2.3l-.1 3.8c-.2 1.8-.3 1.9-1.7 1.7-.5 0-.5.4-.6.7s0 .9-.5 1l-.2-.1c0-1.7-1.3-2-2.6-2.2-4-.7-7.5-2.6-11.2-4.2a5.8 5.8 0 0 1-1.2-.7 1.1 1.1 0 0 1-.4-1.4l.7-2.3c1-3.8.2-7.5-.8-11.2a1.4 1.4 0 0 0-1.4-1c-6.4-.5-12.2.8-16.8 5.4a17.6 17.6 0 0 0-5.1 12 28.8 28.8 0 0 0 1.9 12.4 8.3 8.3 0 0 1 .4 2.3 23.4 23.4 0 0 0 2.8 9.9 2.4 2.4 0 0 0 2.2 1.3 22.9 22.9 0 0 1 7 1.8 18.6 18.6 0 0 0 5.8 1.5 31.7 31.7 0 0 1-2.3-5.5 14.1 14.1 0 0 1-.5-7c.2-1.4.6-1.5 1.7-.8a13.7 13.7 0 0 1 6.1 10.6 10 10 0 0 1-.2 1.8c0 1.2 0 1.3 1.2 1a20.5 20.5 0 0 0 6.2-2.1c3.4-1.8 6.7-3.8 10.5-4.8 1.1-.2 1-.3.3-1a14.6 14.6 0 0 1-4.2-12.4 4 4 0 0 1 .4-2c1 .3.8 1.4 1.2 2-.7 2.7 0 5.2 1 7.7a9 9 0 0 0 2.4 3.4c.5.5.8.4.9-.4a18 18 0 0 0-.2-6.3 3.2 3.2 0 0 1-.2-1.7c.4-.5.8-.9 1.4-.5 0 1.7.6 3.3.6 5a12.3 12.3 0 0 1-.4 4c0 .1.2 0 0 0s0 0 0-.1c1-2.8.9-5.7 1.1-8.5a2.4 2.4 0 0 1 1-.7c.6-.2 1.2-.3 1 .6-.3.3-.7.6-.6 1.2a13.6 13.6 0 0 1-1 6.6c-.2.9-.1 1.3.9 1.5a12.8 12.8 0 0 0 3.6.6 1.6 1.6 0 0 0 1.6-1.1c.5-1.1.9-2.1 0-3.2a1.4 1.4 0 0 1 1.7.1c.7 1.1 0 2-.3 3s-.5 1.8.3 2.6a3 3 0 0 1 .5 2.4 7.2 7.2 0 0 1-4.4 6.7l-3.4 1.6c-.6.3-.8.6-.2 1 3.9 3.5 6.8 7.7 10.2 11.6l.5.4.2.3c.8.8.8.8 1.4-.2a36 36 0 0 0 2.4-6.8 57 57 0 0 0 2.5-18.4v-5.9a3.8 3.8 0 0 0-.4-1.9c0-1 1-.5 1.4-1a7.4 7.4 0 0 1 .4 2.7 65.3 65.3 0 0 1-4 29.3l-1.2 2.8a1.8 1.8 0 0 0 .4 2.4c2.7 2.9 6.2 5 9.4 7.3l7.3 4.9a2.9 2.9 0 0 1 1.2 1c0 .4-.3.6-.6.8a1.6 1.6 0 0 1-1.2-.5c-5-3.2-9.9-6.5-14.5-10.2-3.3-2.6-5.8-5.8-8.5-9-2.5-3-5-6-7.6-8.7a2.5 2.5 0 0 0-2.6-1 4.4 4.4 0 0 1-1.6.2c-.7 0-1 0-.8.8s-.2 1-.9.6a3 3 0 0 0-2.4 0 36.1 36.1 0 0 0-6.2 3 30.9 30.9 0 0 1-7.2 3 10.8 10.8 0 0 1-4-.1c2.3 2.2 4.3 4.4 6.5 6.4 1.8 1.6 3.4 3.3 5.2 4.8 1.3 1 2.4 2.2 3.6 3.3 2 2 4.3 3.8 6.3 5.8 6.3 6.3 14 10.4 21.6 14.5.6.3 1.3.5 1.4 1.3a.8.8 0 0 1-.4.6 1.7 1.7 0 0 1-1.3-.3c-4-2.2-8.2-4.4-12.1-7-.9-.5-1-.2-1.4.6-2.7 6-6.9 10.5-13.3 12.5-2.4.8-5 1.3-7.6.5-.1 0 0 .3 0 0s0 0 .1 0c1.4.4 2.6 1 3.9 1.5a48.3 48.3 0 0 0 14.2 3 24.2 24.2 0 0 0 4.9 0 2.6 2.6 0 0 1 2 .3.8.8 0 0 1-.5 1.1c-1.1-.1-2.2.2-3.3.2a45.6 45.6 0 0 1-24.7-6.8c-1-.6-2-1-3-1.8a5.3 5.3 0 0 0 2.2 4.3 16.8 16.8 0 0 0 5 2.1 126.7 126.7 0 0 0 16.7 3.3 41 41 0 0 1 4.6.8.6.6 0 0 1-.1.8 22.8 22.8 0 0 1-4.6-.2c-1 0-1.3.2-1.6 1.2a27 27 0 0 1-4.9 9.5 2.2 2.2 0 0 1 1.6-1 1.5 1.5 0 0 1 .9.6 2.3 2.3 0 0 1-1.3 1.4 27.3 27.3 0 0 0-4.3 3.3c-3 2.4-6.4 4.6-9.5 6.9a61.2 61.2 0 0 0-9.5 8.5 20.4 20.4 0 0 0-4.5 10.3A28.8 28.8 0 0 0 100 346a19.1 19.1 0 0 0 2.5 4.1c2.4 3.3 4.8 6.5 8.2 8.8a37.2 37.2 0 0 0 17 6 40.6 40.6 0 0 0 12.7-.2 1.6 1.6 0 0 1 .9 0 1 1 0 0 1 .6.9c-.2.2-.6 0-.8.2l-1.2.3c-.4.3-1 0-1.4.2h-.1c-.6.3-1.3 0-1.9.2h-.4a28.3 28.3 0 0 1-6 0h-.4c-.7-.3-1.4.1-2-.2h-.2c-.6-.3-1.1 0-1.6-.2h-.8c-.6.3-1.4-.1-2 .2h-.2a51.2 51.2 0 0 1-8.2 0h-.5c-1.2-.3-2.5.1-3.8-.2h-.4c-.8-.3-1.6 0-2.3-.3h-.5c-.5-.2-1.2.1-1.8-.2h-.4c-.5-.2-1 0-1.6-.2h-.2c-.4-.3-1 .2-1.5-.3-.4-.2-.9 0-1.3-.2h-.2c-.4-.3-.9 0-1.3-.2a29.3 29.3 0 0 1-9.3-3.2 30 30 0 0 1-3.7-2.1 12.5 12.5 0 0 0-4.9-2c-.8-.3-1.6 0-2.3-.2-3.7-.7-7-1.8-9.1-5.3a3.5 3.5 0 0 1-.4-1.5c-.2-.2 0-.7-.6-.5a30.6 30.6 0 0 0-3 5.7l-1.3 1.8a38 38 0 0 1-2.7 4.3c-.5.7-1.3 1.3-1.9 2 .4 0 .9.2 1.2 0a.2.2 0 0 0 .2 0c.5-.3 1.1 0 1.6-.2h.4a1.4 1.4 0 0 1 1.3 0h.4c.6.3 1.3-.1 1.8.2a25.3 25.3 0 0 1 9 4 21.2 21.2 0 0 1 2.9 2.6 2.9 2.9 0 0 1 .5 3.1 11.8 11.8 0 0 1-6.2 7.3 43.1 43.1 0 0 1-5.6 2.4c-2.2.8-2.2.8-3.9-.9a10.3 10.3 0 0 0-1-.8L61 380c-.1-.2-.2-.5-.4-.4s-.2.3-.1.4a.1.1 0 0 0 0 .2 11.2 11.2 0 0 1 0 3.5c-.4.7-1.2.5-1.8.8a5 5 0 0 1-2.5 0c-.4-.1-1 .1-1.4-.3-.5-.2-.9-.1-.6.6a6.5 6.5 0 0 1-1.5 2 3.6 3.6 0 0 1-1 1c-3.1 2.5-6.2 5-9.6 7.4-2.5 1.7-5 3.3-7.6 4.8-.5.2-1 .2-1.1-.4a2.1 2.1 0 0 1 1-1 113.7 113.7 0 0 0 17.9-13c.4-.2.8-.5.7-1.1a1.3 1.3 0 0 0-.7-1.2c-2.1-1.1-2.5-3-2-5.1a19.2 19.2 0 0 1 1-4.7c0-.1-.2 0 0 0s0 0 0 .2a8.8 8.8 0 0 1-5.9 4.8 2.8 2.8 0 0 1-1.6 0 2.5 2.5 0 0 0-2.6.8 116 116 0 0 1-7 5.2l-1 .7a2.1 2.1 0 0 0-1 2 32.5 32.5 0 0 0 1.2 10 2.9 2.9 0 0 1 .1 2c-.2.3-.4.2-.6 0a10.6 10.6 0 0 1-1.5-4.9c-.4-.5 0-1-.3-1.5a.1.1 0 0 0 0-.2 34.2 34.2 0 0 1 0-6.3.2.2 0 0 0 0-.2 1.6 1.6 0 0 1 1-1.3l9-7c.4-.2.4-.5 0-.7a5.2 5.2 0 0 1-2-3l-.5-1.3c-.2-1.9 1.4-2.6 2.4-3.6.4-.4 1.1-.5 1.3-1.1-.7-.4-1.5 0-2.2-.3h-.2c-.5-.3-1 .1-1.5-.2a20.2 20.2 0 0 1-9.3-4 1.1 1.1 0 0 1-.5-1c.3-1 0-2 .3-3a12.3 12.3 0 0 1 3.2-6.4 15.5 15.5 0 0 1 1.4-1.4l2.6-2a8.3 8.3 0 0 1 3 0 24 24 0 0 1 7 2.6l2.8 1.9a7.2 7.2 0 0 1 1.7 1.8 22.1 22.1 0 0 1 3.2 6c.1.3.2.8.7.8s.3-.6.4-1l3-7a167.8 167.8 0 0 1 12.7-22 14.8 14.8 0 0 0 2-3.8l2.8-8.5c.3-.4-.1-1 .2-1.5a11.2 11.2 0 0 1 3-5.8c2.9-3.2 6.5-5.5 10-7.7a122.6 122.6 0 0 0 14.2-9.3l2-2a5.3 5.3 0 0 0 1.3-1.3c1.9-2.5 2.8-5.4 3.8-8.3.2-.7 0-1-.7-1.4a5 5 0 0 1-2.4-3.8c-.3-.7.1-1.5-.2-2.3v-.4a3 3 0 0 0-1-1l-2-1.7c0-.2-.2-.4-.1-.5.8-1.5.3-3.2.6-4.8a6.7 6.7 0 0 1 .9-2.9 21 21 0 0 0 2.6-6c.3-.4 0-.9.3-1.3v-.4a14.2 14.2 0 0 0 0-4l-1.7-.3c-1-.3-2 0-3-.3h-.5c-.9-.3-1.8.1-2.6-.2h-.4c-.9-.3-1.8.1-2.6-.2h-.4c-.4-.3-1 0-1.3-.3-.4 0-1.1-.3-.5.5L97 256c-.2.2-.4.2-.7.2H82.6a1 1 0 0 1-.6-.2h-1c-1.2-.3-2.5.1-3.7-.2h-.5c-.7-.3-1.4 0-2-.2-1-.5-1.4-1.5-2-2.3a9 9 0 0 1-.7-1.2 53 53 0 0 1-5.5-10.6 86.9 86.9 0 0 1-3.9-12.3l-.4-2.1c-.3-.4 0-1-.2-1.3a.2.2 0 0 0 0-.2c-.3-.4 0-1-.2-1.3a.2.2 0 0 0 0-.2c-.3-.5 0-1-.3-1.6v-.4c-.3-.8.1-1.6-.2-2.3v-.6a19.5 19.5 0 0 1 0-5v-.5c.3-.6 0-1.4.2-2a.2.2 0 0 0 0-.2c.3-1.1 0-2.3.5-3.1.1-.4-.2-.3 0-.3a3.4 3.4 0 0 1-1 2.3c-1.5 3-2.7 6-3.8 9a100.5 100.5 0 0 0-4.4 14.5 8 8 0 0 0 0 1c-.4.4 0 .9-.3 1.3a2.6 2.6 0 0 0-.3 1.6c-.2.4 0 1-.2 1.4v.4c-.3.5 0 1-.2 1.6v.4c-.4.9 0 1.9-.3 2.8v.4a35 35 0 0 0 0 6.2v.4c.4 1 0 2 .3 3v.5c.3.7-.1 1.4.2 2v.5c.3.6 0 1.2.2 1.8a5.8 5.8 0 0 0 .2 2.2z" class="b"/><path d="M126 193.8l-.5-.2a35.3 35.3 0 0 0-4-11.5l-.7-1.3c-.1-.5.4-.5.7-.8a25.8 25.8 0 0 1 2.6-.7 33 33 0 0 1 18.9 3.3 15.5 15.5 0 0 1 1.5.7 1.3 1.3 0 0 0 2-.3 13.4 13.4 0 0 1 1.8-1.8c.3-.3.6-.7 1.1-.6.5-.7 1 0 1.4 0 1.3-.2 2.2.6 3.2 1a7 7 0 0 1 1 .6c.7.4 1 .2 1.1-.6a17.3 17.3 0 0 1 3-6.6c.3-.4.6-1 1.2-1a4.8 4.8 0 0 0 2-1.8l.9-.8c0-.6.5-.8 1-1.1a15.5 15.5 0 0 1 5.8-2.3 2 2 0 0 1 1.6.3 10.8 10.8 0 0 1 3.9 5 .5.5 0 0 1 0 .5c.3.5-.2 1.3.5 1.7.4 0 .5.4.6.7a15.1 15.1 0 0 1 .6 5 12 12 0 0 0 1.3 6.1l2 4.6a17.3 17.3 0 0 1 1.2 8 3.3 3.3 0 0 1-3.2 3.5h-.4c-2 .2-2.1.2-2 2.3a1.4 1.4 0 0 1-.2.8l-.2.8a1.5 1.5 0 0 1 .2 1.2 3.4 3.4 0 0 1-.3 1.1 2 2 0 0 1-2.6 1.3 29.7 29.7 0 0 1-5.3-1.5 2 2 0 0 1-1-.8c-.2-.4-.6-.1-.8-.3-.7 0-1.2-.4-1.7-.7a20.5 20.5 0 0 1-7.4-6.2c-.7-1-1.2-1-1.6.2a20 20 0 0 1-3.1 5 1.6 1.6 0 0 0-.3 1.8c3.2 9.2 5.6 18.7 8.5 28 1.6 5.5 3.2 10.9 4.6 16.3.2 1.2.4 2.3.8 3.6a29.3 29.3 0 0 1 5.2-3c4.8-2.2 9.6-2 14.4-.3a14.8 14.8 0 0 1 3.6 1.6 13 13 0 0 0 1.5 1c.2.1.4.3.3.7a1.2 1.2 0 0 0 .8.7c.5 0 .7.4 1.1.7s.4.5.7.6a9.1 9.1 0 0 1 3.5 3.5A29.7 29.7 0 0 1 201 272a3 3 0 0 0 1.3 1.8c3.5 2.7 5.8 6.1 5.7 10.6a11 11 0 0 1-3.7 8 5 5 0 0 0-1.5 4.8c.9 6.7 3.1 13.1 5.6 19.4 4.8 12 10.2 23.8 15.4 35.6 1.4 3 3 6 3.9 9.3a34.8 34.8 0 0 1 .9 11.5 46.7 46.7 0 0 1-1.6 9 41 41 0 0 1-2 4.9 4.6 4.6 0 0 1-1.3 1.4c-2.6 2.4-2.7 6.5 0 8.4a10 10 0 0 0 5.2 1.5 40.7 40.7 0 0 0 11.9-1.1l5.6-1.4a2.6 2.6 0 0 0 2.1-2.1 11.4 11.4 0 0 0 .3-3.8 38.7 38.7 0 0 0-3.5-11.2 18.8 18.8 0 0 1-1.5-9.5 27 27 0 0 0-1.2-9.7 23.7 23.7 0 0 1-.9-5.1 425.7 425.7 0 0 0-5.3-44.5 240.6 240.6 0 0 0-5.8-26 6.6 6.6 0 0 0-.5-1.4c-.3 0-.3.3-.4.5a8.3 8.3 0 0 1-4.8 4.7 27.4 27.4 0 0 1-8.6 1.8 3.7 3.7 0 0 1-2.6-1 11.7 11.7 0 0 1-4.4-7.7c-.6-4.4 0-8.6 3-12.1a15 15 0 0 1 5-3.8 1.3 1.3 0 0 0 .7-1.8 14.2 14.2 0 0 0-6.6-9.1c-2-1.3-4.5-1.2-6.8-.8a28.2 28.2 0 0 0-9.6 4.2 3.2 3.2 0 0 1-1.6.8.6.6 0 0 1-.3-.5 1.5 1.5 0 0 1 .8-1 28.7 28.7 0 0 1 9.3-4.5c.4-.1.8-.3 1.3 0 1.7 0 3.4.3 5-.2a8.7 8.7 0 0 1 3.3 1.3 10.7 10.7 0 0 0 2.5 2.5 1.8 1.8 0 0 1 .4.4 6 6 0 0 0 1 1.2c1.7 2 2 4.5 2.8 6.8.2.8-.4 1.2-1 1.5a17.2 17.2 0 0 0-3.7 2.3 3.7 3.7 0 0 0-1 1.1 15.6 15.6 0 0 0-3 6.5 10 10 0 0 0-.3 4.4 12.3 12.3 0 0 0 3.3 7.1 4.5 4.5 0 0 0 1.5 1 2.9 2.9 0 0 0 2.2.2 1.7 1.7 0 0 1 .3-.1 7.2 7.2 0 0 0 1.3-.3c1.2-.1 2.3-.6 3.5-.8 3.7-.8 5.5-3.3 6.5-6.7.2-.5 0-1 .7-1.2.3-.1.4-.1.5.2l.7 2.3a81.2 81.2 0 0 1 2.8 9.8 7 7 0 0 0 3 4.3 39 39 0 0 0 11.8 5 125.5 125.5 0 0 0 25.1 4.4c12.2.9 24.3 1.8 36.2 4.5a3.1 3.1 0 0 0 3.6-1.2 10 10 0 0 1 11.4-3 14.1 14.1 0 0 1 5 2.9c1 .8 1 1.5-.3 1.8l-5 1.3 4.3 1.5c1.7.7 2 1.3 1.2 3-.6 1.3-.3 2 .7 2.8a29.2 29.2 0 0 1 9 14.7 14.5 14.5 0 0 1-.1 5.5 77.6 77.6 0 0 1-2.4 13.2c-.2.6.2 1 .3 1.5-.4.3-.7 0-1-.3-3.3-3.8-7.2-7.2-10.7-11a2.3 2.3 0 0 1-.6-2.2 26.3 26.3 0 0 0-2-14.7c-.3-.7-.5-1-1.3-.5-2.4 1.4-3.3.9-4.7-.7a12 12 0 0 1-1-1.6c-.4-.6-.6-1.2-.9-1.9-.3.2-.3.6-.4.9a11.8 11.8 0 0 1-1 2.6c-2.2 4.2-4.8 5.5-9 4.6a23.1 23.1 0 0 1-9.5-4.3 1.4 1.4 0 0 1-.5-1.9 10.8 10.8 0 0 1 4.4-5.3 51.2 51.2 0 0 1 7-3.7H305l-18.2.6c-6.6.2-13.1-.2-19.6-.5l-11.4-.6a44.8 44.8 0 0 1-17.5-4 6.9 6.9 0 0 0-.7-.2l1.6 10c1.2 8.2 2.2 16.5 2.9 24.8.3 4.2.5 8.3 1 12.5.3 2.6 1.3 5.2 1.6 7.8l.3 2.8v.7a3.1 3.1 0 0 1 0 2v.5a9.4 9.4 0 0 0 0 3 11.4 11.4 0 0 0 1.4 5.4 43.4 43.4 0 0 1 3 8.6c.5.4 0 1 .4 1.3a.2.2 0 0 0 0 .2c.3.6 0 1.3.2 1.8a.1.1 0 0 0 0 .2 3.5 3.5 0 0 1 0 2c-.2.8-.4 1.5-.8 2.2a4 4 0 0 1-3.2 2.3c-1.7.3-3.4 1-5.2 1.3l-3.5.7c-.5.3-1.1 0-1.6.2h-.4a44.3 44.3 0 0 1-7.3 0 4 4 0 0 1-2-.5c-.4-.3-.9.1-1.2-.2-2.3-.5-3.4-2.2-4-4.3a9.2 9.2 0 0 1 0-3.2 5.7 5.7 0 0 1 2.3-3.8 5.4 5.4 0 0 0 1.7-2.6 28.9 28.9 0 0 0 2-7.5 1 1 0 0 1 .2-.3c.3-.5 0-1 .3-1.5a.2.2 0 0 0 0-.2c.3-1-.2-2 .2-2.8v-.7a11.2 11.2 0 0 0 0-3.4v-.4c-.4-1 0-2-.3-3.1a.1.1 0 0 0 0-.2c-.3-.5 0-1-.2-1.6-.7-3.2-2.5-6-3.8-9L214 333l-4.3-10.2a1.4 1.4 0 0 1-.5-.7c-1-2.5-2.1-4.9-2.9-7.5a5.4 5.4 0 0 1 0 3.1 7.2 7.2 0 0 0 .3 3.8 17.4 17.4 0 0 1 1.1 3.6 9.8 9.8 0 0 0 1.2 2.8 49.2 49.2 0 0 1 1.8 5.1c.4 1 0 2 .3 2.8v.4c-.3.6 0 1.2-.2 1.8a23.8 23.8 0 0 1-12.5 10.7 81.8 81.8 0 0 0-10.6 5.6 21.5 21.5 0 0 1-6.7 2.7c-.5.3-1 0-1.5.3h-.2a7.3 7.3 0 0 1-3 0h-.5c-.5-.3-1 0-1.5-.3a6.8 6.8 0 0 1-2.5-.6c-.7-.3-1-.1-1.3.6l-8.5 21.7c-.6 1.4-1.4 2.7-1.5 4.3-.3.4 0 .9-.2 1.3a.1.1 0 0 0 0 .1c-.3.6 0 1.3-.3 1.9v.4a14.4 14.4 0 0 0 0 3.9.1.1 0 0 0 0 .2c.4.4 0 1 .3 1.5a15.4 15.4 0 0 0 3.3 7.4c3.4 4.7 8 8 12.8 11a35.5 35.5 0 0 0 3 2c1.4.5 1.6 1.7 2 2.8 0 .5.2 1-.2 1.5-1 2.6-3.2 3.3-5.6 3.8-.6.3-1.3 0-1.9.2h-.4a15.4 15.4 0 0 1-4.5 0h-.7a23 23 0 0 0-5 0h-.3c-.5.3-1.1 0-1.6.2l-4.7 1.3a3.3 3.3 0 0 1-2 0h-.2c-.8-.3-1.8 0-2.5-.5a2.3 2.3 0 0 1-1.8-.9 37.2 37.2 0 0 1-6.8-9.5c-1.2-2.3-3-4.3-4.4-6.6s-3.3-4.1-3.8-6.9a17.4 17.4 0 0 1-.5-2.3c-.3-.6 0-1.3-.2-1.9a.1.1 0 0 0 0-.1 4 4 0 0 1 0-2.3.1.1 0 0 0 0-.2c.2-.5-.1-1 .2-1.6a6.8 6.8 0 0 1 1.3-3.6c1.8-2.4 2.3-5.3 3.2-8.1l1.5-5.7c.3-.4 0-1 .3-1.3.3-.4 0-.9.2-1.3a.2.2 0 0 0 0-.2c.3-.4 0-.9.2-1.3a.2.2 0 0 0 0-.2c.3-.5 0-1 .3-1.5a.2.2 0 0 0 0-.2c.2-.2 0-.5.2-.7-.1-.4-.5-.5-.5-.9a29.9 29.9 0 0 0 .9-6.9l.2-7.6a140.5 140.5 0 0 1 3-25l1.1-4.6a1.3 1.3 0 0 0-.8-1.8 44 44 0 0 1-10.2-6.4 18.4 18.4 0 0 1-5-6.4 7.3 7.3 0 0 1-.8-3 4.9 4.9 0 0 0 0-1.6 2.4 2.4 0 0 1-.2-.4 3.2 3.2 0 0 1 .5-2c.7 0 .6.5.6.8 0 5 2.5 8.7 6.2 11.8a44 44 0 0 0 8.8 5.6c1.5.8 1.7.7 2.2-1a107 107 0 0 1 13.7-28.7c.7-1 1.4-2.1 2-3.3a4.2 4.2 0 0 1 .5-.6c.2-.3.5-.6 1-.4s.2.6 0 1a8.5 8.5 0 0 1-.7 1.4c-2.6 4-5.2 8-7.4 12.3a95 95 0 0 0-6.2 14.2l-2 7a100.3 100.3 0 0 0-3.4 15.6c-.6 4-1 8.1-1.2 12.2-.3 4.7 0 9.3-.5 14a104.7 104.7 0 0 1-3.2 17.4 47 47 0 0 1-4 9.7 9.3 9.3 0 0 0-.9 5 16.7 16.7 0 0 0 2.8 8.8c2 2.9 3.7 5.9 5.8 8.7a9 9 0 0 1 1 1.7 25.7 25.7 0 0 0 4.7 6.8c1.6 2 5 3 7.5 2.2a27 27 0 0 1 8.5-1.4l5.3.2a33.5 33.5 0 0 0 5.3-.6 5.7 5.7 0 0 0 3-1.5 2.6 2.6 0 0 0-.2-4c-.8-.7-1.7-1.2-2.6-1.8a53 53 0 0 1-13-10.7 20.3 20.3 0 0 1-4.5-17 31.8 31.8 0 0 1 2.2-7c2.7-6.4 5.1-13 7.7-19.4l11.3-28 3.2-8c3-7.7 6-15.4 9.2-23.1.6-1.4.6-1.5-.8-1.7a25.6 25.6 0 0 1-7.2-2.5 13 13 0 0 1-4.2-3.5 35 35 0 0 0-15-10.2 131.9 131.9 0 0 1-13.7-5.5c-.5-.3-1.1-.5-1.5.1-1.5 2.2-3.6 3.7-5.4 5.6-3.5 3.5-6.7 7.3-10 11-1.6 1.6-3.2 3.2-4.6 5-.3.2-.7.3-1 .6-.7.5-.8 1.5-1.8 1.6-.3 0-.6 0-.6-.5s.3-.6.5-.8a126 126 0 0 0 7-7.3c.4-.6.8-1.3 1.6-1.4.4 0 .4-.4.4-.7.8-.8 1.2-2 2.5-2.3a1 1 0 0 0 .5-1l3-3.1 7-7.5a2.5 2.5 0 0 1 .7-.5.7.7 0 0 1 .4-.6c.4-.3.8 0 1.1.1 5.5 3 11.4 5 17.2 7.2a35 35 0 0 1 6.9 4c2.4 1.5 4.2 3.7 6.3 5.7a19.8 19.8 0 0 0 6.7 4.4c5.7 2.2 11 .6 15.1-4a9.8 9.8 0 0 0 2.4-9.6c-1.3-5.1-6.7-9-12-7.8-5.6 1.3-10.5-.4-15-3.3l-14.8-9.8c-.4-.3-1-.5-1-1.1a.5.5 0 0 1 .5-.6c1-1.1.7-2.4.3-3.7-3.4-13.5-7.8-26.7-11.5-40a59.1 59.1 0 0 0-2.2-7c-.2.7-1 .5-1.3 1 0 .5-.4.7-.7 1l-1.2.7c-2 1.3-4.3 1.6-6.5 2.3a1 1 0 0 1-.9 0 3.2 3.2 0 0 0-1.7-.3.5.5 0 0 1-.6.1 7.3 7.3 0 0 1-4-5.8c0-.7-.5-.6-1-.3s-.4.5-.8.3a1.5 1.5 0 0 1-1.3-.2c-.6-.2-1 .2-1.4.4a4.7 4.7 0 0 1-4.1-1.9.6.6 0 0 1-.1-.8 6 6 0 0 1-1-2c-.6-.3-.7-.7-.3-1.2a4.8 4.8 0 0 1 .2-2c.2-.2.3-.3.6 0a14 14 0 0 0 .8 3.7 4 4 0 0 0 5.3 2.8 4.7 4.7 0 0 1 1.8 0 19 19 0 0 0 13.4-3.5c1.4-1 1.4-1.3.7-2.8a24.9 24.9 0 0 1-2.9-9.8 6.5 6.5 0 0 1 1-3.8c.5-.7.3-1-.5-1.5a38.2 38.2 0 0 0-13.3-3.9 24.7 24.7 0 0 0-7 .4c-1.6.2-1.6.3-.9 1.6a27.1 27.1 0 0 1 3.5 9.4 2 2 0 0 1-.2 1.7z" class="c"/><path d="M207.7 325.1a14.9 14.9 0 0 1-1.9-5.6 22.3 22.3 0 0 1 .7-5l3.2 8.3c-.7.7-1.7 1.3-2 2.3z" class="d"/><path fill="#8591c1" d="M28.3 257.6c.2-.2.2-.5.2-.8.5 1.3.2 2.6.4 4 .5 2.2.7 2.4 3 2.2 6.6-.5 13.2-.4 19.9-.4a1.1 1.1 0 0 1 .3.1c-1.8.3-3.5-.1-5.1.3l-1.2.1c-1.1.3-2.3-.1-3.3.2h-1.7c-1.4.3-2.8 0-4 .2h-2.3a18.3 18.3 0 0 1-4.2 0c-1.1.1-1.6-.2-1.6-1.5a6.4 6.4 0 0 0-.2-1.5c-.2-.4 0-.9-.2-1.3v-.7a1 1 0 0 1 0-1z"/><path d="M82 255.8h15c-.2.3-.5.3-.9.3H82.8c-.3 0-.6 0-.8-.3zM114.5 366.3h8.3c-.3.3-.6.3-1 .3h-6.4c-.3 0-.7 0-.9-.3zM104 268.8c0 1.8.3 3.6-.6 5.3-.4-.7-.8-1.3.1-1.9.4-.2.2-.7.3-1.1 0-.8-.3-1.6.2-2.3zM228 399.3h7.3c-.6.5-1.2.3-1.8.2-1.8 0-3.7.4-5.5-.2zM61 210.3l1-2.6.3.1-.8 3.6c-.2-.3.5-1.2-.6-1.1zM60.8 363.6l-2.2.6 2.9-2.6c0 .7-.6 1-1 1.4-.6.6-.1.6.3.6zM31 386.3v6.3c-.6-.8-.3-1.7-.3-2.5.1-1.3-.2-2.6.3-3.8zM51.5 250.9a21.4 21.4 0 0 1 0-6.2v6.2zM130 366.6h6a14.1 14.1 0 0 1-6 0zM153.5 4.8h-5a9.7 9.7 0 0 1 5 0zM61.3 214v5a9.8 9.8 0 0 1 0-5zM39.3 112.6a27.7 27.7 0 0 1-.3 5c.1-1.7-.3-3.4.3-5zM39 118.3a24.8 24.8 0 0 1-.2 4.8c0-1.6-.4-3.2.2-4.8zM163.2 421a12.6 12.6 0 0 1 4.9 0zM39.5 107a25.5 25.5 0 0 1-.2 4.9c0-1.6-.4-3.3.2-4.8zM151.8 422a5.5 5.5 0 0 1 2.5.6c-.8-.3-2 .8-2.5-.5zM38.8 123.8a22.3 22.3 0 0 1-.3 4.6c.1-1.5-.2-3 .3-4.6zM168.8 421h4.5a8 8 0 0 1-4.6 0zM7.8 216.8a8.2 8.2 0 0 1-2.3 2.4 7.4 7.4 0 0 1 2.3-2.4zM30.3 263.6h4.2a8 8 0 0 1-4.2 0zM39.8 102a20.2 20.2 0 0 1-.3 4.4c.1-1.5-.3-3 .3-4.3zM103.3.4a18 18 0 0 0-4.3 0 6.4 6.4 0 0 1 4.3 0zM107.8 254a8 8 0 0 1 0 4zM40 97.6a18.8 18.8 0 0 1-.2 4c0-1.3-.3-2.7.2-4zM36.7 263.6a18.3 18.3 0 0 1 4-.3c-1.3.5-2.6.2-4 .3zM38.5 128.8a15.8 15.8 0 0 1-.2 3.8c0-1.2-.3-2.5.2-3.8zM160 390.6a8.4 8.4 0 0 1 0-3.9v4zM110.3 366a17.2 17.2 0 0 1 3.8.3c-1.3 0-2.6.3-3.8-.2zM77.3 255.6a16.7 16.7 0 0 1 3.8.2c-1.3 0-2.6.3-3.8-.2zM27.8 252.5a15 15 0 0 1 .2 3.6c-.5-1.2-.1-2.4-.2-3.6zM60.3 383.6V380a5.3 5.3 0 0 1 0 3.5zM38.3 133a13.8 13.8 0 0 1-.3 3.6c.1-1.2-.3-2.4.3-3.5zM227.5 368.3a7.7 7.7 0 0 1 0 3.3v-3.4zM.2 224.6c0 .5.1.8.7.7s1 0 1.6 0c-.6.5-1.4.3-2 .2s-.6-.5-.3-1zM42.5 263.3a11.7 11.7 0 0 1 3.3-.2c-1.1.5-2.2.1-3.3.2zM220.8 391v3.3a4.5 4.5 0 0 1 0-3.2zM33.3 399.3c.1.6.5.6 1 .5-1 .9-1.4.3-1.5-.7l.5.2zM28 244a13 13 0 0 1-.2 3.4c0-1.1-.3-2.3.2-3.3zM50.5 356l-1.8-1.7a2.6 2.6 0 0 1 1.8 1.8zM64.3 357.3a3 3 0 0 1 1.2-1.8 2.5 2.5 0 0 1-1.2 1.8zM157.3 5a13 13 0 0 1-3.4-.2c1.1.1 2.3-.3 3.4.3zM40.3 93.8a12.2 12.2 0 0 1-.3 3.3c.1-1-.3-2.2.3-3.3zM38 137a10.4 10.4 0 0 1-.2 3.1c0-1-.3-2 .2-3zM39 349.8h-3a4 4 0 0 1 3 0zM176.3 357.3h3a3.8 3.8 0 0 1-3 0zM51.7 254.4a9.4 9.4 0 0 1-.2-3c.6.9.1 2 .2 3zM103 253.6a10 10 0 0 1 3 .2c-1 0-2 .3-3-.2zM27.8 248.6v3a3.8 3.8 0 0 1 0-3zM28.8 359.6c-.2 1 .1 2-.3 3 .1-1-.2-2 .3-3zM227.3 364.8a9.3 9.3 0 0 1 .2 3c-.5-1-.1-2-.2-3zM40.5 90.3a10.8 10.8 0 0 1-.2 3c0-1-.3-2 .2-3zM171 7.2l-2.8-.6c1 0 2-.2 2.8.6zM245 373.1a5.5 5.5 0 0 1 0-3.1v3.1zM112 5.6L110.5 4a2 2 0 0 1 1.5 1.5zM33.4 351.8a4.8 4.8 0 0 1-1.4 1.5 2.2 2.2 0 0 1 1.4-1.5zM51.5 244.3a8 8 0 0 1 .2-2.8c0 1 .3 2-.2 2.8zM211 335.9a13.7 13.7 0 0 1-.3-2.8c.6.9.2 1.8.3 2.8zM227.5 372.3a7.9 7.9 0 0 1-.2 2.8c0-1-.3-1.9.2-2.8zM40.8 87.3a7.5 7.5 0 0 1-.3 2.6c.1-.8-.2-1.8.3-2.6zM32 384.8l-1 1.3c0-.7 0-1.3 1-1.3zM56 384.3h2.5a2.7 2.7 0 0 1-2.5 0zM37.5 143.3a7.4 7.4 0 0 1-.2 2.6c0-.8-.3-1.8.2-2.6zM97 253a7.5 7.5 0 0 1 2.6.3c-.9 0-1.8.3-2.6-.2zM100 253.3a7.2 7.2 0 0 1 2.6.2c-.9 0-1.8.3-2.6-.2zM37.8 140.6a7.3 7.3 0 0 1-.3 2.5c.1-.8-.2-1.7.3-2.5zM41 84.6a6 6 0 0 1-.2 2.3c0-.8-.3-1.6.2-2.3zM37.3 146a6 6 0 0 1-.3 2.4c.1-.8-.3-1.6.3-2.3zM106.5 277.3a9.2 9.2 0 0 1 .2 2.3c-.4-.8-.1-1.5-.2-2.4zM22.5 232.3c.2.4.5.2.8.2-.2.5-.6.7-1 .5s0-.5.2-.7zM40 367.8a5.3 5.3 0 0 1 2.3.3c-.8-.1-1.6.2-2.3-.3zM61.3 219.5a6.5 6.5 0 0 1 .2 2.3c-.5-.7-.1-1.5-.2-2.3zM107.5 365.8a6.2 6.2 0 0 1 2.3.2c-.7 0-1.5.3-2.3-.2zM41.3 81.8a6.2 6.2 0 0 1-.3 2.3c.1-.7-.3-1.6.3-2.3zM78.5 357a6.3 6.3 0 0 1 2.3.3c-.7 0-1.5.3-2.3-.2zM134.3 391.6v2.2a2.1 2.1 0 0 1 0-2.2zM106 293a2 2 0 0 1-1.2 1.3 3.5 3.5 0 0 1 1.2-1.2zM2.7 225.3a6.3 6.3 0 0 1 2.3-.2c-.7.5-1.5.1-2.3.2zM28.3 257.6v1c-.5-.7-.2-1.4-.2-2zM28.3 241.6a5 5 0 0 1-.3 2c.1-.7-.2-1.4.3-2zM154.5 422.6h2a1.8 1.8 0 0 1-2 0zM52 256.9a4.8 4.8 0 0 1-.2-2c.5.6.1 1.3.2 2zM245 369.6v-2a1.8 1.8 0 0 1 0 2zM61.5 211.6a5.4 5.4 0 0 1-.2 2c0-.7-.3-1.4.2-2zM148 4.8a5.3 5.3 0 0 1-2 .2c.7-.4 1.4-.1 2-.2zM127.5 366.3a5.3 5.3 0 0 1 2 .2c-.6 0-1.3.3-2-.2zM159.8 5.3a5 5 0 0 1-2.1-.2c.7 0 1.4-.3 2 .2zM123 366.3a4.7 4.7 0 0 1 2-.2c-.6.4-1.4.1-2 .2zM37 148.6a4.9 4.9 0 0 1-.2 2c0-.7-.3-1.4.2-2zM250 392.6v-2a1.9 1.9 0 0 1 0 2zM60.3 379.9a1 1 0 0 1-.2-.8.9.9 0 0 1 .7.7c-.2 0-.4-.2-.5 0zM41.5 79.6a5 5 0 0 1-.2 2c0-.7-.3-1.4.2-2zM74.8 255.3a4.2 4.2 0 0 1 2 .2c-.7 0-1.4.3-2-.2zM66.5 363.6a4.5 4.5 0 0 1-1.8-.3c.6.1 1.3-.2 1.8.3zM36.5 152.8a3.9 3.9 0 0 1-.2 1.8c0-.6-.3-1.2.2-1.8zM72 251.9a2 2 0 0 1 .8 1.2 1.2 1.2 0 0 1-.8-1.2zM41.8 77.6a3.9 3.9 0 0 1-.3 1.8c0-.6-.2-1.3.3-1.8zM52.3 259.1a3.6 3.6 0 0 1-.3-1.8c.5.6.2 1.2.3 1.8zM210.8 338a5.6 5.6 0 0 1 .2-1.8c0 .6.3 1.3-.2 1.9zM105.3 365.6a4 4 0 0 1 1.8.2c-.6 0-1.3.3-1.8-.2zM136.4 366.5a4.2 4.2 0 0 1 1.9-.2c-.6.5-1.3.2-1.9.2zM36.8 150.8a3.9 3.9 0 0 1-.3 1.8c0-.5-.2-1.2.3-1.8zM250 390.4a4.3 4.3 0 0 1-.2-1.8c.5.5.1 1.2.2 1.8zM101.5 365a2.5 2.5 0 0 1 1.5.3c-.4-.2-1.1.6-1.5-.2zM42.3 73.6a4 4 0 0 1-.3 1.8c.1-.6-.2-1.3.3-1.8zM134.3 394a4.3 4.3 0 0 1 .2 1.8c-.5-.5-.2-1.2-.2-1.8zM160 386.3a3.6 3.6 0 0 1 .2-1.8c0 .6.3 1.3-.2 1.8zM105.5 275.8a1.1 1.1 0 0 1 1 1 2.5 2.5 0 0 1-1-1zM173.7 421a4.4 4.4 0 0 1 1.8-.2c-.6.5-1.2.2-1.8.3zM75.5 319a2.7 2.7 0 0 1-.2 1.6c0-.5-.2-1 .2-1.5zM174.3 357a3.4 3.4 0 0 1 1.5.3c-.5 0-1 .2-1.5-.2zM179.5 357.3a3.3 3.3 0 0 1 1.5-.2c-.5.4-1 .1-1.5.2zM36.3 154.8a3 3 0 0 1-.3 1.6c0-.6-.2-1.1.3-1.6zM227 363a2.8 2.8 0 0 1 .3 1.6c-.5-.5-.2-1-.3-1.6zM62.6 363.3a3.3 3.3 0 0 1-1.6.2c.5-.4 1-.1 1.6-.2zM36 156.6a3 3 0 0 1-.2 1.5c0-.5-.2-1 .2-1.5zM68.4 349.8l.3-.3c.4.1.3.5.3.8zM103.3 365.3a3 3 0 0 1 1.5.2c-.5 0-1 .3-1.5-.2zM134.5 389.8a3.4 3.4 0 0 1-.2 1.6c0-.5-.3-1.1.2-1.6zM125.8 366a2.8 2.8 0 0 1 1.5.3c-.5 0-1 .2-1.5-.2zM29.5 211c.1-.1.1-.4.4-.5a1.3 1.3 0 0 1-.1 1.1.6.6 0 0 0-.3-.5zM141.5 366.6a3 3 0 0 1-.2 1.5c0-.5-.3-1 .2-1.5zM38.3 367.6a3.2 3.2 0 0 1 1.5.2c-.5 0-1 .3-1.5-.2zM10.8 213.6a1.3 1.3 0 0 1-.8.9 1.2 1.2 0 0 1 .8-1zM42 75.6a3 3 0 0 1-.2 1.5c0-.5-.2-1 .2-1.5zM38.5 372.8a1.7 1.7 0 0 1 .5 1.3 1.4 1.4 0 0 1-.5-1.3zM227.3 375.3a2.9 2.9 0 0 1-.3 1.6c0-.5-.2-1.1.3-1.6zM61.5 222.3a3.1 3.1 0 0 1 .3 1.5c-.5-.5-.2-1-.3-1.5zM62.3 381.3a1.3 1.3 0 0 1 .9.8 1.2 1.2 0 0 1-1-.8zM42.5 71.8a3 3 0 0 1-.2 1.6c0-.5-.2-1.1.2-1.6zM51.5 387.6l1-.9a1 1 0 0 1-1 .9zM161.8 5.6a3 3 0 0 1-1.6-.2c.5 0 1-.3 1.6.2zM140.3 5.8a3 3 0 0 1-1.6.3c.6-.5 1-.2 1.6-.3zM160.3 392.4a2.7 2.7 0 0 1-.3-1.6c.5.5.2 1 .3 1.6zM89 12.3c-.5.4-1 .2-1.5.3.4-.5 1-.2 1.5-.3zM31 392.8a3.3 3.3 0 0 1 .3 1.5c-.5-.4-.2-1-.3-1.5zM87.3 12.6a3.2 3.2 0 0 1-1.5.2c.5-.4 1-.2 1.5-.2zM5.4 225a3 3 0 0 1 1.6-.2c-.5.5-1 .2-1.6.3zM235.7 399.3a3.2 3.2 0 0 1 1.6-.2c-.5.4-1 .1-1.6.2zM51.8 241a3 3 0 0 1 .2-1.5c0 .5.3 1.1-.2 1.6zM181.2 417v-1.4c.4.5.5 1 0 1.5zM28.5 239.8a3 3 0 0 1-.2 1.6c0-.6-.2-1.1.2-1.6zM161.3 421.3a2.7 2.7 0 0 1 1.5-.2c-.5.4-1 .1-1.5.2zM26.4 229.8l.9-1a1 1 0 0 1-.9 1zM43.3 67.3a2.2 2.2 0 0 1-.3 1.3c0-.4-.2-1 .3-1.3zM35.3 161.3a2.1 2.1 0 0 1-.3 1.3c0-.4-.2-1 .3-1.3zM43.5 65.8a2.3 2.3 0 0 1-.2 1.3c0-.4-.2-1 .2-1.3zM98.8 364.6a2.3 2.3 0 0 1 1.3.2c-.5 0-1 .2-1.3-.2zM135.5 6.6a2 2 0 0 1-1.3.2c.4-.4 1-.2 1.3-.2zM64.3 363.3H63a.8.8 0 0 1 1.3 0zM41 377c.3 0 .5.2.5.4a.4.4 0 0 1-.5.4.6.6 0 0 0 0-.7zM168 6.6a2.2 2.2 0 0 1-1.3-.3c.4 0 1-.2 1.3.3zM35.8 158.3a2.2 2.2 0 0 1-.3 1.3c0-.4-.2-.9.3-1.3zM35.5 159.8a2.2 2.2 0 0 1-.2 1.3c0-.4-.2-1 .2-1.3zM160.3 384.3a2.2 2.2 0 0 1 .2-1.3c0 .4.2 1-.2 1.3zM54 384.6c-.2-.2-.3-.4-.2-.7s.6 0 .8.1a.6.6 0 0 0-.6.6zM138.3 6a2.3 2.3 0 0 1-1.3.3c.4-.4.9-.2 1.3-.2zM141.8 5.6a2.2 2.2 0 0 1-1.3.2c.4-.4.9-.2 1.3-.2zM143.8 5.3a2.1 2.1 0 0 1-1.3.3c.4-.4.9-.2 1.3-.3zM61.8 224a2.3 2.3 0 0 1 .2 1.3c-.4-.4-.2-.8-.2-1.3zM52.5 236a2.2 2.2 0 0 1 .3-1.2c0 .4.1 1-.3 1.3zM8.7 224.6a1.9 1.9 0 0 1 1.3-.3c-.4.4-.8.2-1.3.2zM249.7 388.4l-.3-1.3c.6.3.3.8.3 1.3zM29.8 211.8a2.1 2.1 0 0 1-.3 1.3c0-.4-.2-1 .3-1.3zM141.7 365.6l-.2.8a.6.6 0 0 0-.5-.6.8.8 0 0 1 .7-.2zM52 239a2.2 2.2 0 0 1 .2-1.3c0 .5.2 1-.2 1.4zM141.3 368.3a2.2 2.2 0 0 1-.3 1.3c0-.4-.2-.9.3-1.3zM7.2 224.8a2.2 2.2 0 0 1 1.3-.2c-.4.4-.8.2-1.3.2zM138.4 366.3a2.4 2.4 0 0 1 1.4-.2c-.4.4-1 .2-1.4.2zM28.8 238.3a2.2 2.2 0 0 1-.3 1.3c0-.4-.2-1 .3-1.3zM224.8 398.6c.4 0 .8-.2 1.1.2-.4 0-.8.2-1.1-.2zM95.3 252.8a2.3 2.3 0 0 1 1.3.2c-.5 0-1 .2-1.3-.2zM28.3 259.3a2 2 0 0 1 .2 1.3c-.4-.4-.2-.9-.2-1.3zM141 369.8a2 2 0 0 1-.2 1.3c0-.4-.2-1 .2-1.3zM100.3 364.8a2 2 0 0 1 1.2.2c-.4 0-.9.2-1.2-.2zM107.8 258.6a2.1 2.1 0 0 1-.3 1.3c0-.4-.2-1 .3-1.3zM43 68.8a2.2 2.2 0 0 1-.2 1.3c0-.4-.2-.9.2-1.3zM62 225.5a2.3 2.3 0 0 1 .3 1.3c-.5-.3-.2-.8-.3-1.3z" class="d"/><path d="M140.8 371a2.2 2.2 0 0 1-.3 1.4c0-.5-.2-1 .3-1.3zM42.8 70.3a2.2 2.2 0 0 1-.3 1.3c0-.4-.2-.9.3-1.3z" class="d"/><path d="M136.7 54.8a95.7 95.7 0 0 1-16.4 18c-1.4 1.2-3 2-4 3.5-.3 0-.6.3-1-.1 7.9-6.5 15.2-13.6 21.2-21.9.4 0 .5.2.2.5z" class="b"/><path d="M157.7 85l.3.4a23.6 23.6 0 0 1-2.6 4.8c-.5.7-.4 1 .5 1.4l23.2 9.1a3.5 3.5 0 0 1 .6.4l-.1.2a1.7 1.7 0 0 1-1.2-.2c-7.6-2.6-15-5.4-22.4-8.5-2.2-1-2.4-1-1-3 .7-1 1.2-2.3 1.8-3.5.2-.4.3-1 1-1z" class="f"/><path d="M136.7 54.8a.5.5 0 0 0-.2-.5c1.4-2.4 3-4.6 4.3-7a76.1 76.1 0 0 0 6.5-15.8l.3-1.2a3 3 0 0 1 .3-.4 11.5 11.5 0 0 1-.7 3.2 80.5 80.5 0 0 1-9.8 21l-.7.7zM108.3 102.6c-.2-.4.1-1-.3-1.3a43.5 43.5 0 0 1 2.2-8.2c-.9 3.1-1.3 6.3-2 9.5z" class="g"/><path d="M181 100.6l.3.2a1 1 0 0 1-1 1.1c-.5 0-.7-.4-.5-.8.5 0 .8-.3 1.2-.5z" class="f"/><path d="M121.5 180.3l-.7.5a2.2 2.2 0 0 1-.8-1.2c.7-.1 1 .4 1.5.7z" class="b"/><path d="M108 105c0-.6-.2-1.3.3-2a4 4 0 0 1-.3 2z" class="g"/><path d="M179.8 101c.7 1.5 1 .3 1.5-.1a40.6 40.6 0 0 0 9.2-11.3 54.5 54.5 0 0 0 4.4-10.3 65.3 65.3 0 0 1-2 10.4 62.8 62.8 0 0 1-5 12.4c-.5.8-.3 1 .5 1.3 4.4 1.7 8.8 3.2 13 5.2.6.3 1.2.2 1.7.8a23.2 23.2 0 0 0-7 7.6 84.9 84.9 0 0 0-5.6 12.8 90 90 0 0 1-2.8 7.5 33.2 33.2 0 0 1-12.4 15.3 39.3 39.3 0 0 1-15.8 5.2c-3 .4-5.9.8-8.8 1a41.8 41.8 0 0 1-14.8-2 29 29 0 0 1-7.1-3.6 104.5 104.5 0 0 1-17.5-14 17 17 0 0 1-3-3.8 2 2 0 0 1-.2-1.9 31.6 31.6 0 0 0 6.2 5.4l-1.2-2.5a53 53 0 0 1-4.3-16c-.2-2.3.4-4.6.7-7a83.6 83.6 0 0 1 6.2-23.3 29 29 0 0 1 6.6-9.9 1.7 1.7 0 0 1 2.1-.4 359 359 0 0 1 20.1 8.3 3.5 3.5 0 0 0 4.1-.6A50.5 50.5 0 0 0 162.3 71l3.1-6.6a14 14 0 0 1-.8 3.5 111 111 0 0 1-6.5 16 9.4 9.4 0 0 0-.4 1c-1.2 2-1.9 4.1-3.3 6-.4.6.3.5.6.7l10.1 4.1 13.8 5a6 6 0 0 0 .9.3z" class="h"/><path d="M24.6 230.4a62 62 0 0 0 6.6-30 1.3 1.3 0 0 0-.4 1.1l-.3 6.1a6.5 6.5 0 0 1-1.2 3 27.9 27.9 0 0 1-19.8 13 78.5 78.5 0 0 1-8.7 1l2-2a104.5 104.5 0 0 0 20.5-24.4 100.8 100.8 0 0 0 11.5-29.7 194.6 194.6 0 0 0 3.8-26.8c.6-7.1 1-14.3 1.2-21.5l1.3-25.3a224.2 224.2 0 0 1 4.2-33.5c2-9.5 5-18.8 10.3-27.1a43.9 43.9 0 0 1 31.4-21c1.8-.2 1.7-.2 1.7 1.6a2.6 2.6 0 0 1-1.9 2.8 15 15 0 0 0-9.6 10.7 9.4 9.4 0 0 0 .4 6.2c.3.6.1.9-.4 1.2a53.7 53.7 0 0 0-20.4 24.6 98.5 98.5 0 0 0-8.1 30.1 394.2 394.2 0 0 0-1.6 40.4c.2 9.7.3 19.4 0 29.1a156 156 0 0 1-4.6 37.8 74.8 74.8 0 0 1-14 28.5 27.6 27.6 0 0 1-3.9 4.1zM287.8 241.7a20.6 20.6 0 0 1-6 1.5 30.7 30.7 0 0 1-16.2-2 19.5 19.5 0 0 1-12-14 59 59 0 0 1-1.5-18l.3-7.5c.3-6 .5-12 .5-18l-.5-25.6c0-5.6-.2-11.2-.5-16.8-.5-14.6-1.4-29.2-4-43.7a91.8 91.8 0 0 0-8.9-28.2 77.6 77.6 0 0 0-3.8-6.3c-.3-.4-.6-.8 0-1.2 4-2.5 4.7-6.4 4.1-10.6a20.8 20.8 0 0 0-6.9-12.7c-.7-.6-.7-1 0-1.7a9.3 9.3 0 0 0 2.1-3.2c.3-.7.6-.7 1-.2A66.2 66.2 0 0 1 256.9 69a70 70 0 0 1 1.1 11.9c.2 8.6 0 17.1-.2 25.7l-1 24.3a337.1 337.1 0 0 0 1.3 51.5 188.1 188.1 0 0 0 5 29.4 50.5 50.5 0 0 0 14.6 25 22.3 22.3 0 0 0 8.8 4.5zM175.5 173.8a14 14 0 0 0-2.8-4.3 3.1 3.1 0 0 0-3.3-1 15.6 15.6 0 0 0-6.1 2.9c-.6 0-.5-.6-.6-1a17.2 17.2 0 0 0-2.3-4.9c-1.7-2.4-2.7-2.7-5.2-1.1-.9.6-1 .2-1.2-.5l-.2-1.1c-.5-3.2-.2-3.4 3-3.8 6.7-.7 13.2-2 19-5.7s9.5-8.9 12.2-14.9c2.2-4.8 3.7-9.9 5.8-14.8 1.5-3.5 3-7 5.6-10a26.3 26.3 0 0 1 4.1-3.6 1.2 1.2 0 0 1 1.3-.2l4.9 2c.8.4.8.7.3 1.5a59.5 59.5 0 0 0-7.2 13.8A56.7 56.7 0 0 0 200 141a78.2 78.2 0 0 0 8.6 40.8c3.5 7.2 7.5 14 11.1 21.1a74 74 0 0 1 6.6 16.6 36.9 36.9 0 0 1-.4 19c-.4 0-.4-.4-.5-.7a161.2 161.2 0 0 0-8.9-22.8 1 1 0 0 1 .3-1.4 6.8 6.8 0 0 0 2-3 1 1 0 0 0-.5-1.5 13.7 13.7 0 0 0-4-2c-.6-.2-.7-.5-.8-1a8.3 8.3 0 0 1 .8-5 9.5 9.5 0 0 0-1.2-9 54.5 54.5 0 0 0-4.8-6 165 165 0 0 0-10.2-10.5c-3.2-3-7.2-3.6-11.4-3.2-2 .2-2 .3-2.3-1.6a36.1 36.1 0 0 1 1.5-15.2l.6-2a39.5 39.5 0 0 1 1.6-4.8c0-.1-.2 0 0 0s0 0 0 .2c-.7 1.3-1 2.9-1.8 4.1a36.4 36.4 0 0 0-2.8 14.8 18.2 18.2 0 0 0 .5 4c.2.7 0 .9-.6 1a40.6 40.6 0 0 1-7.9 1z" class="a"/><path d="M214.5 267.8a13.5 13.5 0 0 1 3.9-2.5c.7-.3 1-.7.7-1.7-.4-1.6-1.2-3-1.4-4.5a4 4 0 0 0-1.2-1.8 13.4 13.4 0 0 0-1-1.2l-.3-.3a27.8 27.8 0 0 1-2.4-2.4c-1-.9-2.4-.7-3.3-1.6a10.2 10.2 0 0 0-1-2.5A286 286 0 0 1 197 223c-.1-.4-.6-.8-.2-1.1s.8.2 1.1.5c1 .9 2 1.4 3.5.8a11.2 11.2 0 0 1 2.8-.6c3-.4 5-2.2 6.9-4.4.6-.8 0-1.5-.1-2.3a14.5 14.5 0 0 0 3.6-1c.8-.4 1-.2 1.4.6 1.7 3.5 3.2 7.2 4.6 10.9s2.7 7.7 4 11.5a153.6 153.6 0 0 1 4.2 15.4 85.7 85.7 0 0 1 1.3 18 50.3 50.3 0 0 1-.2 7.8 19.3 19.3 0 0 1-2 4.8 6.2 6.2 0 0 1-2.9 2.5 22.6 22.6 0 0 1-5.9 1.7c-.4.2-.9 0-1.3.2h-.2c-.7.4-1.5 0-2.2 0a3.5 3.5 0 0 1-1.9-1.3 12.1 12.1 0 0 1-3.2-7 11.2 11.2 0 0 1 .2-4.7 13.7 13.7 0 0 1 3.3-6.5 6.5 6.5 0 0 0 .7-1z" class="h"/><path d="M176 206.6l-.4-2.5c0-.4.1-.6.5-.6l2.3-.5c2-.1 2.9-.9 3.1-3a15.8 15.8 0 0 0-1.2-7.7L178 187a12 12 0 0 1-1-5.6 13.2 13.2 0 0 0-1-5.8c0-.4-.2-1 .5-1 4.3-.3 8.4-1.5 12.6-1.5a12.3 12.3 0 0 1 10.3 5c.7 1 1.3 2.3 2.7 2.6.3 0 .5.4.7.6a118.8 118.8 0 0 1 8.5 9.6c2.2 3 3.5 6.3 2.1 10.2a5 5 0 0 1-2.4 2.8c-.7.4-1 .3-1-.6a17.9 17.9 0 0 0-1.4-8.5l-2-3.4c-.4 0-.4.3-.4.5-.5 2.5-1 5-1.3 7.4a7 7 0 0 0 1.9 6 2.4 2.4 0 0 0 1.5.8 7.1 7.1 0 0 1-3.8 4 61 61 0 0 1-6 2.2 19.8 19.8 0 0 1-4.6 1.6c-1.2.2-1.4 0-1.3-1.2a20.3 20.3 0 0 0-2.3-12c-.3-.7-.7-1.6-1.4-1.4s-.5 1.1-.6 1.7c-.4 4.7.3 9.2 3.6 13-3.5.3-7.5-3-8.1-6.5a45.6 45.6 0 0 1-.3-6.9 34.9 34.9 0 0 0-1.4-9.8c-.3-.9-.3-.9-1.1-1.5a40.5 40.5 0 0 1 1.3 6 60.8 60.8 0 0 1 .4 9c0 3.6.7 6.7 3.8 8.8.4.2.3.5.2.8a2.2 2.2 0 0 0 1.5 2.8 2 2 0 0 1 1.3 1.3 4.8 4.8 0 0 0 1.8 2.3c2 1.1 2 3 2.6 4.9a102.2 102.2 0 0 0-17.9-18.6z" class="i"/><path d="M171 253.6a27.6 27.6 0 0 0-5.4 3.5c-.8-3.7-1.6-7-2.6-10.5-3.6-12.3-7-24.6-11-36.8-.5-1.7-.7-2.9.7-4.3a10.2 10.2 0 0 0 2.4-4.3 1.5 1.5 0 0 1 1.1-1c.5-.1.6.5.8.8a20.9 20.9 0 0 0 7.3 6.3l1.7 1a92.8 92.8 0 0 1 2.8 16.1c1 8.6 1.1 17.2 1.3 25.9a17.2 17.2 0 0 0 .3 2 .4.4 0 0 0 .2 0c.7.2.4.8.4 1.3z" class="j"/><path d="M149.5 180.5a13.4 13.4 0 0 0-2.9 3c-.5.7-.9.9-1.8.4a34.8 34.8 0 0 0-17.4-4.6l-3.3.3c-.6.3-.9 0-1.1-.5a14 14 0 0 1-5.1-12.7c.2-2 .2-2 2.3-2 7.2-.5 13.7 2 20.1 4.8a55.4 55.4 0 0 1 5.3 2.6 8 8 0 0 1 3.9 8.7zM171 253.6c-.5-.3 0-1-.5-1.3.3-4.2.2-8.5 0-12.7a189 189 0 0 0-1.7-20.7v-.9c.5 0 .6.5.8.8a118.4 118.4 0 0 1 20.2 33.7l.4 1.3c.3.8.1 1.4-1 1.2a24.6 24.6 0 0 0-9.5-3 19.1 19.1 0 0 0-8.7 1.6z" class="i"/><path d="M108.1 136.4a67.5 67.5 0 0 0 15.1 13.9 4 4 0 0 1 2 3 38.8 38.8 0 0 1 .4 9c-.2 1-.4 1.3-1.5 1.3a34.2 34.2 0 0 0-5.8.2 1 1 0 0 0-1 1c-.3 2.8-.6 5.7.5 8.5a.7.7 0 0 1-.4 1 .7.7 0 0 1-1-.3 38.2 38.2 0 0 1-6.5-14 112.9 112.9 0 0 1-1.6-14.8 59.7 59.7 0 0 1-.2-8.8z" class="a"/><path d="M166.8 208.6a35 35 0 0 0 6.2 2 2 2 0 0 0 2.5-1l9 9a123.8 123.8 0 0 1 8.4 10c.7 1 1.1 2.2 2.1 3a30.3 30.3 0 0 1 .2 6.7 32.7 32.7 0 0 1-2 9.7l-2.4-6a60.4 60.4 0 0 0-9.7-15.2c-3.7-4.4-8-8.2-12-12.2-.3-.4-.8-.7-1.2-1z" class="j"/><path d="M149.2 173.8c-2.9-3-6.6-4.4-10-6A57.2 57.2 0 0 0 127 164c-.9-.2-1-.4-.9-1.3a27.3 27.3 0 0 0-.3-9.8v-.7l4.7 2.9a33.7 33.7 0 0 0 14.7 4.2 26.5 26.5 0 0 0 7.2 0c.5 0 .8.1.7.7a8.6 8.6 0 0 0 .5 5.1c.3.7-.2.9-.5 1.2a13.2 13.2 0 0 0-4 7.4z" class="h"/><path d="M211.3 28.5c-2.2-1.5-2.8-3.6-3.2-5.8-1-5.3 1.5-10 6-11.5a13.3 13.3 0 0 1 13.7 2.9 20 20 0 0 1 7 16.2c-.2 2.7-1.7 4.7-3.5 6.6-.2.2-.4.4-.7.2l-2.5-1.6c-.3-.2-.2-.4 0-.7 4.4-4.2 3-10.3-.4-14.3a12.9 12.9 0 0 0-7.7-5c-4.6-.8-8.2 1.8-9 6.5a15.7 15.7 0 0 0 .3 6.5z" class="j"/><path d="M218.4 16.1a9 9 0 0 1 2.7.5 13.7 13.7 0 0 1 8.9 10.6c0 .4.3 1-.1 1.3s-.8-.2-1.2-.3c-4.8-2-9.5-2.5-14 .9a4.4 4.4 0 0 0-1 .8c-.7 1-1.2.3-1.4-.3a14 14 0 0 1 0-9.3 6.3 6.3 0 0 1 6.1-4.2z" class="i"/><path d="M219.7 34c6.4 0 11 3.3 14.8 8a19 19 0 0 1 4.2 12 8.5 8.5 0 0 1-3.9 7.4c-1.6 1-3.6 1-5.5 1-.6 0-.7-.5-.8-1s.1-.8.7-1a5 5 0 0 0 4-4.8 18 18 0 0 0-5-14.6 14.6 14.6 0 0 0-8.2-5 12.8 12.8 0 0 0-2-.2 1.4 1.4 0 0 1-1.2-.5c-.5-.6-.4-1 .4-1.1l2.5-.2z" class="j"/><path d="M193.6 221.7a2.6 2.6 0 0 1 3 2 213.6 213.6 0 0 0 11.2 26 1.1 1.1 0 0 1 .2.9 53.5 53.5 0 0 1-7.2-.7h-.5c-2.2-.3-2.2-.3-2.3-2.6a20.5 20.5 0 0 0-1.7-8.4 2.1 2.1 0 0 1-.2-1 39.3 39.3 0 0 0-1.8-14.4l-.7-1.8z" class="a"/><path d="M101.1 1a15 15 0 0 1 11.6 6.8 14.5 14.5 0 0 1 2.5 5.2c0 .4.3 1-.3 1.2s-.6-.4-.9-.7a20 20 0 0 0-8-7.2c-5.7-2.6-9.4.7-10.5 5.5a21.3 21.3 0 0 0-.4 3.4c0 .7-.3.9-1 .8a14.6 14.6 0 0 0-3.8.5c-.5.1-.9 0-.9-.6.3-5.7 2.1-10.5 7-13.8a8.1 8.1 0 0 1 4.8-1.1z" class="j"/><path d="M160.4 174a17.3 17.3 0 0 0-4.3 9 35 35 0 0 0-5.3-2.4c-.4-.3-.3-.7-.4-1.1a8.9 8.9 0 0 0-.1-2.4c-1.1-3.4.3-6.1 2.1-8.7a23.4 23.4 0 0 1 4-3.9 1.6 1.6 0 0 1 2.4 0 16 16 0 0 1 3.5 7c.1.4-.2.7-.4 1a6.3 6.3 0 0 0-1.5 1.6zM196.7 216.5c1.9-1.1 4-1.6 6-2.4a48.4 48.4 0 0 0 7.6-3.8 7.6 7.6 0 0 0 2.3-2 1 1 0 0 1 1.4-.5 18 18 0 0 1 3.3 1.6 1 1 0 0 1 .5 1.6 9 9 0 0 1-.6 1.2c-1 1.3-1.3 1.3-2.3 0a5 5 0 0 0-.4-.4c-.3.3-.1.5 0 .7.6 1.5.6 1.5-1 2a4.6 4.6 0 0 0-.4.1c-1.8.8-3.2.7-4.2-1.2a1.7 1.7 0 0 0-1.7-1l2.8 3.5a1.7 1.7 0 0 1 0 2.6 11.3 11.3 0 0 1-7.4 3.8 3 3 0 0 0-.7 0 2.6 2.6 0 0 1-3-.2 4.5 4.5 0 0 1-1.8-3.5c-.3-.4 0-.9-.2-1.3a.2.2 0 0 1 0-.2.5.5 0 0 1-.2-.6z" class="i"/><path d="M95.5 16.7a22.8 22.8 0 0 1 9.3 2.7c.3.1 1.1.2.8.8a1.3 1.3 0 0 1-1.6.8 17.4 17.4 0 0 0-4.7-1.3c-4.4-.4-8.7-.5-12.8 1.7-5.9 3.3-7 9.4-2.6 14.7a13.3 13.3 0 0 0 3 2.7c.2.2.7.3.4.8a.8.8 0 0 1-1 .5c-6.6-1.8-10.7-6-8-13.2 2-4.8 5.8-7.6 10.5-9.1a21.8 21.8 0 0 1 6.7-1zM192.7 249.6l-1.5 4.2c-.6-.5-.6-1.1-.7-1.6a109 109 0 0 0-21.6-35.3 2.4 2.4 0 0 1-.6-1.8c.5-.2.7.2 1 .5 5.3 5.2 10.7 10.4 15 16.5a57.9 57.9 0 0 1 8.2 16.4l.2 1z" class="j"/><path d="M232.6 53.5a9 9 0 0 1-.6 3.7c-.3.7-.5.8-1 .1a26.6 26.6 0 0 0-4.7-5 2.2 2.2 0 0 1-.7-1 67 67 0 0 0-4-8.6c-.3-.7-.3-1 .5-1a13.2 13.2 0 0 0 4.2-1c.6-.2 1 0 1.3.5a18.6 18.6 0 0 1 5 12.3zM82 29.3c.2-3.3 2-5.6 5-7.2 2-1.2 2-1.1 3 1a17.3 17.3 0 0 0 4.3 6.2c.5.5.7.8 0 1.3a3.2 3.2 0 0 0-.5.7 2.4 2.4 0 0 1-2.6 1.1 16 16 0 0 0-7.2.6c-.9.2-1.3 0-1.6-.9a11.8 11.8 0 0 1-.4-2.8z" class="a"/><path d="M113.8 14.5c0 .6-1.6 1.4-2.4 1a58.2 58.2 0 0 0-10.9-2.5l-3.4-.4c-.7 0-1-.2-.8-1 1-3.7 3.9-6.8 8.7-4.9a18.7 18.7 0 0 1 8.5 7.2 6 6 0 0 1 .3.6z" class="i"/><path d="M221.9 27.3a18.9 18.9 0 0 1 7.4 2 .8.8 0 0 1 .5 1 8.5 8.5 0 0 1-2.5 4.2c-.4.3-.7.2-1.2 0a15.6 15.6 0 0 0-9.6-.9 1.1 1.1 0 0 1-1.2-.4c-2-2.4-2-2.5.6-4.1a10.7 10.7 0 0 1 6-1.8z" class="a"/><path d="M192.5 258l-1-1 .2-.3c-.8-1.8.3-3.3 1-4.8a37.8 37.8 0 0 0 3-10.7l.3-1.2a26.3 26.3 0 0 1 1.4 9.4c0 .7 0 .6.6.7a67.1 67.1 0 0 0 10.2 1.2.6.6 0 0 1 .6.4c-1.4.3-3-.2-4.3.4a27.6 27.6 0 0 0-10.6 4.7 6.6 6.6 0 0 0-.7.7.5.5 0 0 1-.7.4z" class="k"/><path d="M192.7 249.6c-1-1.8-1.3-3.8-2.1-5.7a60.2 60.2 0 0 0-8.4-14.2 152.2 152.2 0 0 0-14-14.6l-.2-1.5c.6-.1 1 .3 1.3.7 3.5 3.5 7 6.8 10.4 10.4a60.6 60.6 0 0 1 13.2 21.4 5 5 0 0 1 .4 2z" class="l"/><path d="M192.1 216.4a9.7 9.7 0 0 1-3.5-.4 1.3 1.3 0 0 1-1-1.2c-.1-.7 0-1 .8-.7 3.5 1.4 6.7.6 9.9-1a5 5 0 0 1 1.2-.4 26.4 26.4 0 0 0 4-1.3 9.4 9.4 0 0 0 5.7-5.6c.3-.8 2.2-2 2.8-1.6a1.8 1.8 0 0 1 .6 2.2 5.2 5.2 0 0 1-2 2.7 49 49 0 0 1-11 5.3c-2.5 1-5 2.2-7.5 2z" class="m"/><path d="M111.3 16.3l-4.3 3c-.4.2-.6.3-1 0a19.3 19.3 0 0 0-9.1-3.1c-1.7-.2-1-1.3-1-2.1 0-1.2.6-1 1.4-1a57.9 57.9 0 0 1 12.7 2.6l1.3.6z" class="a"/><path d="M94.3 20c1-.1 1.4.3 1.6 1.2a16.6 16.6 0 0 0 1.8 4.5 1.2 1.2 0 0 1-.3 1.8c-2 2.1-2 2.1-4-.2a18.7 18.7 0 0 1-3.2-5.5c-.3-.8 0-1.1.8-1.2l3.3-.6z" class="j"/><path fill="#fef6f7" d="M195 231.6c-.2.7-.3.2-.5 0l-3.7-5.2c-1.5-1.9-3-3.7-4.7-5.5-3.1-3.5-6.5-6.8-9.9-10.2-.3-.3-.7-.6-.7-1.1l.3-1c.7-.1 1 .4 1.5.8a164 164 0 0 1 16.1 17.6 8.3 8.3 0 0 1 1.4 2.3 7 7 0 0 1 .3 2.3z"/><path fill="#fdbce1" d="M194.8 229.3c-5-7-11-13-17-19a11.2 11.2 0 0 0-2-1.7v-1.2c1 .2 1.6 1.1 2.3 1.8a126.5 126.5 0 0 1 15.8 16.7c.8 1 .7 2.2.9 3.4z"/><path fill="#faece4" d="M208.3 206a6.8 6.8 0 0 0-.6-.7 7.8 7.8 0 0 1-2-6.9 55 55 0 0 1 1-5.4c2 3.8 3.7 7.6 2 12a2.5 2.5 0 0 1-.4 1z"/><path d="M92.1 33.1L88.5 38a.7.7 0 0 1-1.1.2 14 14 0 0 1-3.6-3.4c-.4-.7-.3-1 .4-1.1a18.6 18.6 0 0 1 8-.5z" class="k"/><path fill="#f9ece4" d="M192.1 213.1c-3.5-4-3.2-8.7-3.2-13.7a22.3 22.3 0 0 1 3.2 13.7z"/><path fill="#cdeef0" d="M103.8 21.7l-4.5 4c-.3.3-.5.3-.8-.1a25.7 25.7 0 0 1-1.9-4.9c-.1-.5.2-.6.6-.6a23.5 23.5 0 0 1 6.6 1.6z"/><path d="M196.7 216.5v.6c-.7 0-.4.6-.5 1a10.1 10.1 0 0 0 .5 3.1c-.9-.2-.7-1-1.2-1.5-.3.4.4 1-.2 1.3s-1 0-1.5-.2a6.7 6.7 0 0 1-3.9-3.6 23.4 23.4 0 0 0 6.8-.7z" class="s"/><path fill="#fcbae1" d="M226.1 40a24.6 24.6 0 0 1-3.8 1.3 1.5 1.5 0 0 1-2-.9c-.2-.6-.6-1.1-1-1.7 2.6-.9 5-1.3 6.8 1.4z"/><path fill="#fafbfc" d="M226.5 53.6a26.5 26.5 0 0 1 4.2 4.6c.3.3.3.6-.1.9a4.6 4.6 0 0 1-1.6.7c-.4 0-.7 0-.8-.5l-1.7-5.7z"/><path fill="#fbfbfc" d="M123 179c.3.3.6.7 1 .6l-2.5.7c-.7.2-1-.5-1.5-.7a16.8 16.8 0 0 0-2.1-3.5c-.3-.3-.7-.7-.1-1.1s.8 0 1 .4a20.9 20.9 0 0 0 2.8 3.3c.3.4.7 1.1 1.4.4z"/><path fill="#c2e0e9" d="M221.8 37.2a6.1 6.1 0 0 1-2.7.6 1 1 0 0 1-1-1c0-.5.7-.2 1-.2a7.7 7.7 0 0 1 2.7.6z"/><path fill="#94a8cc" d="M186.3 153l1.6-4.3.4.1-1.8 4.7z"/><path d="M189.3 255a1.1 1.1 0 0 0 1-1.2 1.7 1.7 0 0 1 .2 1.8c-.6.3-.9-.3-1.2-.5zM190.8 256.3c-.2-.2-.4-.4-.3-.7.4-.2.6 0 .7.4s-.2.3-.4.3z" class="k"/><path d="M196.8 217.3c.4.4.2.9.2 1.3a2.4 2.4 0 0 1-.2-1.3z" class="s"/><path d="M127.4 299.3l1.6-1.7c1-.2.8.5.8 1 0 1-.4 1.8 0 2.7.3.5 0 1.1.2 1.6 0 3.1 1.8 5.4 3.8 7.5a38.1 38.1 0 0 0 12.3 8.3c1 .5 1.1.8.9 1.8a135.8 135.8 0 0 0-3.8 22.1c-.6 6-.4 11.9-1 17.8l-.2 3.4a1.1 1.1 0 0 1-.7 1 43.9 43.9 0 0 1-18.7-.4 35 35 0 0 1-20.5-13.8c-6-7.9-5.8-22.8.2-30.8a42.3 42.3 0 0 1 6.6-6.4 113 113 0 0 1 10-7.3 48.3 48.3 0 0 0 5.3-4.4c1-.9 2.5-1 3.2-2.4zM163.3 259.3l15.1 10.1a25.7 25.7 0 0 0 10.2 4.2 13.7 13.7 0 0 0 5.4-.4c4.4-1 9.2 1.7 11.3 5.4a10.2 10.2 0 0 1-1 12.1 13.9 13.9 0 0 1-10.7 5.6 12.8 12.8 0 0 1-7-1.8 21.8 21.8 0 0 1-5.5-4.3 38.6 38.6 0 0 0-9.8-7.8c-2.4-1.4-5.2-2.1-7.8-3.2-4.3-1.7-8.7-3.3-12.8-5.6a1.2 1.2 0 0 0-.3 0l-9.3-5.3a63.8 63.8 0 0 1-11.6-8c-8-7.4-16.2-14.7-24-22.6l-.3-.4c0-.2.1-.2.2-.2 3.1 1 6 0 8.7-1.3l7.3-3.8a13.1 13.1 0 0 1 1.8-.7 2.6 2.6 0 0 1 2.9.4c.4-.7-.3-1.2-.3-1.8a11.5 11.5 0 0 0 4-.3c.7-.1.9.4 1.2.7a107 107 0 0 1 8.7 9.8 66 66 0 0 0 16.3 14.5l7.3 4.7z" class="h"/><path d="M123.5 201.3a2 2 0 0 0 .3 1.3c0 1.8-.4 3.7-.1 5.6a13 13 0 0 0 5.3 9.4 2.1 2.1 0 0 1-1.2.6c-4 .8-7.2 2.8-10.7 4.6a20.2 20.2 0 0 1-7.5 2.6c-.7 0-1 0-.7-.9 1.3-5-2.2-10.8-6.1-13-.6-.4-.7-.2-.8.4-.9 4.4.6 8.3 2.5 12.1l.7 1.1a15 15 0 0 1-5.6-1.1 34 34 0 0 0-6.8-2 1.4 1.4 0 0 0-.5 0c-2.1.4-2.9-1-3.6-2.6a24.1 24.1 0 0 1-2.4-8.5 18 18 0 0 0-.8-4.1 26.3 26.3 0 0 1-1-14.6 17.9 17.9 0 0 1 15.2-14.1 29.4 29.4 0 0 1 6.7-.2 1.6 1.6 0 0 1 1.7 1.4c.9 3.7 1.6 7.4.7 11.1a6.7 6.7 0 0 1-.6 2c-.7 1-.1 1.4.7 1.8 4.1 1.8 8.2 4 12.7 4.7 1.2.2 1.8.6 1.7 1.8a1.6 1.6 0 0 0 .2.6zM122.5 365.4a102 102 0 0 1-16.8-.5 42.5 42.5 0 0 1-20.4-7 43.3 43.3 0 0 1-5.3-4.6 7.9 7.9 0 0 1-2.1-7.7c1.1-5.2 3-10 7-13.8 1.8-1.7 3.3-3.7 5-5.6 2.5-2.6 5.7-4.4 8.7-6.5a6 6 0 0 1 2-.7 1 1 0 0 1 1 .1c.4.4-.1.7-.3 1-6 8.8-6.2 23.8 1.5 32.5 2.2 2.6 4.3 5.4 7 7.4a31.6 31.6 0 0 0 8.6 4.1l4 1.3z" class="i"/><path d="M57.3 363.8a.5.5 0 0 1-.5-.2 23.3 23.3 0 0 1 2.2-6.4c2.4-5.4 5.7-10.3 8.5-15.5a97.3 97.3 0 0 1 8.2-12.6A74.6 74.6 0 0 1 92 313c5.3-3.8 10.7-7.3 15.6-11.5a50.3 50.3 0 0 0 8-8 10.7 10.7 0 0 0 2.2-5.4 2.4 2.4 0 0 1 .5-1.5l9.2 1.7c.3 2.4-.9 4.4-2 6.3-1.9 3.2-4.7 5.5-7.4 7.9-5.2 4.4-11 8.1-16.6 12A174.6 174.6 0 0 0 87 325a112.3 112.3 0 0 0-13.4 13.6 126 126 0 0 0-15.9 24.5 1.9 1.9 0 0 1-.4.6z" class="j"/><path d="M126 193.8a24.4 24.4 0 0 0-4-11.7c-.5-.9-.4-1.1.6-1.3a30 30 0 0 1 16.9 1.4 39 39 0 0 1 5.2 2.3c.5.3.8.5.4 1-1.8 2.3-1.7 4.8-1 7.4a27 27 0 0 0 2.7 6.9 1.6 1.6 0 0 1-.5 2.4 19.7 19.7 0 0 1-8.7 3.8 13.8 13.8 0 0 1-5.8 0 2.6 2.6 0 0 0-1.3.2c-2.5.7-4.3 0-5.5-2.4a10.3 10.3 0 0 1-1-3.7c0-.3 0-.6.2-.8 1.7.7 1.5-.7 1.8-1.5a22.9 22.9 0 0 0 0-4z" class="y"/><path d="M150.3 208c.8.3.7 1 1 1.6 2 5.9 3.5 12 5.2 18 2.8 9.4 5.8 18.8 8.2 28.3.3 1.3.3 2.2-1 2.9-5.3-3.7-10.8-7.2-16-11.2-1-.9-1.7-1.9-2.7-2.7-.6-.6-.2-1.2.1-1.7a56 56 0 0 0 4.8-15.5 69.8 69.8 0 0 0 .5-17.6v-2z" class="i"/><path d="M125.7 29.2a3.8 3.8 0 0 0 0 2.1 3.6 3.6 0 0 1-2 4.1c-2.9 1.5-7.5.1-9.1-2.7a3.4 3.4 0 0 1 .2-3.7 30.9 30.9 0 0 1 2.2-2.7 6.1 6.1 0 0 0-3 2.7c-.4.6-.7.6-1.1.1-2-2.5-2.8-5.7-.5-8.8a3.7 3.7 0 0 1 4.1-1.2c1.6.4 3.3 1 3.7 3a7.5 7.5 0 0 0 2.4 4c0-.6-.3-.8-.4-1-1.7-2.5-2.2-5-.5-7.5s4.2-3.2 7.1-2.7c3.2.5 5.7 2.6 6.3 5.3a5.4 5.4 0 0 1-.3 2.7c-.6 2.1-1 2.3-3 1.5a3 3 0 0 0-1-.2c1 .4 1.5 1.4 2.4 2 1.5.8 2.1 3.3 1.4 5a5.3 5.3 0 0 1-4.4 3.3 3.5 3.5 0 0 1-3.6-2.2l-.9-3.1z" class="j"/><path d="M150 274c-2 2.6-4.4 4.9-6.6 7.2l-2.8 3a4 4 0 0 1-1.4 1 48.4 48.4 0 0 1-24.2-4.1 5.3 5.3 0 0 1-1.2-.8 17.3 17.3 0 0 0 6.4-.2c7.3-1.8 12-6.5 14.8-13.4.3-.9.6-.8 1.2-.4a140 140 0 0 0 13.8 7.8zM102.8 235.3c2.8 4 6.4 7.2 10 10.5l9.7 9c.4.7-.2 1-.4 1.6a23.9 23.9 0 0 1-9.8 11.8c-2.1 1.3-4.4 2.3-6.5 3.5-.8.3-1 0-1.1-.7a7.9 7.9 0 0 1 1-5c4.4-6.7 3.6-13.7.8-20.7-1.2-3-2.7-5.7-4-8.5a8.7 8.7 0 0 1-.7-1.6c-.1-.6.1-.8.7-.4.2.1.1.4.3.5z" class="i"/><path d="M121 227.7a9.8 9.8 0 0 1 4 2.5c-3.4.3-6 2-8.8 3.6a45.5 45.5 0 0 1-4.5 2.2 10.3 10.3 0 0 1-6 .4c-1-.2-1-.5-.7-1.3a7 7 0 0 0 .8-4c0-.4 0-1-.4-1.2-.5 0-.3.4-.2.7.1 2 0 2.3-1.8 3a5.1 5.1 0 0 1-5.6-.7 4.9 4.9 0 0 1-1.4-5.7c.4-1 .9-1.1 1.8-.7l3.1 1.3c4.5 1.5 9 .9 13.4-.4a72.1 72.1 0 0 0 13.3-5 24.6 24.6 0 0 0 5.4-3.6 4.8 4.8 0 0 1 5-.4 1.9 1.9 0 0 1 .8 1.5 6.9 6.9 0 0 1-4.2 6.7 26.2 26.2 0 0 1-5.7 2.2 7.2 7.2 0 0 1-5.7-.7 2.8 2.8 0 0 0-2.5-.4z" class="i"/><path d="M90.5 234.8c0-3 .4-6.2.7-9.3 0-.4.1-.8.8-.6l3.2.8c.7.2.9.4.6 1.1-1.5 3.8.5 7.2 4.5 8 .3.1.6 0 .8.5 1.3 3.9 3.6 7.3 5 11.1a36.4 36.4 0 0 1 1.6 6c.2.9 0 1.2-1 1a83.1 83.1 0 0 0-11.5-1.1c-.7 0-1-.2-1.3-.8a47.1 47.1 0 0 1-3.4-16.7z" class="a"/><path d="M115 45.1c1.5 1.7 1.4 1.7-.6 2.9a6.3 6.3 0 0 1-9.4-3.8c1.5.3 3 .7 4-.8a5 5 0 0 1-4.6-.6c-2-1.4-2.8-3.9-1.8-6.5a4.7 4.7 0 0 1 5.3-3.2c.4 0 .4 0 1.5 1.7l-.3-2.2a4.8 4.8 0 0 1 1.4-4.3c.4-.4.8-.6 1.2.1A11.4 11.4 0 0 0 113 30c.2.3.4.4.4.8-.1 2.9 1.8 4.2 4 5.3a6.9 6.9 0 0 0 5.1.6 1 1 0 0 1 1.3.6 10.2 10.2 0 0 1 .8 5.5 5 5 0 0 1-7.2 3.8 10.4 10.4 0 0 1-2.5-1.3z" class="j"/><path d="M103.3 52.9c-1.3-.5-2.2-.7-3-1.6-1-1.2-1.2-2.5-.2-3.7a4.7 4.7 0 0 1 3.9-1.8 1.2 1.2 0 0 1 1 .5c2.2 3 5 3.8 8.5 3a2.3 2.3 0 0 1 2.8 1c2.3 3.4 1 7.1-2.6 7.9a20.1 20.1 0 0 1-2.8-.1 3 3 0 0 0 1.7.7c.3 0 .6.1.6.5.4 2.5-2.1 5.6-4.8 5.8a3.7 3.7 0 0 1-3.7-2 5.3 5.3 0 0 1-.2-5.3 16 16 0 0 1 1-1.5 3.8 3.8 0 0 0-2.3 3.8c0 2-.2 2-2.2 2-4-.2-7-4.9-5.3-8.2a4.5 4.5 0 0 1 2.8-2 1.4 1.4 0 0 1 1.5.4 2.8 2.8 0 0 0 3.3.6zM112 279.3a30.2 30.2 0 0 1-6.3-4.7 3.5 3.5 0 0 1 1.6-.8 32.8 32.8 0 0 0 14-10.2 19.6 19.6 0 0 0 2.7-4.6 3.3 3.3 0 0 1 1-1.7c2.5 2.3 5 4.7 7.7 6.8a6 6 0 0 1-1.1 3.8 23.5 23.5 0 0 1-12 9.8 17.8 17.8 0 0 1-7.6 1.6zM139.8 213c2.4-1 5.1-1.1 7.4-2.5.8 1.2.5 2.5.4 3.8a100.5 100.5 0 0 1-2 16.3c-.7 3.5-1.8 7-3 10.4a1.4 1.4 0 0 1-.4.8l-4.6-5.4a49.9 49.9 0 0 0-5.3-5.7l-1.6-1.3a48.8 48.8 0 0 0 5.3-2.4 6.5 6.5 0 0 0 3.7-5.5c.2-1.4.4-2.7-1-3.7-.4-.3 0-.7 0-1a12.5 12.5 0 0 0 1-3.7z" class="j"/><path d="M56.5 368.7l1-2.2a11.7 11.7 0 0 1 6.4-.1 32 32 0 0 1 13.7 7 3.3 3.3 0 0 1 .4.4 13 13 0 0 1-7 6.7 4.7 4.7 0 0 1-2.1-1c-3.7-2.4-7.4-4.7-10.5-7.8a6 6 0 0 1-1.9-3z" class="z"/><path d="M34 384.3l8-6c.2-.2.5-.5.9-.3 2.7.9 4.6-.5 6.4-2.2a31 31 0 0 0 2.3-2.8 49.1 49.1 0 0 0-1.4 6.3 3.1 3.1 0 0 0 1.6 3.2 7 7 0 0 1 .5.6c-.2.5-.7.8-1.2 1a145.6 145.6 0 0 0-14.6 9.2c-1.8 1.3-2.2 1-2.2-1.2l-.3-7.8z" class="j"/><path d="M52.5 365.2a1 1 0 0 1-.4.6 30.5 30.5 0 0 1-8.2-.7 43.5 43.5 0 0 1-13.1-4.1 3 3 0 0 1-1.2-1 13.8 13.8 0 0 1 4.4-7.5 2.2 2.2 0 0 1 1.6.2 34.3 34.3 0 0 1 13 7.2 15.4 15.4 0 0 1 4 5.3z" class="z"/><path d="M73.3 328.9l.3-1c.8-2.6 1.8-5.2 2.4-8 .8-3.9 3.3-6.6 6.4-9a86 86 0 0 1 8.9-5.8 95.3 95.3 0 0 0 12.8-8.8 92.2 92.2 0 0 1-6.6 8.4c-2.8 3.4-6.3 6-9.6 8.8a98.8 98.8 0 0 0-13.8 14.7l-.6.8z" class="i"/><path d="M57.3 363.8a8.3 8.3 0 0 1 1.3-3 136.2 136.2 0 0 1 7.4-12.6 124.5 124.5 0 0 1 9.9-12.6 110.3 110.3 0 0 1 20.8-18.1c5.7-4 11.6-7.7 17-12 4.2-3.2 8.5-6.4 11.5-11a16.5 16.5 0 0 0 2.3-6.2l1 .2c.5.6.3 1.3.1 2a22.7 22.7 0 0 1-7 10.7c-7 6.4-15 11.4-22.8 16.8a154.6 154.6 0 0 0-14.5 11 92.2 92.2 0 0 0-11.6 12.5l-3 4a170.8 170.8 0 0 0-9.1 15 14.2 14.2 0 0 1-1.3 2c-.7.6-1 1.4-2 1.3z" class="l"/><path fill="#fef8f8" d="M118.3 286.6c0 3.4-1.5 6-3.7 8.5-4.9 5.7-10.9 10-17 14.3-5.1 3.7-10.4 7.2-14.9 11.9a85.2 85.2 0 0 0-13.4 17.9c-3.2 6-7 11.7-10 17.8-1 2.2-1.6 4.5-2.5 6.6-1.5-.1-1.1-1-.8-2a117.5 117.5 0 0 1 6.7-14 139.6 139.6 0 0 1 16-23.7 74.2 74.2 0 0 1 11.4-10.7c.8-.5 1.5-1.2 2.2-1.8 2.7-2.3 5.7-4.2 8.6-6.3a80.8 80.8 0 0 0 12.5-11 11.4 11.4 0 0 0 3.3-6.8 1.2 1.2 0 0 1 .3-1 2.2 2.2 0 0 1 1.3.3z"/><path d="M86.6 328.6a9.3 9.3 0 0 1-2.5 2.8 13.1 13.1 0 0 0-3.5 4.4 26.3 26.3 0 0 0-3.6 11.8 12.6 12.6 0 0 0 .4 3 5.4 5.4 0 0 0 1.6 3l3.5 3.3c-3.4-.7-6.7-.7-9.5-2.6a7.2 7.2 0 0 1-3-3.2 4.7 4.7 0 0 1 .4-4.8 75.7 75.7 0 0 1 15.8-17.5 3.3 3.3 0 0 1 .4-.2z" class="i"/><path d="M91 222.7a12 12 0 0 1 4.8.7c2.3.7 4.5 1.8 7 2.3 5 1 9.9.6 14.4-2 1-.7 2.1-1.2 3.2-1.8a45.8 45.8 0 0 1 9.2-3.8c.9-.3 1.6-1 2.6-.8.4.1.8.1 1 .4s-.3.6-.5.8a15.8 15.8 0 0 1-3.7 2.7 60.4 60.4 0 0 1-19 6.5 16.6 16.6 0 0 1-10.2-1.3 13.3 13.3 0 0 0-3.7-1.1c-1.8-.4-3.7-.8-5.2-2.6z" class="k"/><path d="M115.8 286.3a40.8 40.8 0 0 1-17.5 18.8l4.2-5.1c3.4-4.4 6.5-9 7.8-14.5.3-1.2.6-1.4 1.7-.9a26.8 26.8 0 0 0 3.5 1.3c.2 0 .4.2.3.4z" class="i"/><path d="M138.8 286.3c-1 .6-1.4 1.8-2.5 2.3a127 127 0 0 1-17-2.7 30.6 30.6 0 0 1-9.1-3 5.6 5.6 0 0 1-2.8-5.6 45.8 45.8 0 0 0 5.2 3.3 42.4 42.4 0 0 0 16 5.2 36 36 0 0 0 9 .3c.4 0 .9-.2 1.2.2z" class="k"/><path d="M33.3 399.3a45.2 45.2 0 0 1-1.6-12.2c0-1.1.3-1.9 1.3-2.2a5.3 5.3 0 0 1 .6 2.8v5.2a8 8 0 0 0 0 1.3c.2 1.2.6 1.4 1.7.7l2.2-1.5a137.5 137.5 0 0 1 14.2-8.7c.4-.3.8-.7 1.3-.4.4.6 0 .9-.4 1.2a107.7 107.7 0 0 1-19.3 13.8z" class="j"/><path d="M148.3 209.8l.7-.7c.8 0 .7.7.7 1 .5 9.5-.1 18.7-3.2 27.7l-2 5.3c-.3.8-.6.7-1 .2l-1-1.2a23.3 23.3 0 0 1 1.4-3.2 62.9 62.9 0 0 0 3.5-14.7 140.8 140.8 0 0 0 .9-14.4z" class="ab"/><path d="M84.3 329a39.8 39.8 0 0 1 6-5.2c6.4-5 13.3-9.3 20-14a125.7 125.7 0 0 0 10.5-8.3 24.6 24.6 0 0 0 6.6-8.4 10.6 10.6 0 0 0 1.2-4.6c1-.1 1 .4.8 1.1a30.2 30.2 0 0 1-6 10.8c-4.5 5-10 8.6-15.5 12.2-7.9 5.1-15.8 10.1-23 16.1-.2.2-.4.4-.6.4z" class="ac"/><path d="M35.3 351.6a3 3 0 0 1 3.3-1c4.4.8 8.3 2.6 11.3 6a18.9 18.9 0 0 1 3.6 6.6 1.3 1.3 0 0 1-.4 1.4c-1.2-1.4-2-3-3.2-4.4a35.2 35.2 0 0 0-13.5-8c-.4-.1-1-.1-1.1-.6z" class="z"/><path d="M49.3 368c.9.2 2-.5 2.7.8a33.8 33.8 0 0 1-8.5 8.1 1 1 0 0 1-.6.2 4.7 4.7 0 0 1-3.1-3.8 17.2 17.2 0 0 1 5.8-4 26.6 26.6 0 0 1 3.7-1.2z" class="ad"/><path d="M108.4 222.1a17.5 17.5 0 0 1-.2 2c0 .4 0 1.1-.6 1.2a1.6 1.6 0 0 1-1.9-.7c-.4-.8-1-1.6-1.3-2.5a19.2 19.2 0 0 1-2-9c0-.2 0-.6.3-.7s.4.2.6.3a12.7 12.7 0 0 1 5 9.4z" class="h"/><path d="M133.5 207c.6 1.8 1.2 3.5 2.7 4.7a4.5 4.5 0 0 0 1.8 1c1 .4 1.2 1 .9 2-.9 2.6-1.8 3.2-4.4 2.6a14.1 14.1 0 0 0-2.9-.8c-.7 0-.2-.5-.1-.8a20.4 20.4 0 0 0 1.1-5 9.2 9.2 0 0 0 0-2.6c-.2-.8 0-1 .9-1z" class="k"/><path d="M53 384.3c-3 1.4-5.7 3.2-8.5 4.9-3.2 1.9-6.2 4.1-9.3 6.2-1.2.7-1.4.6-1.8-.7a6.1 6.1 0 0 1-.1-1.6 73.2 73.2 0 0 0-.3-8.2l1-.7a8.4 8.4 0 0 1 .5 3.2c.1 2.1-.2 4.3.4 6.6a168.2 168.2 0 0 1 17.4-11c.7.2.8.7.7 1.3zM148.3 209.8c.3 0 .4.3.4.6-.3 4-.2 7.8-.7 11.7a55 55 0 0 1-4.7 19c-.2.4-.4.8-.8 1l-.3-.2a22 22 0 0 1 1.3-4.6 77.2 77.2 0 0 0 3-14.6 97.7 97.7 0 0 0 .7-12.2z" class="l"/><path d="M69.5 381.1l-3.5 1.6a1.4 1.4 0 0 1-1.6-.5 36.8 36.8 0 0 1-8.9-11.3 1 1 0 0 1 .5-1.3c.9.8 1.3 2 2.2 2.9 3 3 6.6 5.3 10.1 7.6.4.3 1 .5 1.2 1z" class="z"/><path d="M124.7 204.6a4.6 4.6 0 0 0 3.1 2.4l1.2.3a19.1 19.1 0 0 1 .4 9.4 3.1 3.1 0 0 1-1.7-1.2c-2.7-3-3.5-6.5-3.4-10.4 0-.3.1-.5.4-.5z" class="k"/><path d="M125 257.3a24.4 24.4 0 0 1-9 12 41 41 0 0 1-9.5 5.1 6.3 6.3 0 0 1-.8.2 1 1 0 0 1-.5-.7c-.2-1 .6-1 1.1-1.2a37.3 37.3 0 0 0 9.7-5.6 22.9 22.9 0 0 0 7-9.2c.2-.6.3-1.3 1.2-1.4zM112 279.3a50.1 50.1 0 0 0 7-1.7 24 24 0 0 0 12.4-9.7 18.7 18.7 0 0 0 1.4-3.8l1 .7a3.6 3.6 0 0 1-.5 2.7 23.7 23.7 0 0 1-14.8 12l-1.7.3a9.2 9.2 0 0 1-4.8-.5z" class="l"/><path d="M135.9 289.3c-2.8 2.9-5.3 6-8.2 8.7l-1 .8-2.2 1.7a44.1 44.1 0 0 0 4.2-7.5 17 17 0 0 0 1.3-3.6c0-.3 0-.7.5-.7 1.8.3 3.6.1 5.4.6z" class="k"/><path d="M57.8 383.5a12.7 12.7 0 0 1-4.5-.8 32 32 0 0 1 .4-6.6c.1-1.5.4-3 .7-4.4 0-.4 0-.7.4-.9a27.5 27.5 0 0 0 2.5 4.8 1.6 1.6 0 0 1 0 1 20.9 20.9 0 0 0 .5 5.6 1.9 1.9 0 0 1 0 1.3z" class="ae"/><path d="M115.8 286.3l-.3-.4a3.3 3.3 0 0 1 1.5.4c.1 3.2-1.3 5.8-3.4 8a86.5 86.5 0 0 1-15.5 13.1l-5.8 4c2.3-2.7 5.3-4.6 8-6.7 3.2-2.3 6.5-4.5 9.3-7.4a31.5 31.5 0 0 0 6.4-9.7c.2-.5.8-1-.2-1.3z" class="ac"/><path d="M58 365.5c.6-1.3 1.8-1 2.8-1.1 6.8-1 12.3 1.7 17.1 6.2a1.4 1.4 0 0 1 .3 2c-.6.1-1-.4-1.3-.7a30.6 30.6 0 0 0-11.4-5.7 13.7 13.7 0 0 0-6.3-.6 1.3 1.3 0 0 1-1.2 0z" class="ae"/><path d="M29.6 360a32 32 0 0 1 3.8 1.8 55.2 55.2 0 0 0 17.1 3.7 3.3 3.3 0 0 1 1.6.3l-.4.9c-.6.7-1.4.4-2.1.3a48.8 48.8 0 0 1-17-3.7c-1.1-.5-2.4-.8-3.1-2z" class="af"/><path d="M29.5 361.4a42.5 42.5 0 0 0 15.7 5 28 28 0 0 0 6.5.4c0 .6-.4 1-1 .8-2.2-.5-4.4-.1-6.6-.2-4.6-.3-9.1-1-13.2-3.5-1-.6-2.1-1-1.4-2.5z" class="ae"/><path d="M35.3 351.6a36.6 36.6 0 0 1 13 6.8 14.2 14.2 0 0 1 4.8 6.2l-.6.6c-1-.8-1.4-2-2.3-3a31.9 31.9 0 0 0-15.4-9.3l-.8-.3a2.6 2.6 0 0 1 1.3-1zM58 365.5c3.7-1 7.2 0 10.6 1.3a32.2 32.2 0 0 1 9.6 5.8l-.2 1.2c-.7 0-1-.6-1.5-1a29.6 29.6 0 0 0-14.2-6.4 10.3 10.3 0 0 0-3.6.2c-.4 0-.8.2-1.2 0z" class="af"/><path d="M124.3 256.5a2.4 2.4 0 0 0-1 1.4c-2.1 5.4-6 9.2-10.9 12a34.6 34.6 0 0 1-6.4 3.2c-.4.1-.7.3-.8.7-.5-1-.1-1.3.8-1.7 7.2-2.7 13-7 16.2-14.4.1-.4.9-1-.2-1.3 0-.6.4-1 .5-1.5a9.6 9.6 0 0 1 1.8 1.6z" class="ag"/><path d="M69.5 381.1a62.3 62.3 0 0 1-11.2-8 9.3 9.3 0 0 1-2.4-3.5l.6-.9c3 5 8 7.4 12.5 10.5l2 1.4z" class="af"/><path d="M116.8 279.8a26.1 26.1 0 0 0 10-5c3.4-2.6 6-5.7 7-10 1.1.4 1.3 1 .7 2.2a23.3 23.3 0 0 1-10.7 11.2 16.2 16.2 0 0 1-7 1.6z" class="ac"/><path d="M54.5 369.4a6.2 6.2 0 0 1-1.6-.7c-.5-.4-1-1-.4-1.8l1.6-2.4c.8-1 1.7-.5 2.5-.1s.6 1.1.3 1.8l-1.3 2.4a1 1 0 0 1-1 .8z" class="z"/><path d="M59.3 362.6a86 86 0 0 1 4.4-8.1c1.7-2.9 3.5-5.6 5.4-8.3a4.2 4.2 0 0 1 .7-.6l-2.8 5c-2 3.3-3.4 6.9-5.7 10a7.8 7.8 0 0 1-2 2z" class="ag"/><path d="M54.9 370.8c-.6 3.8-1.2 7.6-1.4 11.4l-.2.5-1-.6a1.4 1.4 0 0 1-.4-1.3 51.9 51.9 0 0 1 1.2-8.5 3.8 3.8 0 0 1 .9-1.7c.4-.3.7-.3.9.2z" class="ah"/><path d="M42.9 377a44 44 0 0 0 8.7-8l.4-.2a.5.5 0 0 0 0 .3c.3.4 0 .8-.2 1.2a18.3 18.3 0 0 1-7.4 7.3 1.5 1.5 0 0 1-1.5-.5z" class="ai"/><path fill="#539adc" d="M54 370.6a39.2 39.2 0 0 0-1.7 11.5c-1.5-1-1.6-1.5-1.3-3.3.4-2.4 1.2-4.7 1.8-7a1.6 1.6 0 0 1 1.2-1.2z"/><path d="M49.3 368a.9.9 0 0 1-.7.6 22.5 22.5 0 0 0-8.2 4.4 4 4 0 0 1-.6.3c-.7-.9 0-1.5.6-2 2.5-2.1 5.4-3.6 8.9-3.2z" class="ak"/><path fill="#f9f9fb" d="M130.3 206.8a1.8 1.8 0 0 1 1.4.3 15.4 15.4 0 0 1-1.4 9 24.3 24.3 0 0 0 0-6.3 15.9 15.9 0 0 0-.4-2c-.3-.5 0-.7.4-1z"/><path fill="#f4f2f6" d="M57.8 383.5a15.3 15.3 0 0 1-.5-8c.4.3.4.8.7 1a23 23 0 0 1 1 6.8z"/><path fill="#5599da" d="M44.5 377.6a60 60 0 0 0 5.2-4.6 10 10 0 0 0 2.3-4c.5.3.7.7.4 1-1.6 2.4-2.9 5-5.4 6.6a4.8 4.8 0 0 1-2.5 1z"/><path d="M59 383.3a30.1 30.1 0 0 1-1-6.7 2.7 2.7 0 0 1 1.3 2.5c-.1 1 .3 2.2.2 3.3 0 .4 0 .9-.6.9z" class="ae"/><path fill="#d6d8e9" d="M101.9 317.5l4.3-2.9a6 6 0 0 1-4.3 2.9z"/><path fill="#e7dbdc" d="M102.8 235.3a.5.5 0 0 1-.3-.5l2-.8c-.2 1.8-.5 2-1.7 1.3z"/><path d="M126 193.8a7.8 7.8 0 0 1 0 4 13.2 13.2 0 0 1 0-4z" class="c"/><path d="M130 297a5.7 5.7 0 0 1 1.7-2.2l8.7-9.3c1.2-1.3 2.3-2.8 3.6-4 2.1-2.2 4.6-4 6.2-6.5.3-.4.6-.4 1-.2 5.8 2.9 12 4.7 17.8 7.3a30 30 0 0 1 11 8 19.1 19.1 0 0 0 8.1 5.7 28.7 28.7 0 0 0 5.6 1.4l-2.3 5.7-6 15.3-14.5 35.9c-3.1 7.8-6 15.8-9.4 23.6A28.8 28.8 0 0 0 159 389a18.6 18.6 0 0 0 4.4 12c3.6 4.6 8.3 7.9 13.2 11l2.6 1.6a3 3 0 0 1 .4 4.5 7 7 0 0 1-4.8 2 68 68 0 0 1-8.7.1 22.2 22.2 0 0 0-8.5 1.2 7.8 7.8 0 0 1-8.4-2.2 41 41 0 0 1-4.8-7c-1.8-3-3.9-6-5.8-8.9s-3.6-6.1-3.6-9.7a12 12 0 0 1 1.3-6.5 41.5 41.5 0 0 0 4.3-11.8 98.2 98.2 0 0 0 2.6-16.9l.2-6.5c.1-5.1.6-10.2 1.2-15.4a117.3 117.3 0 0 1 3-15.7 108.7 108.7 0 0 1 8-21.3 161 161 0 0 1 8.2-14c.4-.5.7-1.2 1-1.9-.5-.2-.6.2-.7.4a148.8 148.8 0 0 0-9.5 15.7 105.6 105.6 0 0 0-6.7 17c-.6 1.9-.7 2-2.4 1.1-5-2.4-9.6-5.4-13-9.9a14 14 0 0 1-2.4-7.2c0-.5.1-1-.3-1.5a1.9 1.9 0 0 1 .1-2zM193.3 258c3.5-2.3 7.1-4.5 11.4-5.2a10 10 0 0 1 8.8 2.3 16.5 16.5 0 0 1 5 8.7c.2.6 0 .8-.5 1-5.7 2.5-8.5 7-8.5 13.2a13 13 0 0 0 3.6 9.5 4.3 4.3 0 0 0 3.8 1.6 30 30 0 0 0 8.3-2 7.9 7.9 0 0 0 4.4-4.9c0-.3.2-.5.4-1a16.2 16.2 0 0 1 1.4 4.2c2 6.9 3.5 13.9 4.8 21a374.7 374.7 0 0 1 4.9 35.8c.4 5 .7 9.9 1.2 14.8.2 1.8 1.1 3.6 1.3 5.5a35.2 35.2 0 0 1 .5 7.4 18.4 18.4 0 0 0 2.2 10.3 31.5 31.5 0 0 1 3 10.4 8.8 8.8 0 0 1-.8 4.3 2 2 0 0 1-1.6 1c-6 1.5-12 3.2-18.1 2.6a9 9 0 0 1-5.4-1.7 5.6 5.6 0 0 1 0-8.5c1.8-1.7 2.5-3.9 3.3-6a37.8 37.8 0 0 0 1.8-13.2 30.5 30.5 0 0 0-2.9-12.4c-3-6.5-5.8-13-8.7-19.6-3.2-7-6.3-14.2-9.1-21.5a82.9 82.9 0 0 1-5-16.8l-.3-2a4.8 4.8 0 0 1 1.6-4.5c6-5.9 4.2-13.6-1.8-18a3.7 3.7 0 0 1-1.7-2.4 27.8 27.8 0 0 0-5.2-11.5 12.1 12.1 0 0 0-2.4-2c0-.3 0-.4.3-.3z" class="aq"/><path d="M205 319a80.2 80.2 0 0 1-2.3 10.3c-1.9 6.8-4.6 13.3-9.2 18.8-3.4 4-7.4 7-12.6 8a18.9 18.9 0 0 1-9-.6c-.8-.2-.4-.7-.3-1.2l6.4-15.9 6.8-17c.3-.8.6-1 1.5-.6 5 2 10 2.5 15 .5a17.3 17.3 0 0 0 3.7-2.2z" class="h"/><path d="M176.3 182.5c-.3 2.6 1 4.7 2 6.9 1.2 2.7 2.4 5.4 2.5 8.4.1 4.7-.8 4.5-4.6 4.9a21.7 21.7 0 0 1-13.3-3.3l-1.5-1.1a3.3 3.3 0 0 1-1.6-4.1 11.8 11.8 0 0 0-2-9.7 3.2 3.2 0 0 1-.5-3 18 18 0 0 1 12.4-12.5 2.1 2.1 0 0 1 2.2.8 14.6 14.6 0 0 1 3.9 7.8 29.7 29.7 0 0 1 .5 5z" class="y"/><path d="M179.4 252.8a18.4 18.4 0 0 1 9.5 3c5.8 3.9 9.7 9.2 11 16.2.1.5.2.8-.6.6-2.9-.8-5.8-.1-8.7.3a6.5 6.5 0 0 1-2.8 0 25.5 25.5 0 0 1-7.8-3.4c-4.2-2.9-8.6-5.7-12.9-8.5-1.9-1.3-1.9-3 0-4.3a19.6 19.6 0 0 1 12.3-3.9zM194.8 321.8a20.5 20.5 0 0 1-8.4-1.6c-.8-.3-.9-.8-.6-1.5l8-20.3a2 2 0 0 1 1.8-1.5 11.8 11.8 0 0 0 5.2-2c.6-.3.9-.4 1 .5a52.1 52.1 0 0 0 3.6 15.9c.7 1.7.1 3.2 0 4.9-.2 2.9-2.6 3.7-4.8 4.6a12.4 12.4 0 0 1-5.8 1z" class="aq"/><path d="M237 305.6l-1.5-7.5a1 1 0 0 1 1 .2c4.5 3.3 9.9 4.8 15.3 5.9a308.7 308.7 0 0 0 30.6 4.7c4.3.4 8.5.7 12.8.8s8.4.3 12.6.5a9 9 0 0 1 3.6.6l-1.1 1.5c-4 .3-8 0-11.9.2a239.7 239.7 0 0 1-35-.8 134.1 134.1 0 0 1-14.3-1.6 33.6 33.6 0 0 1-11.2-4.2 1.8 1.8 0 0 0-1-.3z" class="j"/><path fill="#fece21" d="M159.3 191.4a15.5 15.5 0 0 1-.9 5.4c-.4 1.4-1.7 2-2.8 2.8a8.6 8.6 0 0 1-4.9 2c-1.3 0-2.3-.1-3-1.6a34.5 34.5 0 0 1-3.3-10.2 3.6 3.6 0 0 1 .2-1.8 17.3 17.3 0 0 1 4-5.8 2.4 2.4 0 0 1 3.2-.6c1.5 1 3.3 1.4 4.6 2.7a10.7 10.7 0 0 1 2.9 7z"/><path d="M324 321.6a33.6 33.6 0 0 0-2.5-4.2 14.2 14.2 0 0 0-4.8-4.2c-.4-.2-.8-.3-.5-.8s.6 0 .9.1c3 1.3 5.4 3.8 8.2 5.5a3.8 3.8 0 0 0 2.2.9l7.7 9.8a7.9 7.9 0 0 1 1.6 6.5c-.5 3-.6 6-1 9 0 .6 0 1.5-.6 1.8s-1.1-.6-1.6-1c-1-1-1.8-2-2.8-2.8a6.2 6.2 0 0 1-2.4-4.9 37.2 37.2 0 0 0-3.6-13.7 7.7 7.7 0 0 0-.9-2z" class="j"/><path d="M205.5 321.5c1.3 4.4 3.9 8.3 4.6 12.9a8 8 0 0 1-2.5 7.1c-2.6 2.6-5.2 5-8.7 6.3a66 66 0 0 0-6.7 3.2 58 58 0 0 0 13.3-29.5z" class="i"/><path d="M307 328.3a21.8 21.8 0 0 1-9-2.9l-1.3-.8a1 1 0 0 1 .4-.7c2.3-2.2 4.4-4.6 6.8-6.6a16 16 0 0 1 8.6-3.7l.7.2a10.8 10.8 0 0 1-.2 4.6 20 20 0 0 1-5.2 9.4 1.4 1.4 0 0 1-.8.5z" class="z"/><path d="M311.4 310.8c-4.7-.1-9.5-.5-14.3-.5a307.3 307.3 0 0 1-45.2-5.7 40.3 40.3 0 0 1-15.3-5.7l-1-.8-.3-1c-.1-.3-.2-.5 0-.7s.7 0 1 .2a25 25 0 0 0 4.1 2.5c4 2 8.1 3 12.4 4a137.8 137.8 0 0 0 13.5 2.4c6.4.9 12.7 1.7 19.1 2.3 5.1.4 10.3.5 15.4 1l10.3 1.5c.3 0 .8 0 .3.5z" class="l"/><path d="M154 201.6a9 9 0 0 1-2.2 3.6c-1.6 1.6-3 3.5-5.2 4.6a38.2 38.2 0 0 1-6.8 2.4 2.5 2.5 0 0 1-2.3-.5 8.1 8.1 0 0 1-2.7-3.3c-.4-.9-.2-1.3.8-1.3a18 18 0 0 0 5.8-1.3 14.3 14.3 0 0 0 6.2-3.8c0-.2.2-.4.5-.2 1.9.8 3.8 0 6-.2zM175 206.3a5.5 5.5 0 0 1-.6 3.4c-.2.4-.5.6-1 .4a31 31 0 0 1-14.4-7.8l-.5-.6c-1.7-1.9-1.6-2.5.3-4.1.4-.4.6 0 .8.1 3.9 3.8 8.6 5.4 13.9 5.8 1.3 0 1.7.5 1.6 1.7v1.1z" class="y"/><path d="M328.3 318.6c.4-.6.8-.5 1.3 0a34.5 34.5 0 0 1 9.5 14.1 7.6 7.6 0 0 1 0 3.2 182 182 0 0 1-2.3 15.9 4.5 4.5 0 0 1-.2.6l-7.2-7.3c-1-1.1-2.5-2-3.3-3.4s.1-3 .2-4.4a27 27 0 0 0-2.6-12.8 1.6 1.6 0 0 1 0-1.7 42.4 42.4 0 0 1 3.1 8.6 55.6 55.6 0 0 1 1.2 8.3c0 .4 0 1 .5 1.2a27.7 27.7 0 0 1 3.6 3.7c.9 1 2 1.7 2.8 2.6.7.6 1 .3 1-.4a36.9 36.9 0 0 0 1-5.6c.2-2.9.5-5.7.5-8.6a4.5 4.5 0 0 0-.7-2.5 91.3 91.3 0 0 0-7.8-10.5 2 2 0 0 1-.6-1z" class="ab"/><path d="M237 305.6c.1-.2-.2-1 .5-.4a37.6 37.6 0 0 0 17.5 5.4l11.6 1c3.5.3 7 .3 10.4.5 5.6.4 11.2.3 16.8.1l15.1-.1c.5 0 1-.2 1.3.2a3.1 3.1 0 0 1-2 .5c-7.5-.3-15 .6-22.4.6-6 0-12.2-.2-18.2-.5-2.4 0-4.8-.2-7.1-.4-1-.2-2 0-3-.2h-.7c-2.2-.2-4.3-.2-6.5-.6a38.6 38.6 0 0 1-11.6-3.8 3 3 0 0 1-1.6-1.8zM328.3 318.6a57.8 57.8 0 0 1 6 7.3c.6.9 1.2 1.9 1.9 2.7 1.8 2 1.7 4.5 1.5 7l-.7 7a39.4 39.4 0 0 1-.8 4.7 1 1 0 0 1-.6.9c-.4.1-.5-.4-.7-.6-2-1.7-3.7-3.9-5.7-5.6a4.7 4.7 0 0 1-1.7-3.8 41.4 41.4 0 0 0-3.5-14.1 4.5 4.5 0 0 1-.3-1.4 1.7 1.7 0 0 0 .2-1.1c.5-.3.5.2.6.4a40.5 40.5 0 0 1 4.3 15 6 6 0 0 0 2 4.8 55.4 55.4 0 0 1 4.3 4.2 49.7 49.7 0 0 0 .9-6.2l.7-7c.2-1.4-.7-2.3-1.3-3.3-2.4-3.4-5-6.7-7.7-9.9-.2-.2-.4-.4-.2-.7z" class="l"/><path d="M300.8 308.8a143.3 143.3 0 0 1-15-.7l-9.7-1a223.6 223.6 0 0 1-28.6-5 29.5 29.5 0 0 1-11.4-5.3c-.4-.3-.8-.6-.8.3l-.5-1.7a1.1 1.1 0 0 1 0-.4c4.3 3.9 9.6 5.5 15 7a123 123 0 0 0 22.7 3.9c8 .7 16 1 24 2.2a25.2 25.2 0 0 1 4.3.7z" class="ac"/><path d="M315 313.9c-.4-.7.2-.6.5-.5a7.6 7.6 0 0 1 2 1c2.5 1.7 4.1 4.3 5.6 6.9.4.7-.2 2-1.3 3-.6.1-1-.4-1.3-.7a17 17 0 0 1-4.4-7.8c-.3-.7-.3-1.5-1-2z" class="z"/><path d="M316 311.3a7.5 7.5 0 0 0-2-1c0-.6.4-.8.8-1.1a16.5 16.5 0 0 1 7.7-3.5 13.2 13.2 0 0 1 5 1.9 3.5 3.5 0 0 1-2.2.6 19.9 19.9 0 0 0-7.6 2.5 5 5 0 0 1-1.7.6z" class="ae"/><path d="M312.5 313.6a1.3 1.3 0 0 1-1 .4 16.2 16.2 0 0 0-8.8 4.7l-6 6c-.3-.3-.7-.4-1-.8a3.1 3.1 0 0 1 1-1.6 59 59 0 0 1 6-5.7 8.2 8.2 0 0 1 1.4-.8 33.5 33.5 0 0 1 6-2.5 2.4 2.4 0 0 1 2.4.3zM307 328.3c2.5-2.9 4.8-6 5.6-9.8.3-1.5.4-3.1.6-4.7.7 0 .8.5 1 1 .7 3-.1 5.6-1.3 8.2a12.3 12.3 0 0 1-3.4 4.8 2 2 0 0 1-2.5.5z" class="ah"/><path d="M329.3 316c-.3 1-1.1 1.5-1.8 2-.4.4-.8.2-1.1-.1l-5.3-4a8 8 0 0 0-1.8-1c-.3-.1-.8-.2-.7-.6s.6-.2.9-.2a27.6 27.6 0 0 1 9.2 3.4 1.6 1.6 0 0 1 .6.6z" class="ae"/><path d="M315 313.9c1.1-.3 1 .6 1.2 1.2a16.5 16.5 0 0 0 5.6 9.2 1.7 1.7 0 0 1-1.3.6 1.1 1.1 0 0 1-.9-.4 12.3 12.3 0 0 1-4-7.2 13.2 13.2 0 0 0-.6-3.4z" class="ak"/><path d="M237 306a4.7 4.7 0 0 0 2 1.6 42.2 42.2 0 0 0 14.6 4.2 9.4 9.4 0 0 1 3.2.5 41 41 0 0 1-18-3.5 2.6 2.6 0 0 1-1.8-2.7z" class="as"/><path d="M316 311.3a22.3 22.3 0 0 1 11.5-3.8l1 .6c0 .6-.5.8-1 .8a40 40 0 0 0-8.8 2.4l-2.6.2v-.2z" class="ai"/><path fill="#519adb" d="M318.7 311.3a19.4 19.4 0 0 1 7.6-2.5c.8-.1 1.7 0 2.3-.7.5.1 1.1.2 1.1 1s-.7.5-1.2.6a61.2 61.2 0 0 1-9.8 1.6z"/><path fill="#5199db" d="M304 315.8a74.3 74.3 0 0 0-8.2 8c-.6-.6-.2-1.1 0-1.7a12.7 12.7 0 0 1 5-4.8c1-.6 2-1.4 3.3-1.5z"/><path fill="#f7f4f7" d="M329.3 316c-3-1.8-6.5-2.7-9.8-4 1.6-.6 3.2 0 4.7.3a21 21 0 0 1 4.4 1.8c.6.3 1.1.6 1 1.4z"/><path fill="#5399da" d="M309.5 327.8l2-2.8a17.5 17.5 0 0 0 2.8-10.2c1 1.7.5 3.5.2 5.2-.6 3-1.7 5.7-4.3 7.6a3.2 3.2 0 0 1-.7.2z"/><path fill="#f6f3f6" d="M322.5 305.6c-.3.4-.7.4-1.1.5a18 18 0 0 0-7.4 4.2c-1 0-1.1-.2-.5-1 2.5-2.5 5.3-4.1 9-3.7z"/><path fill="#569adb" d="M315.5 317.3a15.5 15.5 0 0 0 5 7.6 1.4 1.4 0 0 1-1.8-.3 10.9 10.9 0 0 1-3.2-7.3z"/><path fill="#549adb" d="M313.6 313.1a13.5 13.5 0 0 1-1.3-.4c-.4-.2-1-.3-.6-.9s.5-1.2 1.3-.9a5.6 5.6 0 0 1 1 .5c.4.2 1.4.2 1.2.9s-1 .5-1.6.8z"/><path fill="#5b9cda" d="M329.6 315.5c-.1-.6-.6-.8-1.1-1l-4.3-2.2a15.9 15.9 0 0 1 5.1 1.6c.7.3.6 1 .3 1.6z"/><path d="M130 297v2l-.3 2.4a10.5 10.5 0 0 1-.2-2.8c0-.4.2-1-.5-1 .2-.5.6-.5 1-.5zM212.8 253.3a12.4 12.4 0 0 1 2.4 2.5 5.3 5.3 0 0 1-2.4-2.5zM210.5 275.3a29.4 29.4 0 0 0-.2 4.8 6.9 6.9 0 0 1 .2-4.8z" class="b"/><path d="M257.5 312.3a7.7 7.7 0 0 1 3 .2 8.8 8.8 0 0 1-3-.2z" class="as"/><path d="M215.3 288.4h2.2c-.7.9-1.5 0-2.2 0zM215.5 256.1a1.8 1.8 0 0 1 1 1.2 1.8 1.8 0 0 1-1-1.2zM130 302.9a2.7 2.7 0 0 1-.3-1.6c.6.5.2 1 .3 1.6zM214.5 267.8a1 1 0 0 1-.7 1 1.2 1.2 0 0 1 .7-1zM217.7 288.3a2.1 2.1 0 0 1 1.3-.2c-.4.4-.9.2-1.3.2zM193.3 258l-.3.3-.5-.4.7-.4z" class="b"/><path fill="#fcdccf" d="M133.3 120c1 1.3.2 2.6-.2 3.7a9.6 9.6 0 0 1-7.1 6.5c-7.8 1.5-12.4-5-11.3-11a12.2 12.2 0 0 1 1.9-4.4 2.1 2.1 0 0 1 2-1.2c1 0 1.4 1.3 2.4 1.6a17.8 17.8 0 0 0 8.3 4.1c1.3.4 2.7.1 4 .8z"/><path fill="#fcddd0" d="M177.8 133.6c1.5.5 1.2 2 1.1 3a9.3 9.3 0 0 1-2.8 6.7 8 8 0 0 1-10.8.4c-3.2-2.6-4.2-6.1-3.3-10.2a8.8 8.8 0 0 1 1.7-3.3 1.5 1.5 0 0 1 2-.4 1.2 1.2 0 0 1 1 .3 14.8 14.8 0 0 0 5.3 2.5 13.6 13.6 0 0 0 5 .8.8.8 0 0 1 .8.2z"/><path d="M120.8 115.3c-1-.2-1.5-1.3-2.3-1.7a15.5 15.5 0 0 1-2.2-12.7 4 4 0 0 0 .2-1.6c-.3-.7.1-1.1.5-1.6a29.4 29.4 0 0 1 5-4.4 13 13 0 0 1 7-2c1.7-.1 3.5-.3 5 .5a4 4 0 0 1 1 1.5c0 .5.2 1 .3 1.4a8.6 8.6 0 0 1-.5 4 14.4 14.4 0 0 1-1.7 3c-1.8 2-4 3-6.7 2a9.5 9.5 0 0 1-2.4-1.5c-1.6-2-1.5-4.1-1.1-6.3a19.3 19.3 0 0 0-3.3 8 15.3 15.3 0 0 1-.4 1.7 12 12 0 0 0 0 3.8 3.4 3.4 0 0 1 .1.5c0 1.5.7 2.7 1.1 4 .2.5.6.9.4 1.4z" class="i"/><path d="M134 92c-4.4-1-8.7-.7-12.5 2a26.3 26.3 0 0 0-3.9 3.5 4 4 0 0 0-1.1 1.8 10.8 10.8 0 0 0-1.3 3c-.1.2-.3.6-.7.6s-.4-.5-.4-.9c.4-4.7 2.2-9.6 7-12.1a18.8 18.8 0 0 1 10.5-2 20 20 0 0 1 13.7 6.5c2.9 3.1 3.2 6.7 2 10.8-.4-.8-.1-1.6-.6-2.2a1.2 1.2 0 0 1-.4-.8 8.8 8.8 0 0 0-3-5 13 13 0 0 0-6.4-4 12.3 12.3 0 0 1-3-1.1zM165 110.4c-.7-.2-.2-.5 0-.7a10 10 0 0 1 8.2-5.8 16.8 16.8 0 0 1 12 2.8c3.8 2.5 5 6.4 5.6 10.6a10.8 10.8 0 0 1-1.4 6.6c-.2.3-.3 1-1 .7v-.2a3.8 3.8 0 0 1 0-1.3 12.5 12.5 0 0 0-1-7.3c-1.2-4.5-4.4-6.8-8.6-8a15.6 15.6 0 0 0-6.5-.2c-1.2.2-2.3.6-3.5 1-1.4.4-2.5 1.5-3.8 1.9z" class="bd"/><path fill="#a6caea" d="M171.7 132.8a13.4 13.4 0 0 1-6-3 1.8 1.8 0 0 0-.7-.8 2 2 0 0 1-.8-1 21 21 0 0 1-.8-5.2c0-.4 0-1 .5-1.3.4.2.4.7.6 1a7.3 7.3 0 0 0 2.8.4l2.5.4a19.2 19.2 0 0 1 5.7 2 11.5 11.5 0 0 1 4.8 5c-.2.6-.6.4-1 .3l-1-.5c-2.2-1-3.7-.4-4.7 1.8-.4.9-.9 1.4-1.9 1z"/><path d="M143.3 96.8a9.4 9.4 0 0 1 3.5 6.2c-.3 7.5-4.2 12.6-10.5 16.3a4.8 4.8 0 0 1-3 .8 12 12 0 0 1-4.2-.5 3.8 3.8 0 0 1 4.4-3.7 5.3 5.3 0 0 1 2 .7 1.3 1.3 0 0 0 2-.4 15 15 0 0 0 2.9-4 16.3 16.3 0 0 0 2-3.9 10.9 10.9 0 0 0 1.1-4.9 10.4 10.4 0 0 0 0-4.2c-.1-.8-.6-1.6-.2-2.5zM171.7 132.8a1.2 1.2 0 0 0 1.5-.9c1.1-2.6 3.2-3.2 5.8-1.8.3.2.7.8 1.2.2.7-1.2 2-1.7 2.7-2.9a10.1 10.1 0 0 0 1.4-2.2c.3-.9 1-1.6 1.2-2.6a21.6 21.6 0 0 0 1.4-6 1.6 1.6 0 0 1 .6-1.1 10.3 10.3 0 0 1 1 7.9c-.3.4 0 .8-.3 1.3a8 8 0 0 0-1.8 2.5 13.2 13.2 0 0 1-6.8 5.3 6.6 6.6 0 0 0-1.9 1.1c-2 .6-4-.1-6-.8z" class="i"/><path d="M164 121.6c-.6 1.8 0 3.6.4 5.3a14.2 14.2 0 0 0 .6 2.1c-1.1 0-1.5-1-2-1.8a6.4 6.4 0 0 1-1-4.2 49 49 0 0 1 .7-7.2 11.8 11.8 0 0 1 2.3-5.3 15.9 15.9 0 0 1 3.7-2.3c.3.4 0 .8-.1 1.1-2.3 3.3-3.1 7.1-4 11-.2.4-.2 1-.6 1.3z" class="m"/><path fill="#f0ad9e" d="M144.9 147c-2.9-.2-5.5-1-7.2-3.5-1.3-1.8-.7-5.2.8-6.8 1.3-1.3 2.7-.8 4-.6a16.3 16.3 0 0 1 7.7 3.7c1.4 1.2 1.5 2.2.8 3.9-1.2 2.7-3.4 3.5-6.1 3.4z"/><path d="M137.7 116.3c-.5 1-1 1.5-2.3.7-2.6-1.8-5.6-.7-6.4 2.6a16.5 16.5 0 0 1-8.2-4.3c-.8-1.7-1.8-3.3-1.8-5.2.6.4 1 1 1.8.4 1-.1 1.8-.6 2.7-.7a14 14 0 0 1 7.8.6 13 13 0 0 1 5.4 3.8 3.3 3.3 0 0 1 1 2z" class="bg"/><path d="M137.7 116.3a13 13 0 0 0-11.8-6.5l-2.4.2c1.2-1 1.1-2.6 1.6-4a5.4 5.4 0 0 1 1.2-2.5 6.2 6.2 0 0 0 6.7-2 15.3 15.3 0 0 1 6.2 8.4 4.6 4.6 0 0 0 1.3 2.4 10.6 10.6 0 0 1-2.8 4z" class="ad"/><path fill="#306494" d="M120.8 110.8c-1 .7-1.6.5-1.8-.7v-.5a14.7 14.7 0 0 1 0-4 19.6 19.6 0 0 1 4.4-10.7c-.7 2.6-.7 5 .9 7.2.3.4 0 .7-.1 1a21.8 21.8 0 0 0-2.3 6.2c-.2.7-.3 1.3-1.1 1.5z"/><path fill="#4386c1" d="M140.5 112.3c-1 .3-1-.7-1.2-1.2a34.6 34.6 0 0 0-1.5-3.9 14.3 14.3 0 0 0-4.3-5c-.2-.2-.5-.4-.5-.7l1.5-2.7a3.4 3.4 0 0 0 1.8 2.1 17.6 17.6 0 0 1 5 6.2 3.9 3.9 0 0 0 1.2 1.4 12.7 12.7 0 0 1-2 3.8z"/><path fill="#1a3752" d="M143.3 96.8a13.5 13.5 0 0 1 .5 2.5c.1.6.3 1.4-.1 1.7s-1.2-.2-1.6-.6a47.8 47.8 0 0 0-6.9-5.2 1 1 0 0 1 0-.6 8 8 0 0 0-.5-1.3l-.7-1.2c3.5.7 6.9 1.8 9.3 4.7z"/><path fill="#326796" d="M135.3 94.6v.5a2.6 2.6 0 0 1 .2 1.9 1 1 0 0 0 .5 1.1 20.7 20.7 0 0 1 6 5.3c.7.7 1 .6 1.7.2a10 10 0 0 1-1.2 5c-.7.3-.8-.2-1-.6a17.6 17.6 0 0 0-6.7-7.6c-.8-.5-.1-1-.3-1.6a13.7 13.7 0 0 0 .5-4.2c0-.1.2-.2.3 0z"/><path fill="#4284be" d="M120.8 110.8a2 2 0 0 0 .6-1.1 27.6 27.6 0 0 1 2.9-7.6l2 1.4a29.6 29.6 0 0 0-1.6 5.7c0 .7-.9.4-1.2.8a19 19 0 0 1-2.7.8z"/><path d="M119 105.6v4a7.2 7.2 0 0 1 0-4z" class="bg"/><path d="M135.3 94.6h-.3l-.3-1.3c.4.3.4.8.6 1.3z" class="bm"/><path d="M172.1 107.3a11.4 11.4 0 0 1 6.9.3 2.7 2.7 0 0 1 .8.6c1.4 1.7 1.5 3.7 1.2 5.7a13.9 13.9 0 0 1-1.3 3.3 7 7 0 0 1-.9.9q-3.1 3-7 .7a7 7 0 0 1-2.3-3c-.8-2.9 0-5.4 1.5-7.7a2 2 0 0 1 1.1-.8z" class="i"/><path fill="#2f618f" d="M172.1 107.3a8.9 8.9 0 0 0-2.3 8.5 2.1 2.1 0 0 1-.4 2.6 11.4 11.4 0 0 0-1.8 3.3c-.4 1-1 1.4-2 1.2-.5 0-1 .2-1.5 0l-.1-1.3c.9-4.5 1.8-9 4.5-12.8a.7.7 0 0 0 .2-.6 24.5 24.5 0 0 1 3.4-.9z"/><path fill="#1b3a57" d="M179.5 108l-.5-.4c4 1.2 7.3 3.3 8.5 7.8a22.6 22.6 0 0 1-.7 4.1c-.3.7-.7.9-1.2.4a3 3 0 0 1-.5-.7 36.4 36.4 0 0 0-3.7-5.5 2.2 2.2 0 0 1-.4-1.6 5.6 5.6 0 0 0-1.5-4z"/><path d="M188.3 124.6c0-.4-.3-1 .2-1.3a2 2 0 0 1-.2 1.3z" class="h"/><path fill="#4f9adb" d="M171.8 118.5c3 1.6 5 1.4 7.7-1.5 0 1.3 1 2 1.5 3.1-.4.3-1 0-1.4 0a1.7 1.7 0 0 0-2 1.6 1.8 1.8 0 0 0 3.7.2c.1-.4-.1-.9.1-1.3.9-.1 1 .6.8 1-.2 2 .7 3 2.3 3.7a11.7 11.7 0 0 1-4.3 5l-1.8-2.2a14 14 0 0 0-7.8-4.3 3.3 3.3 0 0 1-.6-.3 9.7 9.7 0 0 1 1.1-2.3 4 4 0 0 0 .7-2.7z"/><path fill="#4282bb" d="M171.8 118.5a1.5 1.5 0 0 1 0 2.1c-.7 1-.8 2.2-1.8 3a51.9 51.9 0 0 1-6-.8 6.4 6.4 0 0 1 .8 0c1.4.2 2.3 0 2.6-1.7a7.9 7.9 0 0 1 1.8-3 2.6 2.6 0 0 0 .6-2.3 10 10 0 0 0 2 2.7z"/><path d="M143.8 103.6c-.5.2-.2.8-.6 1.2a5.5 5.5 0 0 1-1.6-1.6 20.7 20.7 0 0 0-6-5c-.4-.2-.7-.3-.5-.8a9.9 9.9 0 0 0 .2-2.3 24.4 24.4 0 0 1 6 4.3 7.8 7.8 0 0 0 2.4 1.6v-1.7a10 10 0 0 1 0 4.3z" class="bm"/><path fill="#366c9d" d="M184.5 125.3a3 3 0 0 1-2.6-3c.1-.7.2-1.3-.4-1.7-.4 0-.6-.2-.5-.6-1-.8-2-1.5-1.5-3l1.2-3c.5 2.7 2.4 4.6 3.6 7 .3.7 1 1.1 1.4 1.8a6.6 6.6 0 0 1-1.2 2.5z"/><path fill="#285177" d="M185.7 122.8c-1.6-.7-2-2.3-2.8-3.6-.5-.5-.7-1.2-1.1-1.8-.7-1-1.5-2-1-3.4a7.5 7.5 0 0 0-1.3-6c1.4 1 1.6 2.5 1.7 3.9a4 4 0 0 0 1 2.3 38.6 38.6 0 0 1 3.4 5.2c.3.5.7.8 1.2.2 0 1.2-.8 2.1-1 3.2z"/><path fill="#fbd4c5" d="M145.7 146.6a12 12 0 0 1-5.8-1.9 5.1 5.1 0 0 1-1.1-7.3 1.9 1.9 0 0 1 1.7-.8 16.7 16.7 0 0 1 9.3 4 2 2 0 0 1 .5 2.7c-1 2.4-2.1 3.3-4.6 3.3z"/><path fill="#e2eef9" d="M131.5 108.3a2 2 0 0 1-2.2-1.8 2.2 2.2 0 0 1 2.2-2 1.9 1.9 0 0 1 2 1.9c0 1.2-.6 2-2 2z"/><path fill="#d5e5f2" d="M181 120l.5.6a2.3 2.3 0 0 1-.7 2.7 2 2 0 0 1-2.5.1 1.8 1.8 0 0 1-1-2 2 2 0 0 1 2.2-1.6 12 12 0 0 1 1.5.3z"/></svg>